{
.appVersion = "1356";
DisplayStrings = (
"/acutecomb Á",
aeo,
"AÁ/Abreve Â/dieresiscomb ÄÀ/Amacron/Aogonek ÅÃ",
"/dieresiscomb/dotaccentcomb/gravecomb/acutecomb/hungarumlautcomb/circumflexcomb/caroncomb/brevecomb/ringcomb/tildecomb/macroncomb/commaturnedabovecomb/commaaccentcomb/cedillacomb/ogonekcomb/caroncomb.alt",
ADD1zRaIANO,
"/caroncomb D/Dcaron",
HC,
B,
DO,
E,
"O/O.ss01",
"O/O.ss01",
"ÞJH",
e,
"A/Aogonek",
"/OE DÞ",
"/space tæe",
"æe",
"á/abreve âäà/amacron/aogonek",
"å",
d,
"/caroncomb.alt dd/dcaron",
g,
"Royal\012Copenh/serif.n a/n.shoulder nge/serif.n/n.shoulder n\012attitu/serif.n dsae/n.shoulder her/idotless itagez",
mn,
"/eng",
"b/dcaron/dcroat",
h,
rbn,
"t/tcaron",
"/tbar",
"t/cedillacomb/tcedilla",
r,
"s/cedillacomb",
"/gravecomb oò",
"/jdotless",
j,
"j/jdotless",
"/dotaccentcomb/idotless/dotaccentcomb/idotless i.",
"i.,:;",
u,
y,
f,
"ea/e.ss01",
o,
"o/o.ss01",
"/e.ss01/gravecomb è",
"ØO",
z069HO,
"./ellipsis",
"HzA&OzHtH3e",
"¶",
P,
pad,
nabdeq,
dao,
"õ",
ad,
"zd/space aq",
"a/serif.n ntiddo/serif.n/serif.n.l t/serif.n.l/serif.n/serif.n.l/serif.n/serif.n/serif.n/serif.n.l/serif.n no/serif.n/serif.n.l n/serif.n.l/serif.n/serif.n ntea/n.shoulder n/n.shoulder her/idotless itage",
"ncnç",
"!¡?·",
"/backslash",
"±^",
"©®",
"/circumflexcomb Â",
"Á",
"S/Scaron",
"ðo",
"ð",
"69",
"oo/oe",
"±",
"&",
abdpqroncioursqa,
K,
"s/scedilla",
"#+",
SO$,
"®",
"½",
"/sixinferior/six.dnom/nine.dnom",
"0/zero.dnom/one.dnom/two.dnom/three.dnom/four.dnom/five.dnom/six.dnom/seven.dnom/eight.dnom/nine.dnom",
"/zero.dnom/one.dnom 2/two.dnom 3/three.dnom z/four.dnom/five.dnom/six.dnom/seven.dnom/eight.dnom/nine.dnom",
"/zero.dnom/one.dnom/two.dnom 3/three.dnom z4/four.dnom/five.dnom/sixinferior/six.dnom/seven.dnom/eight.dnom/nine.dnom",
"",
"c¢",
"^",
"/euro/florin H£H¥",
"/product A/summation/radical µ/partialdiff/percent.bowl/percent.bowl/percent.bowl %/perthousand",

glyphs = (
{
glyphname = A;
lastChange = "2021-08-02 10:44:12 +0000";
layers = (
{
anchors = (
{
name = bottom;
position = "{167, 0}";
},
{
name = ogonek;
position = "{487, 0}";
},
{
name = top;
position = "{415, 680}";
}
);
background = {
anchors = (
{
name = bottom;
position = "{285, 0}";
},
{
name = center;
position = "{282, 340}";
},
{
name = ogonek;
position = "{597, 0}";
},
{
name = top;
position = "{325, 680}";
},
{
name = topleft;
position = "{131, 680}";
}
);
hints = (
{
horizontal = 1;
place = "{-15, 213}";
type = Stem;
},
{
horizontal = 1;
place = "{675, -20}";
target = down;
type = TopGhost;
},
{
horizontal = 1;
place = "{181, 17}";
type = Stem;
}
);
paths = (
{
closed = 1;
nodes = (
"185 0 LINE",
"185 16 LINE",
"174 16 LINE SMOOTH",
"130 16 OFFCURVE",
"115 53 OFFCURVE",
"141 143 CURVE SMOOTH",
"256 547 LINE",
"240 547 LINE",
"340 127 LINE SMOOTH",
"361 39 OFFCURVE",
"353 16 OFFCURVE",
"304 16 CURVE SMOOTH",
"293 16 LINE",
"293 0 LINE",
"634 0 LINE",
"634 16 LINE",
"590 16 OFFCURVE",
"579 35 OFFCURVE",
"568 77 CURVE SMOOTH",
"397 715 LINE",
"378 715 LINE",
"352 649 OFFCURVE",
"300 614 OFFCURVE",
"246 600 CURVE",
"119 177 LINE SMOOTH",
"73 25 OFFCURVE",
"45 16 OFFCURVE",
"9 16 CURVE SMOOTH",
"4 16 LINE",
"4 0 LINE"
);
},
{
closed = 1;
nodes = (
"334 196 LINE",
"328 228 LINE",
"156 228 LINE",
"147 196 LINE"
);
}
);
};
hints = (
{
horizontal = 1;
place = "{0, 16}";
type = Stem;
},
{
horizontal = 1;
place = "{186, 32}";
type = Stem;
},
{
horizontal = 1;
place = "{690, -20}";
target = down;
type = TopGhost;
},
{
place = "{4, 145}";
type = Stem;
},
{
place = "{399, 185}";
type = Stem;
}
);
layerId = "838EFC6A-184F-4DB1-9A1E-77D55F860A0C";
paths = (
{
closed = 1;
nodes = (
"112 0 LINE",
"112 16 LINE",
"54 16 OFFCURVE",
"47 48 OFFCURVE",
"102 143 CURVE SMOOTH",
"323 524 LINE",
"308 524 LINE",
"297 127 LINE SMOOTH",
"294 34 OFFCURVE",
"281 16 OFFCURVE",
"220 16 CURVE",
"220 0 LINE",
"561 0 LINE",
"561 16 LINE",
"517 16 OFFCURVE",
"511 35 OFFCURVE",
"511 77 CURVE SMOOTH",
"510 702 LINE",
"491 702 LINE",
"447 626 OFFCURVE",
"386 591 OFFCURVE",
"328 577 CURVE",
"89 177 LINE SMOOTH",
"9 43 OFFCURVE",
"-18 16 OFFCURVE",
"-69 16 CURVE",
"-69 0 LINE"
);
},
{
closed = 1;
nodes = (
"309 196 LINE",
"312 228 LINE",
"140 228 LINE",
"122 196 LINE"
);
}
);
width = 616;
},
{
anchors = (
{
name = bottom;
position = "{217, 0}";
},
{
name = ogonek;
position = "{450, 0}";
},
{
name = top;
position = "{408, 680}";
}
);
background = {
anchors = (
{
name = bottom;
position = "{284, 0}";
},
{
name = center;
position = "{281, 340}";
},
{
name = ogonek;
position = "{576, 0}";
},
{
name = top;
position = "{311, 680}";
},
{
name = topleft;
position = "{110, 680}";
}
);
hints = (
{
horizontal = 1;
place = "{33, 21}";
target = up;
type = BottomGhost;
},
{
horizontal = 1;
place = "{723, -20}";
target = down;
type = TopGhost;
}
);
paths = (
{
closed = 1;
nodes = (
"130 0 LINE",
"130 7 LINE",
"121 7 LINE SMOOTH",
"86 7 OFFCURVE",
"76 9 OFFCURVE",
"117 124 CURVE SMOOTH",
"307 652 LINE",
"304 652 LINE",
"494 116 LINE SMOOTH",
"524 32 OFFCURVE",
"526 7 OFFCURVE",
"492 7 CURVE SMOOTH",
"476 7 LINE",
"476 0 LINE",
"604 0 LINE",
"604 7 LINE",
"569 7 OFFCURVE",
"562 13 OFFCURVE",
"527 110 CURVE SMOOTH",
"318 692 LINE",
"314 692 LINE",
"314 686 OFFCURVE",
"312 683 OFFCURVE",
"308 681 CURVE",
"108 126 LINE SMOOTH",
"66 9 OFFCURVE",
"54 7 OFFCURVE",
"27 7 CURVE SMOOTH",
"22 7 LINE",
"22 0 LINE"
);
},
{
closed = 1;
nodes = (
"460 220 LINE",
"457 228 LINE",
"152 228 LINE",
"149 220 LINE"
);
}
);
};
hints = (
{
horizontal = 1;
place = "{12, 19}";
type = Stem;
},
{
horizontal = 1;
place = "{232, 20}";
type = Stem;
},
{
horizontal = 1;
place = "{702, -20}";
target = down;
type = TopGhost;
},
{
place = "{-57, 86}";
type = Stem;
},
{
place = "{450, 87}";
type = Stem;
}
);
layerId = "B3CAC60A-28EB-414C-BF20-F972525BD7DF";
paths = (
{
closed = 1;
nodes = (
"45 0 LINE",
"45 7 LINE",
"-5 7 OFFCURVE",
"-7 11 OFFCURVE",
"64 124 CURVE SMOOTH",
"395 651 LINE",
"392 651 LINE",
"439 116 LINE SMOOTH",
"447 19 OFFCURVE",
"442 7 OFFCURVE",
"391 7 CURVE",
"391 0 LINE",
"519 0 LINE",
"519 7 LINE",
"484 7 OFFCURVE",
"479 13 OFFCURVE",
"470 110 CURVE SMOOTH",
"417 691 LINE",
"413 691 LINE",
"411 685 OFFCURVE",
"408 682 OFFCURVE",
"404 680 CURVE",
"55 126 LINE SMOOTH",
"-19 9 OFFCURVE",
"-31 7 OFFCURVE",
"-58 7 CURVE SMOOTH",
"-63 7 LINE",
"-63 0 LINE"
);
},
{
closed = 1;
nodes = (
"432 220 LINE",
"432 228 LINE",
"127 228 LINE",
"121 220 LINE"
);
}
);
width = 578;
},
{
anchors = (
{
name = bottom;
position = "{247, 0}";
},
{
name = ogonek;
position = "{487, 0}";
},
{
name = top;
position = "{499, 680}";
}
);
associatedMasterId = "838EFC6A-184F-4DB1-9A1E-77D55F860A0C";
background = {
anchors = (
{
name = bottom;
position = "{283, 0}";
},
{
name = center;
position = "{280, 340}";
},
{
name = ogonek;
position = "{595, 0}";
},
{
name = top;
position = "{323, 680}";
},
{
name = topleft;
position = "{129, 680}";
}
);
hints = (
{
horizontal = 1;
place = "{0, 228}";
type = Stem;
},
{
horizontal = 1;
place = "{690, -20}";
target = down;
type = TopGhost;
},
{
horizontal = 1;
place = "{196, 32}";
type = Stem;
}
);
paths = (
{
closed = 1;
nodes = (
"183 0 LINE",
"183 16 LINE",
"172 16 LINE SMOOTH",
"128 16 OFFCURVE",
"111 53 OFFCURVE",
"139 143 CURVE SMOOTH",
"258 524 LINE",
"243 524 LINE",
"338 127 LINE SMOOTH",
"359 39 OFFCURVE",
"351 16 OFFCURVE",
"302 16 CURVE SMOOTH",
"291 16 LINE",
"291 0 LINE",
"632 0 LINE",
"632 16 LINE",
"588 16 OFFCURVE",
"577 35 OFFCURVE",
"566 77 CURVE SMOOTH",
"397 702 LINE",
"378 702 LINE",
"355 626 OFFCURVE",
"303 591 OFFCURVE",
"249 577 CURVE",
"117 177 LINE SMOOTH",
"67 25 OFFCURVE",
"43 16 OFFCURVE",
"7 16 CURVE SMOOTH",
"2 16 LINE",
"2 0 LINE"
);
},
{
closed = 1;
nodes = (
"332 196 LINE",
"326 228 LINE",
"154 228 LINE",
"145 196 LINE"
);
}
);
};
hints = (
{
horizontal = 1;
place = "{0, 16}";
type = Stem;
},
{
horizontal = 1;
place = "{186, 32}";
type = Stem;
},
{
horizontal = 1;
place = "{690, -20}";
target = down;
type = TopGhost;
},
{
place = "{4, 145}";
type = Stem;
},
{
place = "{399, 185}";
type = Stem;
}
);
layerId = "10BAED3E-AF5E-40F7-A07F-A1917EF258C8";
name = "Apr 12 21, 12:53";
paths = (
{
closed = 1;
nodes = (
"329 186 LINE",
"329 127 LINE SMOOTH",
"329 40 OFFCURVE",
"314 16 OFFCURVE",
"265 16 CURVE SMOOTH",
"254 16 LINE",
"250 0 LINE",
"562 0 LINE",
"566 16 LINE",
"522 16 OFFCURVE",
"514 36 OFFCURVE",
"514 77 CURVE SMOOTH",
"514 690 LINE",
"490 690 LINE",
"110 177 LINE SMOOTH",
"4 34 OFFCURVE",
"-14 16 OFFCURVE",
"-59 16 CURVE SMOOTH",
"-64 16 LINE",
"-68 0 LINE",
"117 0 LINE",
"121 16 LINE",
"110 16 LINE SMOOTH",
"66 16 OFFCURVE",
"65 57 OFFCURVE",
"127 143 CURVE SMOOTH",
"329 422 LINE",
"329 218 LINE",
"171 218 LINE",
"148 186 LINE"
);
}
);
width = 622;
},
{
anchors = (
{
name = bottom;
position = "{222, 0}";
},
{
name = ogonek;
position = "{460, 0}";
},
{
name = top;
position = "{404, 680}";
}
);
associatedMasterId = "B3CAC60A-28EB-414C-BF20-F972525BD7DF";
background = {
anchors = (
{
name = bottom;
position = "{266, 0}";
},
{
name = center;
position = "{263, 340}";
},
{
name = ogonek;
position = "{558, 0}";
},
{
name = top;
position = "{286, 680}";
},
{
name = topleft;
position = "{92, 680}";
}
);
hints = (
{
horizontal = 1;
place = "{0, 21}";
target = up;
type = BottomGhost;
},
{
horizontal = 1;
place = "{690, -20}";
target = down;
type = TopGhost;
}
);
paths = (
{
closed = 1;
nodes = (
"112 0 LINE",
"112 7 LINE",
"103 7 LINE SMOOTH",
"68 7 OFFCURVE",
"58 9 OFFCURVE",
"99 124 CURVE SMOOTH",
"289 651 LINE",
"286 651 LINE",
"476 116 LINE SMOOTH",
"506 32 OFFCURVE",
"508 7 OFFCURVE",
"474 7 CURVE SMOOTH",
"458 7 LINE",
"458 0 LINE",
"586 0 LINE",
"586 7 LINE",
"551 7 OFFCURVE",
"544 13 OFFCURVE",
"509 110 CURVE SMOOTH",
"300 691 LINE",
"296 691 LINE",
"296 685 OFFCURVE",
"294 682 OFFCURVE",
"290 680 CURVE",
"90 126 LINE SMOOTH",
"48 9 OFFCURVE",
"36 7 OFFCURVE",
"9 7 CURVE SMOOTH",
"4 7 LINE",
"4 0 LINE"
);
},
{
closed = 1;
nodes = (
"442 220 LINE",
"439 228 LINE",
"134 228 LINE",
"131 220 LINE"
);
}
);
};
hints = (
{
horizontal = 1;
place = "{0, 7}";
type = Stem;
},
{
horizontal = 1;
place = "{220, 8}";
type = Stem;
},
{
horizontal = 1;
place = "{690, -20}";
target = down;
type = TopGhost;
},
{
place = "{-68.5, 74}";
type = Stem;
},
{
place = "{438.35, 75.15}";
type = Stem;
}
);
layerId = "0CFA9AC5-44E2-409D-8A27-F1B756E0FDD2";
name = "Apr 12 21, 12:54";
paths = (
{
closed = 1;
nodes = (
"40 0 LINE",
"41 7 LINE",
"32 7 LINE SMOOTH",
"-3 7 OFFCURVE",
"-14 8 OFFCURVE",
"60 124 CURVE SMOOTH",
"121 220 LINE",
"426 220 LINE",
"435 116 LINE SMOOTH",
"442 32 OFFCURVE",
"441 7 OFFCURVE",
"407 7 CURVE SMOOTH",
"393 7 LINE",
"392 0 LINE",
"513 0 LINE",
"514 7 LINE",
"479 7 OFFCURVE",
"474 13 OFFCURVE",
"465 110 CURVE SMOOTH",
"412 690 LINE",
"405 690 LINE",
"50 126 LINE SMOOTH",
"-24 9 OFFCURVE",
"-36 7 OFFCURVE",
"-63 7 CURVE SMOOTH",
"-68 7 LINE",
"-69 0 LINE"
);
},
{
closed = 1;
nodes = (
"389 646 LINE",
"425 228 LINE",
"126 228 LINE"
);
}
);
width = 567;
}
);
leftKerningGroup = A;
note = A;
rightKerningGroup = A;
rightMetricsKey = "=|";
unicode = 0041;
},
{
glyphname = AE;
lastChange = "2021-08-02 09:46:10 +0000";
layers = (
{
anchors = (
{
name = bottom;
position = "{366, 0}";
},
{
name = top;
position = "{548, 680}";
}
);
background = {
anchors = (
{
name = top;
position = "{527, 680}";
}
);
components = (
{
name = A;
},
{
name = E;
transform = "{1, 0, 0, 1, 308, 0}";
}
);
hints = (
{
horizontal = 1;
place = "{0, 36}";
type = Stem;
},
{
horizontal = 1;
place = "{216, 32}";
type = Stem;
},
{
horizontal = 1;
place = "{340, 35}";
type = Stem;
},
{
horizontal = 1;
place = "{652, 28}";
type = Stem;
},
{
place = "{421, 196}";
type = Stem;
}
);
};
hints = (
{
horizontal = 1;
place = "{-146, 55}";
type = Stem;
},
{
horizontal = 1;
place = "{66, 59}";
type = Stem;
},
{
horizontal = 1;
place = "{193, 56}";
type = Stem;
},
{
horizontal = 1;
place = "{498, 63}";
type = Stem;
},
{
place = "{330, 105}";
type = Stem;
}
);
layerId = "838EFC6A-184F-4DB1-9A1E-77D55F860A0C";
paths = (
{
closed = 1;
nodes = (
"112 0 LINE",
"112 16 LINE",
"42 16 OFFCURVE",
"42 44 OFFCURVE",
"115 140 CURVE SMOOTH",
"173 216 LINE",
"388 216 LINE",
"353 86 LINE SMOOTH",
"339 34 OFFCURVE",
"318 16 OFFCURVE",
"263 16 CURVE",
"263 0 LINE",
"768 0 LINE",
"816 179 LINE",
"800 179 LINE",
"771 76 OFFCURVE",
"739 36 OFFCURVE",
"633 36 CURVE SMOOTH",
"536 36 LINE",
"617 340 LINE",
"688 340 LINE SMOOTH",
"749 340 OFFCURVE",
"751 303 OFFCURVE",
"741 266 CURVE",
"757 266 LINE",
"804 440 LINE",
"788 440 LINE",
"775 391 OFFCURVE",
"753 375 OFFCURVE",
"696 375 CURVE SMOOTH",
"626 375 LINE",
"699 645 LINE",
"782 645 LINE SMOOTH",
"894 645 OFFCURVE",
"892 599 OFFCURVE",
"873 521 CURVE",
"889 521 LINE",
"930 680 LINE",
"389 680 LINE",
"389 664 LINE",
"425 664 OFFCURVE",
"456 640 OFFCURVE",
"421 594 CURVE SMOOTH",
"99 177 LINE SMOOTH",
"-9 37 OFFCURVE",
"-32 16 OFFCURVE",
"-85 16 CURVE",
"-85 0 LINE"
);
},
{
closed = 1;
nodes = (
"504 652 LINE",
"505 652 LINE",
"397 248 LINE",
"197 248 LINE"
);
}
);
width = 859;
},
{
anchors = (
{
name = bottom;
position = "{369, 0}";
},
{
name = top;
position = "{551, 680}";
}
);
background = {
anchors = (
{
name = top;
position = "{447, 680}";
}
);
hints = (
{
horizontal = 1;
place = "{0, 21}";
target = up;
type = BottomGhost;
},
{
horizontal = 1;
place = "{680, -20}";
target = down;
type = TopGhost;
},
{
place = "{684, 29}";
type = Stem;
}
);
paths = (
{
closed = 1;
nodes = (
"112 0 LINE",
"112 7 LINE",
"103 7 LINE SMOOTH",
"68 7 OFFCURVE",
"62 16 OFFCURVE",
"121 124 CURVE SMOOTH",
"421 670 LINE",
"424 670 LINE",
"424 66 LINE SMOOTH",
"424 14 OFFCURVE",
"419 7 OFFCURVE",
"373 7 CURVE",
"373 0 LINE",
"755 0 LINE",
"755 117 LINE",
"745 117 LINE",
"745 9 OFFCURVE",
"719 10 OFFCURVE",
"645 10 CURVE SMOOTH",
"453 10 LINE",
"453 356 LINE",
"605 356 LINE SMOOTH",
"663 356 OFFCURVE",
"675 350 OFFCURVE",
"675 298 CURVE",
"684 298 LINE",
"684 419 LINE",
"675 419 LINE",
"675 372 OFFCURVE",
"664 364 OFFCURVE",
"604 364 CURVE SMOOTH",
"453 364 LINE",
"453 671 LINE",
"611 671 LINE SMOOTH",
"700 671 OFFCURVE",
"710 658 OFFCURVE",
"710 585 CURVE",
"720 585 LINE",
"720 680 LINE",
"332 680 LINE",
"332 673 LINE",
"378 673 OFFCURVE",
"410 665 OFFCURVE",
"374 600 CURVE SMOOTH",
"112 126 LINE SMOOTH",
"52 17 OFFCURVE",
"36 7 OFFCURVE",
"9 7 CURVE SMOOTH",
"4 7 LINE",
"4 0 LINE"
);
},
{
closed = 1;
nodes = (
"434 240 LINE",
"434 248 LINE",
"184 248 LINE",
"180 240 LINE"
);
}
);
};
hints = (
{
horizontal = 1;
place = "{-79, 21}";
target = up;
type = BottomGhost;
},
{
horizontal = 1;
place = "{611, -20}";
target = down;
type = TopGhost;
},
{
place = "{543, 74}";
type = Stem;
}
);
layerId = "B3CAC60A-28EB-414C-BF20-F972525BD7DF";
paths = (
{
closed = 1;
nodes = (
"35 0 LINE",
"35 7 LINE",
"-14 7 OFFCURVE",
"-13 16 OFFCURVE",
"75 124 CURVE SMOOTH",
"153 220 LINE",
"404 220 LINE",
"363 66 LINE SMOOTH",
"349 14 OFFCURVE",
"340 7 OFFCURVE",
"294 7 CURVE",
"294 0 LINE",
"676 0 LINE",
"707 117 LINE",
"697 117 LINE",
"668 9 OFFCURVE",
"643 10 OFFCURVE",
"569 10 CURVE SMOOTH",
"377 10 LINE",
"469 356 LINE",
"621 356 LINE SMOOTH",
"679 356 OFFCURVE",
"690 350 OFFCURVE",
"676 298 CURVE",
"685 298 LINE",
"717 419 LINE",
"708 419 LINE",
"696 372 OFFCURVE",
"682 364 OFFCURVE",
"622 364 CURVE SMOOTH",
"471 364 LINE",
"554 671 LINE",
"712 671 LINE SMOOTH",
"801 671 OFFCURVE",
"807 658 OFFCURVE",
"788 585 CURVE",
"798 585 LINE",
"823 680 LINE",
"433 680 LINE",
"433 673 LINE",
"479 673 OFFCURVE",
"509 665 OFFCURVE",
"456 600 CURVE SMOOTH",
"69 128 LINE SMOOTH",
"-17 24 OFFCURVE",
"-36 7 OFFCURVE",
"-73 7 CURVE",
"-73 0 LINE"
);
},
{
closed = 1;
nodes = (
"521 670 LINE",
"524 670 LINE",
"406 228 LINE",
"160 228 LINE"
);
}
);
width = 861;
}
);
leftKerningGroup = AE;
note = AE;
rightKerningGroup = E;
rightMetricsKey = E;
unicode = 00C6;
},
{
glyphname = B;
lastChange = "2021-08-02 10:44:12 +0000";
layers = (
{
anchors = (
{
name = bottom;
position = "{248, 0}";
},
{
name = top;
position = "{430, 680}";
}
);
background = {
anchors = (
{
name = bottom;
position = "{303, 0}";
},
{
name = top;
position = "{304, 680}";
}
);
hints = (
{
horizontal = 1;
place = "{-15, 21}";
type = Stem;
},
{
horizontal = 1;
place = "{325, 20}";
type = Stem;
},
{
horizontal = 1;
place = "{637, 13}";
type = Stem;
},
{
place = "{71, 180}";
type = Stem;
},
{
place = "{373, 173}";
type = Stem;
},
{
place = "{386, 181}";
type = Stem;
},
{
place = "{386, 160}";
type = Stem;
}
);
paths = (
{
closed = 1;
nodes = (
"259 0 LINE SMOOTH",
"441 0 OFFCURVE",
"548 50 OFFCURVE",
"582 177 CURVE SMOOTH",
"611 285 OFFCURVE",
"558 344 OFFCURVE",
"431 363 CURVE",
"432 367 LINE",
"533 380 OFFCURVE",
"629 430 OFFCURVE",
"654 525 CURVE SMOOTH",
"679 616 OFFCURVE",
"622 680 OFFCURVE",
"460 680 CURVE SMOOTH",
"135 680 LINE",
"131 664 LINE",
"187 664 OFFCURVE",
"197 646 OFFCURVE",
"183 594 CURVE SMOOTH",
"47 86 LINE SMOOTH",
"33 34 OFFCURVE",
"13 16 OFFCURVE",
"-43 16 CURVE",
"-47 0 LINE"
);
},
{
closed = 1;
nodes = (
"241 33 OFFCURVE",
"230 38 OFFCURVE",
"242 84 CURVE SMOOTH",
"312 344 LINE",
"334 344 LINE SMOOTH",
"382 344 OFFCURVE",
"424 319 OFFCURVE",
"389 189 CURVE SMOOTH",
"361 82 OFFCURVE",
"314 33 OFFCURVE",
"263 33 CURVE SMOOTH",
"261 33 LINE SMOOTH"
);
},
{
closed = 1;
nodes = (
"393 647 LINE",
"415 647 LINE SMOOTH",
"470 647 OFFCURVE",
"493 624 OFFCURVE",
"464 517 CURVE SMOOTH",
"437 415 OFFCURVE",
"398 375 OFFCURVE",
"342 375 CURVE SMOOTH",
"320 375 LINE"
);
}
);
};
hints = (
{
horizontal = 1;
place = "{0, 36}";
type = Stem;
},
{
horizontal = 1;
place = "{340, 35}";
type = Stem;
},
{
horizontal = 1;
place = "{652, 28}";
type = Stem;
}
);
layerId = "838EFC6A-184F-4DB1-9A1E-77D55F860A0C";
paths = (
{
closed = 1;
nodes = (
"261 0 LINE SMOOTH",
"443 0 OFFCURVE",
"590 61 OFFCURVE",
"590 202 CURVE SMOOTH",
"590 293 OFFCURVE",
"526 347 OFFCURVE",
"430 363 CURVE",
"430 365 LINE",
"551 383 OFFCURVE",
"651 430 OFFCURVE",
"651 538 CURVE SMOOTH",
"651 621 OFFCURVE",
"591 680 OFFCURVE",
"438 680 CURVE SMOOTH",
"130 680 LINE",
"130 664 LINE",
"172 664 OFFCURVE",
"195 642 OFFCURVE",
"182 594 CURVE SMOOTH",
"46 86 LINE SMOOTH",
"32 34 OFFCURVE",
"-8 16 OFFCURVE",
"-44 16 CURVE",
"-44 0 LINE"
);
},
{
closed = 1;
nodes = (
"310 340 LINE",
"317 340 LINE SMOOTH",
"368 340 OFFCURVE",
"401 314 OFFCURVE",
"401 239 CURVE SMOOTH",
"401 144 OFFCURVE",
"348 36 OFFCURVE",
"253 36 CURVE SMOOTH",
"229 36 LINE"
);
},
{
closed = 1;
nodes = (
"394 652 LINE",
"416 652 LINE SMOOTH",
"454 652 OFFCURVE",
"476 614 OFFCURVE",
"476 561 CURVE SMOOTH",
"476 482 OFFCURVE",
"427 375 OFFCURVE",
"346 375 CURVE SMOOTH",
"319 375 LINE"
);
}
);
width = 622;
},
{
anchors = (
{
name = bottom;
position = "{210, 0}";
},
{
name = top;
position = "{364, 680}";
}
);
background = {
anchors = (
{
name = bottom;
position = "{252, 0}";
},
{
name = top;
position = "{253, 680}";
}
);
hints = (
{
horizontal = 1;
place = "{33, 21}";
target = up;
type = BottomGhost;
},
{
horizontal = 1;
place = "{713, -20}";
target = down;
type = TopGhost;
},
{
place = "{129, 62}";
type = Stem;
},
{
place = "{472, 66}";
type = Stem;
},
{
place = "{445, 67}";
type = Stem;
}
);
paths = (
{
closed = 1;
nodes = (
"219 0 LINE SMOOTH",
"380 0 OFFCURVE",
"478 66 OFFCURVE",
"478 186 CURVE SMOOTH",
"478 293 OFFCURVE",
"394 345 OFFCURVE",
"281 359 CURVE",
"281 361 LINE",
"368 377 OFFCURVE",
"452 425 OFFCURVE",
"452 528 CURVE SMOOTH",
"452 616 OFFCURVE",
"391 680 OFFCURVE",
"232 680 CURVE SMOOTH",
"51 680 LINE",
"51 673 LINE",
"97 673 OFFCURVE",
"102 666 OFFCURVE",
"102 614 CURVE SMOOTH",
"102 66 LINE SMOOTH",
"102 14 OFFCURVE",
"97 7 OFFCURVE",
"51 7 CURVE",
"51 0 LINE"
);
},
{
closed = 1;
nodes = (
"144 10 OFFCURVE",
"131 13 OFFCURVE",
"131 65 CURVE SMOOTH",
"131 355 LINE",
"209 355 LINE SMOOTH",
"352 355 OFFCURVE",
"446 306 OFFCURVE",
"446 191 CURVE SMOOTH",
"446 85 OFFCURVE",
"376 10 OFFCURVE",
"214 10 CURVE SMOOTH",
"179 10 LINE SMOOTH"
);
},
{
closed = 1;
nodes = (
"131 671 LINE",
"231 671 LINE SMOOTH",
"362 671 OFFCURVE",
"420 615 OFFCURVE",
"420 525 CURVE SMOOTH",
"420 434 OFFCURVE",
"361 364 OFFCURVE",
"210 364 CURVE SMOOTH",
"131 364 LINE"
);
}
);
};
hints = (
{
horizontal = 1;
place = "{12, 22}";
type = Stem;
},
{
horizontal = 1;
place = "{368, 20}";
type = Stem;
},
{
horizontal = 1;
place = "{683, 21}";
type = Stem;
},
{
place = "{218, 50}";
type = Stem;
},
{
place = "{445, 45}";
type = Stem;
},
{
place = "{509, 46}";
type = Stem;
},
{
horizontal = 1;
place = "{12, 19}";
type = Stem;
}
);
layerId = "B3CAC60A-28EB-414C-BF20-F972525BD7DF";
paths = (
{
closed = 1;
nodes = (
"157 0 LINE SMOOTH",
"329 0 OFFCURVE",
"478 53 OFFCURVE",
"478 198 CURVE SMOOTH",
"478 294 OFFCURVE",
"412 347 OFFCURVE",
"314 359 CURVE",
"314 361 LINE",
"441 381 OFFCURVE",
"541 434 OFFCURVE",
"541 543 CURVE SMOOTH",
"541 626 OFFCURVE",
"484 680 OFFCURVE",
"357 680 CURVE SMOOTH",
"176 680 LINE",
"176 673 LINE",
"221 673 OFFCURVE",
"225 666 OFFCURVE",
"211 614 CURVE SMOOTH",
"65 66 LINE SMOOTH",
"51 14 OFFCURVE",
"44 7 OFFCURVE",
"-2 7 CURVE",
"-2 0 LINE"
);
},
{
closed = 1;
nodes = (
"171 356 LINE",
"252 356 LINE SMOOTH",
"373 356 OFFCURVE",
"445 305 OFFCURVE",
"445 205 CURVE SMOOTH",
"445 75 OFFCURVE",
"322 10 OFFCURVE",
"155 10 CURVE SMOOTH",
"79 10 LINE"
);
},
{
closed = 1;
nodes = (
"256 671 LINE",
"355 671 LINE SMOOTH",
"466 671 OFFCURVE",
"509 625 OFFCURVE",
"509 553 CURVE SMOOTH",
"509 436 OFFCURVE",
"395 364 OFFCURVE",
"252 364 CURVE SMOOTH",
"173 364 LINE"
);
}
);
width = 543;
}
);
leftKerningGroup = H;
leftMetricsKey = H;
note = B;
rightKerningGroup = B;
unicode = 0042;
},
{
glyphname = C;
lastChange = "2021-08-02 11:09:20 +0000";
layers = (
{
anchors = (
{
name = bottom;
position = "{168, 0}";
},
{
name = top;
position = "{533, 680}";
}
);
background = {
anchors = (
{
name = bottom;
position = "{346, 0}";
},
{
name = cedilla;
position = "{359, 0}";
},
{
name = center;
position = "{346, 340}";
},
{
name = top;
position = "{346, 680}";
}
);
components = (
{
name = O;
transform = "{1, 0, 0, 1, 5, 0}";
}
);
hints = (
{
horizontal = 1;
place = "{-26, 84}";
type = Stem;
},
{
horizontal = 1;
place = "{665, -20}";
target = down;
type = TopGhost;
},
{
place = "{15, 192}";
type = Stem;
},
{
horizontal = 1;
place = "{649, 11}";
type = Stem;
}
);
};
hints = (
{
horizontal = 1;
place = "{-11, 99}";
type = Stem;
},
{
horizontal = 1;
place = "{680, -20}";
target = down;
type = TopGhost;
},
{
place = "{100, 213}";
type = Stem;
},
{
horizontal = 1;
place = "{664, 26}";
type = Stem;
}
);
layerId = "838EFC6A-184F-4DB1-9A1E-77D55F860A0C";
paths = (
{
closed = 1;
nodes = (
"378 -12 OFFCURVE",
"416 30 OFFCURVE",
"439 30 CURVE SMOOTH",
"450 30 OFFCURVE",
"452 20 OFFCURVE",
"458 -1 CURVE",
"474 -1 LINE",
"537 233 LINE",
"521 233 LINE",
"482 130 OFFCURVE",
"418 19 OFFCURVE",
"322 19 CURVE SMOOTH",
"243 19 OFFCURVE",
"217 95 OFFCURVE",
"217 186 CURVE SMOOTH",
"217 386 OFFCURVE",
"335 664 OFFCURVE",
"477 664 CURVE SMOOTH",
"572 664 OFFCURVE",
"595 549 OFFCURVE",
"583 466 CURVE",
"599 466 LINE",
"657 680 LINE",
"641 680 LINE",
"626 659 OFFCURVE",
"616 649 OFFCURVE",
"605 649 CURVE SMOOTH",
"582 649 OFFCURVE",
"562 690 OFFCURVE",
"461 690 CURVE SMOOTH",
"225 690 OFFCURVE",
"19 495 OFFCURVE",
"19 254 CURVE SMOOTH",
"19 70 OFFCURVE",
"146 -12 OFFCURVE",
"277 -12 CURVE SMOOTH"
);
}
);
width = 714;
},
{
anchors = (
{
name = bottom;
position = "{252, 0}";
},
{
name = top;
position = "{459, 680}";
}
);
background = {
anchors = (
{
name = bottom;
position = "{361, 0}";
},
{
name = cedilla;
position = "{374, -8}";
},
{
name = center;
position = "{361, 340}";
},
{
name = top;
position = "{361, 680}";
}
);
hints = (
{
horizontal = 1;
place = "{22, 53}";
type = Stem;
},
{
horizontal = 1;
place = "{713, -20}";
target = down;
type = TopGhost;
},
{
place = "{70, 63}";
type = Stem;
},
{
horizontal = 1;
place = "{715, -20}";
target = down;
type = TopGhost;
},
{
horizontal = 1;
place = "{723, -20}";
target = down;
type = TopGhost;
}
);
paths = (
{
closed = 1;
nodes = (
"455 -12 OFFCURVE",
"523 48 OFFCURVE",
"544 48 CURVE SMOOTH",
"553 48 OFFCURVE",
"560 38 OFFCURVE",
"571 5 CURVE",
"578 5 LINE",
"578 180 LINE",
"570 180 LINE",
"553 57 OFFCURVE",
"450 -4 OFFCURVE",
"360 -4 CURVE SMOOTH",
"222 -4 OFFCURVE",
"91 111 OFFCURVE",
"91 334 CURVE SMOOTH",
"91 565 OFFCURVE",
"229 688 OFFCURVE",
"361 688 CURVE SMOOTH",
"451 688 OFFCURVE",
"549 627 OFFCURVE",
"566 524 CURVE",
"574 524 LINE",
"574 666 LINE",
"567 666 LINE",
"556 646 OFFCURVE",
"549 636 OFFCURVE",
"540 636 CURVE SMOOTH",
"519 636 OFFCURVE",
"456 696 OFFCURVE",
"359 696 CURVE SMOOTH",
"218 696 OFFCURVE",
"59 575 OFFCURVE",
"59 327 CURVE SMOOTH",
"59 100 OFFCURVE",
"192 -12 OFFCURVE",
"356 -12 CURVE SMOOTH"
);
}
);
};
hints = (
{
horizontal = 1;
place = "{1, 32}";
type = Stem;
},
{
horizontal = 1;
place = "{694, 20}";
type = Stem;
},
{
place = "{63, 44}";
type = Stem;
},
{
place = "{636, 20}";
type = Stem;
}
);
layerId = "B3CAC60A-28EB-414C-BF20-F972525BD7DF";
paths = (
{
closed = 1;
nodes = (
"398 -12 OFFCURVE",
"481 48 OFFCURVE",
"502 48 CURVE SMOOTH",
"511 48 OFFCURVE",
"516 38 OFFCURVE",
"518 5 CURVE",
"525 5 LINE",
"571 180 LINE",
"563 180 LINE",
"514 57 OFFCURVE",
"391 -3 OFFCURVE",
"302 -3 CURVE SMOOTH",
"190 -3 OFFCURVE",
"107 94 OFFCURVE",
"107 240 CURVE SMOOTH",
"107 454 OFFCURVE",
"279 684 OFFCURVE",
"477 684 CURVE SMOOTH",
"584 684 OFFCURVE",
"666 613 OFFCURVE",
"650 520 CURVE",
"658 520 LINE",
"695 662 LINE",
"688 662 LINE",
"672 642 OFFCURVE",
"662 632 OFFCURVE",
"653 632 CURVE SMOOTH",
"632 632 OFFCURVE",
"586 692 OFFCURVE",
"477 692 CURVE SMOOTH",
"258 692 OFFCURVE",
"74 458 OFFCURVE",
"74 233 CURVE SMOOTH",
"74 84 OFFCURVE",
"167 -12 OFFCURVE",
"297 -12 CURVE SMOOTH"
);
}
);
width = 627;
},
{
anchors = (
{
name = bottom;
position = "{235, 0}";
},
{
name = top;
position = "{417, 680}";
}
);
associatedMasterId = "838EFC6A-184F-4DB1-9A1E-77D55F860A0C";
background = {
anchors = (
{
name = bottom;
position = "{346, 0}";
},
{
name = cedilla;
position = "{359, 0}";
},
{
name = center;
position = "{346, 340}";
},
{
name = top;
position = "{346, 680}";
}
);
hints = (
{
horizontal = 1;
place = "{-26, 84}";
type = Stem;
},
{
horizontal = 1;
place = "{665, -20}";
target = down;
type = TopGhost;
},
{
place = "{15, 192}";
type = Stem;
},
{
horizontal = 1;
place = "{649, 11}";
type = Stem;
}
);
paths = (
{
closed = 1;
nodes = (
"448 -12 OFFCURVE",
"475 30 OFFCURVE",
"498 30 CURVE SMOOTH",
"509 30 OFFCURVE",
"513 20 OFFCURVE",
"525 -1 CURVE",
"541 -1 LINE",
"541 233 LINE",
"525 233 LINE",
"514 130 OFFCURVE",
"481 19 OFFCURVE",
"365 19 CURVE SMOOTH",
"261 19 OFFCURVE",
"234 123 OFFCURVE",
"234 329 CURVE SMOOTH",
"234 537 OFFCURVE",
"272 664 OFFCURVE",
"366 664 CURVE SMOOTH",
"462 664 OFFCURVE",
"514 549 OFFCURVE",
"525 466 CURVE",
"541 466 LINE",
"541 680 LINE",
"525 680 LINE",
"513 659 OFFCURVE",
"509 649 OFFCURVE",
"498 649 CURVE SMOOTH",
"475 649 OFFCURVE",
"449 690 OFFCURVE",
"348 690 CURVE SMOOTH",
"168 690 OFFCURVE",
"19 568 OFFCURVE",
"19 316 CURVE SMOOTH",
"19 49 OFFCURVE",
"188 -12 OFFCURVE",
"347 -12 CURVE SMOOTH"
);
}
);
};
hints = (
{
horizontal = 1;
place = "{-11, 99}";
type = Stem;
},
{
horizontal = 1;
place = "{680, -20}";
target = down;
type = TopGhost;
},
{
place = "{100, 213}";
type = Stem;
},
{
horizontal = 1;
place = "{664, 26}";
type = Stem;
}
);
layerId = "C974AC67-42E7-4CDC-92ED-FDCBB7FDE758";
name = "Aug 2 21, 13:05";
paths = (
{
closed = 1;
nodes = (
"422 -11 OFFCURVE",
"536 106 OFFCURVE",
"595 260 CURVE",
"579 260 LINE",
"553 210 OFFCURVE",
"490 120 OFFCURVE",
"395 120 CURVE SMOOTH",
"270 120 OFFCURVE",
"230 237 OFFCURVE",
"277 405 CURVE SMOOTH",
"325 577 OFFCURVE",
"401 664 OFFCURVE",
"485 664 CURVE SMOOTH",
"578 664 OFFCURVE",
"613 559 OFFCURVE",
"601 466 CURVE",
"617 466 LINE",
"674 680 LINE",
"658 680 LINE",
"641 656 OFFCURVE",
"633 649 OFFCURVE",
"622 649 CURVE SMOOTH",
"597 649 OFFCURVE",
"574 690 OFFCURVE",
"476 690 CURVE SMOOTH",
"343 690 OFFCURVE",
"126 604 OFFCURVE",
"55 350 CURVE SMOOTH",
"-13 105 OFFCURVE",
"133 -11 OFFCURVE",
"272 -11 CURVE SMOOTH"
);
}
);
width = 598;
},
{
anchors = (
{
name = bottom;
position = "{235, 0}";
},
{
name = top;
position = "{417, 680}";
}
);
associatedMasterId = "838EFC6A-184F-4DB1-9A1E-77D55F860A0C";
background = {
anchors = (
{
name = bottom;
position = "{346, 0}";
},
{
name = cedilla;
position = "{359, 0}";
},
{
name = center;
position = "{346, 340}";
},
{
name = top;
position = "{346, 680}";
}
);
hints = (
{
horizontal = 1;
place = "{-26, 84}";
type = Stem;
},
{
horizontal = 1;
place = "{665, -20}";
target = down;
type = TopGhost;
},
{
place = "{15, 192}";
type = Stem;
},
{
horizontal = 1;
place = "{649, 11}";
type = Stem;
}
);
paths = (
{
closed = 1;
nodes = (
"448 -12 OFFCURVE",
"475 30 OFFCURVE",
"498 30 CURVE SMOOTH",
"509 30 OFFCURVE",
"513 20 OFFCURVE",
"525 -1 CURVE",
"541 -1 LINE",
"541 233 LINE",
"525 233 LINE",
"514 130 OFFCURVE",
"481 19 OFFCURVE",
"365 19 CURVE SMOOTH",
"261 19 OFFCURVE",
"234 123 OFFCURVE",
"234 329 CURVE SMOOTH",
"234 537 OFFCURVE",
"272 664 OFFCURVE",
"366 664 CURVE SMOOTH",
"462 664 OFFCURVE",
"514 549 OFFCURVE",
"525 466 CURVE",
"541 466 LINE",
"541 680 LINE",
"525 680 LINE",
"513 659 OFFCURVE",
"509 649 OFFCURVE",
"498 649 CURVE SMOOTH",
"475 649 OFFCURVE",
"449 690 OFFCURVE",
"348 690 CURVE SMOOTH",
"168 690 OFFCURVE",
"19 568 OFFCURVE",
"19 316 CURVE SMOOTH",
"19 49 OFFCURVE",
"188 -12 OFFCURVE",
"347 -12 CURVE SMOOTH"
);
}
);
};
hints = (
{
horizontal = 1;
place = "{-11, 99}";
type = Stem;
},
{
horizontal = 1;
place = "{680, -20}";
target = down;
type = TopGhost;
},
{
place = "{100, 213}";
type = Stem;
},
{
horizontal = 1;
place = "{664, 26}";
type = Stem;
}
);
layerId = "0CB41D4E-276B-4EF1-8685-D020BB5BB915";
name = "Aug 2 21, 13:05";
paths = (
{
closed = 1;
nodes = (
"422 -11 OFFCURVE",
"536 106 OFFCURVE",
"595 260 CURVE",
"579 260 LINE",
"553 210 OFFCURVE",
"490 120 OFFCURVE",
"395 120 CURVE SMOOTH",
"270 120 OFFCURVE",
"230 237 OFFCURVE",
"277 405 CURVE SMOOTH",
"325 577 OFFCURVE",
"401 664 OFFCURVE",
"485 664 CURVE SMOOTH",
"578 664 OFFCURVE",
"613 559 OFFCURVE",
"601 466 CURVE",
"617 466 LINE",
"674 680 LINE",
"658 680 LINE",
"641 656 OFFCURVE",
"633 649 OFFCURVE",
"622 649 CURVE SMOOTH",
"597 649 OFFCURVE",
"574 690 OFFCURVE",
"476 690 CURVE SMOOTH",
"343 690 OFFCURVE",
"126 604 OFFCURVE",
"55 350 CURVE SMOOTH",
"-13 105 OFFCURVE",
"133 -11 OFFCURVE",
"272 -11 CURVE SMOOTH"
);
}
);
width = 598;
}
);
leftKerningGroup = C;
note = C;
rightKerningGroup = C;
unicode = 0043;
},
{
glyphname = D;
lastChange = "2021-06-24 14:27:09 +0000";
layers = (
{
anchors = (
{
name = bottom;
position = "{267, 0}";
},
{
name = center;
position = "{358, 340}";
},
{
name = top;
position = "{421, 680}";
}
);
background = {
anchors = (
{
name = bottom;
position = "{303, 0}";
},
{
name = center;
position = "{330, 340}";
},
{
name = ogonek;
position = "{278, 10}";
},
{
name = top;
position = "{303, 680}";
},
{
name = topleft;
position = "{146, 680}";
}
);
components = (
{
name = O;
transform = "{1, 0, 0, 1, 8, 5}";
}
);
hints = (
{
horizontal = 1;
place = "{-15, 21}";
type = Stem;
},
{
horizontal = 1;
place = "{636, 14}";
type = Stem;
},
{
place = "{71, 181}";
type = Stem;
},
{
place = "{392, 187}";
type = Stem;
},
{
horizontal = 1;
place = "{0, 21}";
target = up;
type = BottomGhost;
},
{
horizontal = 1;
place = "{680, -20}";
target = down;
type = TopGhost;
},
{
place = "{86, 195}";
type = Stem;
}
);
paths = (
{
closed = 1;
nodes = (
"317 0 LINE SMOOTH",
"514 0 OFFCURVE",
"662 93 OFFCURVE",
"662 349 CURVE SMOOTH",
"662 604 OFFCURVE",
"471 680 OFFCURVE",
"325 680 CURVE SMOOTH",
"20 680 LINE",
"20 664 LINE",
"76 664 OFFCURVE",
"91 646 OFFCURVE",
"91 594 CURVE SMOOTH",
"91 86 LINE SMOOTH",
"91 34 OFFCURVE",
"76 16 OFFCURVE",
"20 16 CURVE",
"20 0 LINE"
);
},
{
closed = 1;
nodes = (
"300 33 OFFCURVE",
"287 44 OFFCURVE",
"287 79 CURVE SMOOTH",
"287 647 LINE",
"313 647 LINE SMOOTH",
"411 647 OFFCURVE",
"446 572 OFFCURVE",
"446 343 CURVE SMOOTH",
"446 80 OFFCURVE",
"387 33 OFFCURVE",
"326 33 CURVE SMOOTH",
"324 33 LINE SMOOTH"
);
},
{
closed = 0;
nodes = (
"582 2 LINE",
"586 2 OFFCURVE",
"586 1 OFFCURVE",
"586 3 CURVE"
);
},
{
closed = 0;
nodes = (
"543.753 312.721 LINE",
"547.222 313.736 OFFCURVE",
"550.463 313.992 OFFCURVE",
"553.687 313.992 CURVE SMOOTH",
"556.962 313.992 OFFCURVE",
"560.219 313.728 OFFCURVE",
"563.681 313.728 CURVE SMOOTH",
"564.635 313.728 OFFCURVE",
"565.605 313.748 OFFCURVE",
"566.594 313.799 CURVE SMOOTH"
);
}
);
};
hints = (
{
horizontal = 1;
place = "{0, 36}";
type = Stem;
},
{
horizontal = 1;
place = "{651, 29}";
type = Stem;
},
{
place = "{86, 196}";
type = Stem;
},
{
place = "{407, 202}";
type = Stem;
}
);
layerId = "838EFC6A-184F-4DB1-9A1E-77D55F860A0C";
paths = (
{
closed = 1;
nodes = (
"259 0 LINE SMOOTH",
"512 0 OFFCURVE",
"698 200 OFFCURVE",
"698 426 CURVE SMOOTH",
"698 629 OFFCURVE",
"548 680 OFFCURVE",
"415 680 CURVE SMOOTH",
"130 680 LINE",
"126 664 LINE",
"181 664 OFFCURVE",
"192 647 OFFCURVE",
"178 594 CURVE SMOOTH",
"42 86 LINE SMOOTH",
"28 34 OFFCURVE",
"8 16 OFFCURVE",
"-48 16 CURVE",
"-52 0 LINE"
);
},
{
closed = 1;
nodes = (
"231 33 OFFCURVE",
"229 51 OFFCURVE",
"236 79 CURVE SMOOTH",
"393 664 LINE",
"343 647 LINE",
"395 647 LINE SMOOTH",
"473 647 OFFCURVE",
"502 562 OFFCURVE",
"502 462 CURVE SMOOTH",
"502 276 OFFCURVE",
"400 33 OFFCURVE",
"262 33 CURVE SMOOTH",
"260 33 LINE SMOOTH"
);
}
);
width = 659;
},
{
anchors = (
{
name = bottom;
position = "{333, 0}";
},
{
name = center;
position = "{424, 340}";
},
{
name = top;
position = "{480, 680}";
}
);
background = {
anchors = (
{
name = bottom;
position = "{349, 0}";
},
{
name = center;
position = "{376, 340}";
},
{
name = top;
position = "{349, 680}";
}
);
components = (
{
name = I;
transform = "{1, 0, 0, 1, 75, 0}";
}
);
hints = (
{
horizontal = 1;
place = "{33, 21}";
target = up;
type = BottomGhost;
},
{
horizontal = 1;
place = "{713, -20}";
target = down;
type = TopGhost;
},
{
place = "{129, 62}";
type = Stem;
},
{
place = "{572, 68}";
type = Stem;
}
);
paths = (
{
closed = 1;
nodes = (
"321 0 LINE SMOOTH",
"495 0 OFFCURVE",
"656 99 OFFCURVE",
"656 351 CURVE SMOOTH",
"656 603 OFFCURVE",
"495 680 OFFCURVE",
"321 680 CURVE SMOOTH",
"126 680 LINE",
"126 673 LINE",
"172 673 OFFCURVE",
"177 666 OFFCURVE",
"177 614 CURVE SMOOTH",
"177 66 LINE SMOOTH",
"177 14 OFFCURVE",
"172 7 OFFCURVE",
"126 7 CURVE",
"126 0 LINE"
);
},
{
closed = 1;
nodes = (
"222 9 OFFCURVE",
"206 14 OFFCURVE",
"206 66 CURVE SMOOTH",
"206 671 LINE",
"320 671 LINE SMOOTH",
"487 671 OFFCURVE",
"624 579 OFFCURVE",
"624 350 CURVE SMOOTH",
"624 121 OFFCURVE",
"486 9 OFFCURVE",
"320 9 CURVE SMOOTH",
"246 9 LINE SMOOTH"
);
},
{
closed = 1;
nodes = (
"274 0 LINE SMOOTH",
"532 0 OFFCURVE",
"710 205 OFFCURVE",
"710 432 CURVE SMOOTH",
"710 610 OFFCURVE",
"602 680 OFFCURVE",
"445 680 CURVE SMOOTH",
"251 680 LINE",
"251 673 LINE",
"296 673 OFFCURVE",
"300 666 OFFCURVE",
"286 614 CURVE SMOOTH",
"140 66 LINE SMOOTH",
"126 14 OFFCURVE",
"119 7 OFFCURVE",
"73 7 CURVE",
"73 0 LINE"
);
},
{
closed = 1;
nodes = (
"331 671 LINE",
"442 671 LINE SMOOTH",
"599 671 OFFCURVE",
"677 585 OFFCURVE",
"677 437 CURVE SMOOTH",
"677 221 OFFCURVE",
"515 7 OFFCURVE",
"275 7 CURVE SMOOTH",
"153 7 LINE"
);
}
);
};
hints = (
{
horizontal = 1;
place = "{12, 19}";
type = Stem;
},
{
horizontal = 1;
place = "{683, 21}";
type = Stem;
},
{
place = "{218, 50}";
type = Stem;
},
{
place = "{604, 43}";
type = Stem;
}
);
layerId = "B3CAC60A-28EB-414C-BF20-F972525BD7DF";
paths = (
{
closed = 1;
nodes = (
"194 0 LINE SMOOTH",
"447 0 OFFCURVE",
"636 184 OFFCURVE",
"636 421 CURVE SMOOTH",
"636 596 OFFCURVE",
"516 680 OFFCURVE",
"349 680 CURVE SMOOTH",
"177 680 LINE",
"175 673 LINE",
"219 673 OFFCURVE",
"224 667 OFFCURVE",
"210 614 CURVE SMOOTH",
"63 66 LINE SMOOTH",
"49 14 OFFCURVE",
"42 7 OFFCURVE",
"-4 7 CURVE",
"-5 0 LINE"
);
},
{
closed = 1;
nodes = (
"86 9 OFFCURVE",
"81 25 OFFCURVE",
"92 66 CURVE SMOOTH",
"256 676 LINE",
"209 671 LINE",
"348 671 LINE SMOOTH",
"503 671 OFFCURVE",
"603 581 OFFCURVE",
"603 422 CURVE SMOOTH",
"603 205 OFFCURVE",
"435 9 OFFCURVE",
"195 9 CURVE SMOOTH",
"117 9 LINE SMOOTH"
);
}
);
width = 625;
}
);
leftKerningGroup = H;
leftMetricsKey = H;
note = D;
rightKerningGroup = O;
rightMetricsKey = O;
unicode = 0044;
},
{
glyphname = Eth;
lastChange = "2021-08-02 10:44:11 +0000";
layers = (
{
background = {
components = (
{
name = D;
}
);
hints = (
{
horizontal = 1;
place = "{0, 36}";
type = Stem;
},
{
horizontal = 1;
place = "{340, 35}";
type = Stem;
},
{
horizontal = 1;
place = "{651, 29}";
type = Stem;
},
{
place = "{86, 196}";
type = Stem;
},
{
place = "{407, 202}";
type = Stem;
}
);
paths = (
{
closed = 1;
nodes = (
"359 340 LINE",
"359 375 LINE",
"15 375 LINE",
"15 340 LINE"
);
}
);
};
components = (
{
name = D;
}
);
hints = (
{
horizontal = 1;
place = "{0, 36}";
type = Stem;
},
{
horizontal = 1;
place = "{651, 29}";
type = Stem;
},
{
place = "{86, 196}";
type = Stem;
},
{
place = "{407, 202}";
type = Stem;
}
);
layerId = "838EFC6A-184F-4DB1-9A1E-77D55F860A0C";
paths = (
{
closed = 1;
nodes = (
"394 340 LINE",
"404 375 LINE",
"309 375 LINE",
"300 340 LINE"
);
},
{
closed = 1;
nodes = (
"60 375 LINE",
"50 340 LINE",
"122 340 LINE",
"131 375 LINE"
);
}
);
width = 659;
},
{
background = {
components = (
{
name = D;
transform = "{1, 0, 0, 1, 29, 0}";
}
);
hints = (
{
horizontal = 1;
place = "{0, 21}";
target = up;
type = BottomGhost;
},
{
horizontal = 1;
place = "{680, -20}";
target = down;
type = TopGhost;
},
{
place = "{96, 29}";
type = Stem;
},
{
place = "{539, 35}";
type = Stem;
}
);
paths = (
{
closed = 1;
nodes = (
"338 353 LINE",
"338 363 LINE",
"39 363 LINE",
"39 353 LINE"
);
}
);
};
components = (
{
name = D;
transform = "{1, 0, 0, 1, 29, 0}";
}
);
hints = (
{
horizontal = 1;
place = "{12, 19}";
type = Stem;
},
{
horizontal = 1;
place = "{365, 22}";
type = Stem;
},
{
horizontal = 1;
place = "{683, 21}";
type = Stem;
},
{
place = "{218, 50}";
type = Stem;
},
{
place = "{604, 43}";
type = Stem;
}
);
layerId = "B3CAC60A-28EB-414C-BF20-F972525BD7DF";
paths = (
{
closed = 1;
nodes = (
"389 353 LINE",
"391 363 LINE",
"199 363 LINE",
"197 353 LINE"
);
},
{
closed = 1;
nodes = (
"92 363 LINE",
"90 353 LINE",
"173 353 LINE",
"176 363 LINE"
);
}
);
width = 654;
}
);
leftKerningGroup = H;
leftMetricsKey = D;
note = Eth;
rightKerningGroup = O;
rightMetricsKey = O;
unicode = 00D0;
},
{
glyphname = E;
lastChange = "2021-06-24 14:27:09 +0000";
layers = (
{
anchors = (
{
name = bottom;
position = "{272, 0}";
},
{
name = ogonek;
position = "{486, 10}";
},
{
name = top;
position = "{454, 680}";
},
{
name = topleft;
position = "{210, 680}";
}
);
background = {
anchors = (
{
name = bottom;
position = "{339, 0}";
},
{
name = ogonek;
position = "{553, 10}";
},
{
name = top;
position = "{339, 680}";
},
{
name = topleft;
position = "{92, 680}";
}
);
hints = (
{
horizontal = 1;
place = "{-15, 21}";
type = Stem;
},
{
horizontal = 1;
place = "{325, 20}";
type = Stem;
},
{
horizontal = 1;
place = "{637, 13}";
type = Stem;
},
{
place = "{71, 181}";
type = Stem;
}
);
paths = (
{
closed = 1;
nodes = (
"591 0 LINE",
"591 179 LINE",
"575 179 LINE",
"575 71 OFFCURVE",
"541 35 OFFCURVE",
"457 35 CURVE SMOOTH",
"395 35 LINE SMOOTH",
"363 35 OFFCURVE",
"350 49 OFFCURVE",
"350 85 CURVE SMOOTH",
"350 342 LINE",
"431 342 LINE SMOOTH",
"492 342 OFFCURVE",
"504 305 OFFCURVE",
"504 268 CURVE",
"520 268 LINE",
"520 440 LINE",
"504 440 LINE",
"504 391 OFFCURVE",
"487 375 OFFCURVE",
"430 375 CURVE SMOOTH",
"350 375 LINE",
"350 645 LINE",
"443 645 LINE SMOOTH",
"542 645 OFFCURVE",
"556 599 OFFCURVE",
"556 521 CURVE",
"572 521 LINE",
"572 680 LINE",
"83 680 LINE",
"83 664 LINE",
"139 664 OFFCURVE",
"154 646 OFFCURVE",
"154 594 CURVE SMOOTH",
"154 86 LINE SMOOTH",
"154 34 OFFCURVE",
"139 16 OFFCURVE",
"83 16 CURVE",
"83 0 LINE"
);
},
{
closed = 1;
nodes = (
"521 0 LINE",
"569 179 LINE",
"553 179 LINE",
"527 81 OFFCURVE",
"450 36 OFFCURVE",
"386 36 CURVE SMOOTH",
"300 36 LINE",
"381 340 LINE",
"452 340 LINE SMOOTH",
"513 340 OFFCURVE",
"515 303 OFFCURVE",
"505 266 CURVE",
"521 266 LINE",
"568 440 LINE",
"552 440 LINE",
"539 391 OFFCURVE",
"517 375 OFFCURVE",
"460 375 CURVE SMOOTH",
"390 375 LINE",
"465 652 LINE",
"522 652 LINE SMOOTH",
"611 652 OFFCURVE",
"628 589 OFFCURVE",
"611 526 CURVE",
"627 526 LINE",
"668 680 LINE",
"205 680 LINE",
"201 664 LINE",
"237 664 OFFCURVE",
"267 646 OFFCURVE",
"253 594 CURVE SMOOTH",
"117 86 LINE SMOOTH",
"103 34 OFFCURVE",
"63 16 OFFCURVE",
"27 16 CURVE",
"23 0 LINE"
);
}
);
};
hints = (
{
horizontal = 1;
place = "{0, 36}";
type = Stem;
},
{
horizontal = 1;
place = "{340, 35}";
type = Stem;
},
{
horizontal = 1;
place = "{652, 28}";
type = Stem;
}
);
layerId = "838EFC6A-184F-4DB1-9A1E-77D55F860A0C";
paths = (
{
closed = 1;
nodes = (
"460 0 LINE",
"508 179 LINE",
"492 179 LINE",
"463 71 OFFCURVE",
"419 35 OFFCURVE",
"335 35 CURVE SMOOTH",
"273 35 LINE SMOOTH",
"241 35 OFFCURVE",
"231 49 OFFCURVE",
"241 85 CURVE SMOOTH",
"310 342 LINE",
"391 342 LINE SMOOTH",
"452 342 OFFCURVE",
"454 305 OFFCURVE",
"444 268 CURVE",
"460 268 LINE",
"506 440 LINE",
"490 440 LINE",
"477 391 OFFCURVE",
"456 375 OFFCURVE",
"399 375 CURVE SMOOTH",
"319 375 LINE",
"391 645 LINE",
"484 645 LINE SMOOTH",
"583 645 OFFCURVE",
"585 599 OFFCURVE",
"564 521 CURVE",
"580 521 LINE",
"623 680 LINE",
"130 680 LINE",
"130 664 LINE",
"186 664 OFFCURVE",
"196 646 OFFCURVE",
"182 594 CURVE SMOOTH",
"46 86 LINE SMOOTH",
"32 34 OFFCURVE",
"12 16 OFFCURVE",
"-44 16 CURVE",
"-44 0 LINE"
);
}
);
width = 551;
},
{
anchors = (
{
name = bottom;
position = "{257, 0}";
},
{
name = ogonek;
position = "{454, 10}";
},
{
name = top;
position = "{439, 680}";
},
{
name = topleft;
position = "{215, 680}";
}
);
background = {
anchors = (
{
name = bottom;
position = "{324, 0}";
},
{
name = ogonek;
position = "{510, 10}";
},
{
name = top;
position = "{324, 680}";
},
{
name = topleft;
position = "{112, 680}";
}
);
hints = (
{
horizontal = 1;
place = "{33, 21}";
target = up;
type = BottomGhost;
},
{
horizontal = 1;
place = "{713, -20}";
target = down;
type = TopGhost;
},
{
place = "{129, 62}";
type = Stem;
}
);
paths = (
{
closed = 1;
nodes = (
"508 0 LINE",
"508 117 LINE",
"498 117 LINE",
"498 9 OFFCURVE",
"472 10 OFFCURVE",
"398 10 CURVE SMOOTH",
"259 10 LINE SMOOTH",
"219 10 OFFCURVE",
"206 14 OFFCURVE",
"206 68 CURVE SMOOTH",
"206 354 LINE",
"358 354 LINE SMOOTH",
"416 354 OFFCURVE",
"428 350 OFFCURVE",
"428 298 CURVE",
"437 298 LINE",
"437 419 LINE",
"428 419 LINE",
"428 372 OFFCURVE",
"417 364 OFFCURVE",
"357 364 CURVE SMOOTH",
"206 364 LINE",
"206 671 LINE",
"384 671 LINE SMOOTH",
"473 671 OFFCURVE",
"483 658 OFFCURVE",
"483 585 CURVE",
"493 585 LINE",
"493 680 LINE",
"126 680 LINE",
"126 673 LINE",
"172 673 OFFCURVE",
"177 666 OFFCURVE",
"177 614 CURVE SMOOTH",
"177 66 LINE SMOOTH",
"177 14 OFFCURVE",
"172 7 OFFCURVE",
"126 7 CURVE",
"126 0 LINE"
);
}
);
};
hints = (
{
horizontal = 1;
place = "{12, 22}";
type = Stem;
},
{
horizontal = 1;
place = "{368, 20}";
type = Stem;
},
{
horizontal = 1;
place = "{683, 21}";
type = Stem;
},
{
place = "{218, 50}";
type = Stem;
},
{
place = "{499, 38}";
type = Stem;
},
{
horizontal = 1;
place = "{12, 19}";
type = Stem;
}
);
layerId = "B3CAC60A-28EB-414C-BF20-F972525BD7DF";
paths = (
{
closed = 1;
nodes = (
"377 0 LINE",
"408 117 LINE",
"398 117 LINE",
"369 9 OFFCURVE",
"343 10 OFFCURVE",
"269 10 CURVE SMOOTH",
"130 10 LINE SMOOTH",
"90 10 OFFCURVE",
"78 14 OFFCURVE",
"93 68 CURVE SMOOTH",
"169 354 LINE",
"321 354 LINE SMOOTH",
"379 354 OFFCURVE",
"390 350 OFFCURVE",
"376 298 CURVE",
"385 298 LINE",
"418 419 LINE",
"409 419 LINE",
"396 372 OFFCURVE",
"383 364 OFFCURVE",
"323 364 CURVE SMOOTH",
"172 364 LINE",
"254 671 LINE",
"432 671 LINE SMOOTH",
"521 671 OFFCURVE",
"528 658 OFFCURVE",
"508 585 CURVE",
"518 585 LINE",
"544 680 LINE",
"177 680 LINE",
"175 673 LINE",
"221 673 OFFCURVE",
"224 666 OFFCURVE",
"210 614 CURVE SMOOTH",
"63 66 LINE SMOOTH",
"49 14 OFFCURVE",
"42 7 OFFCURVE",
"-4 7 CURVE",
"-5 0 LINE"
);
}
);
width = 562;
}
);
leftMetricsKey = H;
note = E;
unicode = 0045;
},
{
glyphname = F;
lastChange = "2021-06-24 11:50:46 +0000";
layers = (
{
anchors = (
{
name = bottom;
position = "{272, 0}";
},
{
name = top;
position = "{454, 680}";
}
);
background = {
anchors = (
{
name = bottomright;
position = "{350, 0}";
},
{
name = top;
position = "{332, 680}";
}
);
hints = (
{
horizontal = 1;
place = "{-15, 21}";
target = up;
type = BottomGhost;
},
{
horizontal = 1;
place = "{325, 20}";
type = Stem;
},
{
horizontal = 1;
place = "{637, 13}";
type = Stem;
},
{
place = "{71, 181}";
type = Stem;
}
);
paths = (
{
closed = 1;
nodes = (
"83 0 LINE",
"440 0 LINE",
"440 16 LINE",
"365 16 OFFCURVE",
"350 34 OFFCURVE",
"350 86 CURVE SMOOTH",
"350 331 LINE",
"441 331 LINE SMOOTH",
"505 331 OFFCURVE",
"514 293 OFFCURVE",
"514 256 CURVE",
"530 256 LINE",
"530 430 LINE",
"514 430 LINE",
"514 381 OFFCURVE",
"500 365 OFFCURVE",
"440 365 CURVE SMOOTH",
"350 365 LINE",
"350 646 LINE",
"437 646 LINE SMOOTH",
"534 646 OFFCURVE",
"550 598 OFFCURVE",
"550 526 CURVE",
"566 526 LINE",
"566 680 LINE",
"83 680 LINE",
"83 664 LINE",
"139 664 OFFCURVE",
"154 646 OFFCURVE",
"154 594 CURVE SMOOTH",
"154 86 LINE SMOOTH",
"154 34 OFFCURVE",
"139 16 OFFCURVE",
"83 16 CURVE"
);
}
);
};
hints = (
{
horizontal = 1;
place = "{0, 21}";
target = up;
type = BottomGhost;
},
{
horizontal = 1;
place = "{340, 35}";
type = Stem;
},
{
horizontal = 1;
place = "{652, 28}";
type = Stem;
},
{
place = "{86, 196}";
type = Stem;
}
);
layerId = "838EFC6A-184F-4DB1-9A1E-77D55F860A0C";
paths = (
{
closed = 1;
nodes = (
"-43 0 LINE",
"314 0 LINE",
"313 16 LINE",
"238 16 OFFCURVE",
"228 34 OFFCURVE",
"242 86 CURVE SMOOTH",
"307 331 LINE",
"398 331 LINE SMOOTH",
"462 331 OFFCURVE",
"461 293 OFFCURVE",
"451 256 CURVE",
"467 256 LINE",
"514 430 LINE",
"498 430 LINE",
"485 381 OFFCURVE",
"466 365 OFFCURVE",
"406 365 CURVE SMOOTH",
"316 365 LINE",
"392 646 LINE",
"479 646 LINE SMOOTH",
"576 646 OFFCURVE",
"579 598 OFFCURVE",
"560 526 CURVE",
"576 526 LINE",
"617 680 LINE",
"130 680 LINE",
"130 664 LINE",
"186 664 OFFCURVE",
"196 646 OFFCURVE",
"182 594 CURVE SMOOTH",
"46 86 LINE SMOOTH",
"32 34 OFFCURVE",
"12 16 OFFCURVE",
"-44 16 CURVE"
);
}
);
width = 600;
},
{
anchors = (
{
name = bottom;
position = "{248, 0}";
},
{
name = top;
position = "{430, 680}";
}
);
background = {
anchors = (
{
name = bottomright;
position = "{207, 0}";
},
{
name = top;
position = "{315, 680}";
}
);
hints = (
{
horizontal = 1;
place = "{33, 21}";
target = up;
type = BottomGhost;
},
{
horizontal = 1;
place = "{713, -20}";
target = down;
type = TopGhost;
},
{
place = "{129, 62}";
type = Stem;
}
);
paths = (
{
closed = 1;
nodes = (
"127 0 LINE",
"274 0 LINE",
"274 7 LINE",
"213 7 OFFCURVE",
"207 14 OFFCURVE",
"207 66 CURVE SMOOTH",
"207 343 LINE",
"359 343 LINE SMOOTH",
"420 343 OFFCURVE",
"429 337 OFFCURVE",
"429 285 CURVE",
"438 285 LINE",
"438 406 LINE",
"429 406 LINE",
"429 357 OFFCURVE",
"415 351 OFFCURVE",
"358 351 CURVE SMOOTH",
"207 351 LINE",
"207 671 LINE",
"365 671 LINE SMOOTH",
"454 671 OFFCURVE",
"464 658 OFFCURVE",
"464 585 CURVE",
"474 585 LINE",
"474 680 LINE",
"127 680 LINE",
"127 673 LINE",
"173 673 OFFCURVE",
"178 666 OFFCURVE",
"178 614 CURVE SMOOTH",
"178 66 LINE SMOOTH",
"178 14 OFFCURVE",
"173 7 OFFCURVE",
"127 7 CURVE"
);
}
);
};
hints = (
{
horizontal = 1;
place = "{12, 19}";
type = Stem;
},
{
horizontal = 1;
place = "{365, 20}";
type = Stem;
},
{
horizontal = 1;
place = "{683, 21}";
type = Stem;
},
{
place = "{-3, 102}";
type = Stem;
},
{
place = "{218, 50}";
type = Stem;
},
{
place = "{499, 38}";
type = Stem;
}
);
layerId = "B3CAC60A-28EB-414C-BF20-F972525BD7DF";
paths = (
{
closed = 1;
nodes = (
"-3 0 LINE",
"144 0 LINE",
"144 7 LINE",
"83 7 OFFCURVE",
"79 14 OFFCURVE",
"93 66 CURVE SMOOTH",
"167 343 LINE",
"319 343 LINE SMOOTH",
"380 343 OFFCURVE",
"388 337 OFFCURVE",
"374 285 CURVE",
"383 285 LINE",
"415 406 LINE",
"406 406 LINE",
"393 357 OFFCURVE",
"378 351 OFFCURVE",
"321 351 CURVE SMOOTH",
"170 351 LINE",
"255 671 LINE",
"413 671 LINE SMOOTH",
"502 671 OFFCURVE",
"509 658 OFFCURVE",
"489 585 CURVE",
"499 585 LINE",
"525 680 LINE",
"176 680 LINE",
"176 673 LINE",
"222 673 OFFCURVE",
"225 666 OFFCURVE",
"211 614 CURVE SMOOTH",
"64 66 LINE SMOOTH",
"50 14 OFFCURVE",
"43 7 OFFCURVE",
"-3 7 CURVE"
);
}
);
width = 543;
}
);
leftKerningGroup = H;
leftMetricsKey = H;
note = F;
rightKerningGroup = F;
unicode = 0046;
},
{
glyphname = G;
lastChange = "2021-06-24 14:27:09 +0000";
layers = (
{
anchors = (
{
name = bottom;
position = "{246, 0}";
},
{
name = top;
position = "{428, 680}";
}
);
background = {
anchors = (
{
name = bottom;
position = "{347, 0}";
},
{
name = top;
position = "{347, 680}";
}
);
hints = (
{
horizontal = 1;
place = "{-26, 16}";
type = Stem;
},
{
horizontal = 1;
place = "{665, -20}";
target = down;
type = TopGhost;
},
{
place = "{22, 197}";
type = Stem;
},
{
place = "{378, 164}";
type = Stem;
},
{
horizontal = 1;
place = "{649, 11}";
type = Stem;
}
);
paths = (
{
closed = 1;
nodes = (
"414 -11 OFFCURVE",
"467 42 OFFCURVE",
"504 42 CURVE SMOOTH",
"520 42 OFFCURVE",
"530 32 OFFCURVE",
"540 17 CURVE",
"556 17 LINE",
"556 239 LINE SMOOTH",
"556 298 OFFCURVE",
"560 321 OFFCURVE",
"617 321 CURVE",
"617 339 LINE",
"306 339 LINE",
"306 321 LINE",
"358 321 OFFCURVE",
"377 306 OFFCURVE",
"377 239 CURVE SMOOTH",
"377 33 LINE",
"366 25 OFFCURVE",
"350 20 OFFCURVE",
"333 20 CURVE SMOOTH",
"259 20 OFFCURVE",
"233 116 OFFCURVE",
"233 318 CURVE SMOOTH",
"233 541 OFFCURVE",
"271 664 OFFCURVE",
"365 664 CURVE SMOOTH",
"435 664 OFFCURVE",
"496 592 OFFCURVE",
"519 446 CURVE",
"537 446 LINE",
"537 680 LINE",
"519 680 LINE",
"511 660 OFFCURVE",
"507 651 OFFCURVE",
"495 651 CURVE SMOOTH",
"475 651 OFFCURVE",
"446 690 OFFCURVE",
"346 690 CURVE SMOOTH",
"166 690 OFFCURVE",
"18 568 OFFCURVE",
"18 306 CURVE SMOOTH",
"18 49 OFFCURVE",
"184 -11 OFFCURVE",
"303 -11 CURVE SMOOTH"
);
}
);
};
hints = (
{
horizontal = 1;
place = "{-11, 31}";
type = Stem;
},
{
horizontal = 1;
place = "{680, -20}";
target = down;
type = TopGhost;
},
{
horizontal = 1;
place = "{664, 26}";
type = Stem;
}
);
layerId = "838EFC6A-184F-4DB1-9A1E-77D55F860A0C";
paths = (
{
closed = 1;
nodes = (
"352 -12 OFFCURVE",
"416 42 OFFCURVE",
"454 42 CURVE SMOOTH",
"470 42 OFFCURVE",
"478 32 OFFCURVE",
"485 22 CURVE",
"501 22 LINE",
"559 239 LINE SMOOTH",
"575 298 OFFCURVE",
"585 321 OFFCURVE",
"642 321 CURVE",
"647 339 LINE",
"336 339 LINE",
"331 321 LINE",
"383 321 OFFCURVE",
"398 306 OFFCURVE",
"380 239 CURVE SMOOTH",
"325 33 LINE",
"312 25 OFFCURVE",
"291 15 OFFCURVE",
"272 15 CURVE SMOOTH",
"219 15 OFFCURVE",
"206 92 OFFCURVE",
"206 154 CURVE SMOOTH",
"206 332 OFFCURVE",
"316 664 OFFCURVE",
"456 664 CURVE SMOOTH",
"537 664 OFFCURVE",
"598 587 OFFCURVE",
"574 446 CURVE",
"590 446 LINE",
"654 680 LINE",
"636 680 LINE",
"624 662 OFFCURVE",
"615 651 OFFCURVE",
"600 651 CURVE SMOOTH",
"572 651 OFFCURVE",
"550 691 OFFCURVE",
"458 691 CURVE SMOOTH",
"198 691 OFFCURVE",
"13 475 OFFCURVE",
"13 246 CURVE SMOOTH",
"13 107 OFFCURVE",
"91 -12 OFFCURVE",
"254 -12 CURVE SMOOTH"
);
}
);
width = 620;
},
{
anchors = (
{
name = bottom;
position = "{258, 0}";
},
{
name = top;
position = "{440, 680}";
}
);
background = {
anchors = (
{
name = bottom;
position = "{367, 0}";
},
{
name = top;
position = "{367, 680}";
}
);
hints = (
{
horizontal = 1;
place = "{22, 21}";
target = up;
type = BottomGhost;
},
{
horizontal = 1;
place = "{723, -20}";
target = down;
type = TopGhost;
},
{
place = "{67, 63}";
type = Stem;
},
{
place = "{555, 65}";
type = Stem;
},
{
horizontal = 1;
place = "{32, 21}";
target = up;
type = BottomGhost;
},
{
horizontal = 1;
place = "{716, -20}";
target = down;
type = TopGhost;
},
{
horizontal = 1;
place = "{713, -20}";
target = down;
type = TopGhost;
}
);
paths = (
{
closed = 1;
nodes = (
"390 -11 OFFCURVE",
"453 34 OFFCURVE",
"484 34 CURVE SMOOTH",
"491 34 OFFCURVE",
"500 32 OFFCURVE",
"503 23 CURVE",
"507 23 LINE",
"566 243 LINE SMOOTH",
"582 302 OFFCURVE",
"594 331 OFFCURVE",
"641 331 CURVE",
"643 339 LINE",
"499 339 LINE",
"497 331 LINE",
"549 331 OFFCURVE",
"552 310 OFFCURVE",
"534 243 CURVE SMOOTH",
"482 50 LINE",
"471 44 OFFCURVE",
"385 0 OFFCURVE",
"306 0 CURVE SMOOTH",
"167 0 OFFCURVE",
"44 132 OFFCURVE",
"100 343 CURVE SMOOTH",
"154 545 OFFCURVE",
"334 682 OFFCURVE",
"477 682 CURVE SMOOTH",
"546 682 OFFCURVE",
"633 644 OFFCURVE",
"615 516 CURVE",
"623 516 LINE",
"665 674 LINE",
"657 674 LINE",
"647 657 OFFCURVE",
"641 649 OFFCURVE",
"627 649 CURVE SMOOTH",
"602 649 OFFCURVE",
"557 690 OFFCURVE",
"479 690 CURVE SMOOTH",
"329 690 OFFCURVE",
"130 569 OFFCURVE",
"69 341 CURVE SMOOTH",
"6 106 OFFCURVE",
"152 -11 OFFCURVE",
"299 -11 CURVE SMOOTH"
);
}
);
};
hints = (
{
horizontal = 1;
place = "{1, 23}";
type = Stem;
},
{
horizontal = 1;
place = "{343, 20}";
type = Stem;
},
{
horizontal = 1;
place = "{694, 20}";
type = Stem;
},
{
place = "{65, 44}";
type = Stem;
},
{
place = "{555, 110}";
type = Stem;
}
);
layerId = "B3CAC60A-28EB-414C-BF20-F972525BD7DF";
paths = (
{
closed = 1;
nodes = (
"393 -12 OFFCURVE",
"453 34 OFFCURVE",
"484 34 CURVE SMOOTH",
"491 34 OFFCURVE",
"500 32 OFFCURVE",
"503 23 CURVE",
"507 23 LINE",
"566 243 LINE SMOOTH",
"584 311 OFFCURVE",
"594 331 OFFCURVE",
"641 331 CURVE",
"641 339 LINE",
"497 339 LINE",
"497 331 LINE",
"550 331 OFFCURVE",
"552 308 OFFCURVE",
"534 243 CURVE SMOOTH",
"482 50 LINE",
"471 44 OFFCURVE",
"383 -4 OFFCURVE",
"304 -4 CURVE SMOOTH",
"190 -4 OFFCURVE",
"80 92 OFFCURVE",
"80 265 CURVE SMOOTH",
"80 468 OFFCURVE",
"229 684 OFFCURVE",
"453 684 CURVE SMOOTH",
"573 684 OFFCURVE",
"630 619 OFFCURVE",
"615 516 CURVE",
"623 516 LINE",
"665 674 LINE",
"657 674 LINE",
"647 657 OFFCURVE",
"641 649 OFFCURVE",
"627 649 CURVE SMOOTH",
"602 649 OFFCURVE",
"556 692 OFFCURVE",
"454 692 CURVE SMOOTH",
"220 692 OFFCURVE",
"50 483 OFFCURVE",
"50 271 CURVE SMOOTH",
"50 113 OFFCURVE",
"148 -12 OFFCURVE",
"302 -12 CURVE SMOOTH"
);
}
);
width = 650;
},
{
anchors = (
{
name = bottom;
position = "{269, 0}";
},
{
name = top;
position = "{451, 680}";
}
);
associatedMasterId = "B3CAC60A-28EB-414C-BF20-F972525BD7DF";
background = {
anchors = (
{
name = bottom;
position = "{378, 0}";
},
{
name = top;
position = "{378, 680}";
}
);
hints = (
{
horizontal = 1;
place = "{22, 21}";
target = up;
type = BottomGhost;
},
{
horizontal = 1;
place = "{723, -20}";
target = down;
type = TopGhost;
},
{
place = "{67, 63}";
type = Stem;
},
{
place = "{555, 65}";
type = Stem;
},
{
horizontal = 1;
place = "{32, 21}";
target = up;
type = BottomGhost;
},
{
horizontal = 1;
place = "{716, -20}";
target = down;
type = TopGhost;
},
{
horizontal = 1;
place = "{713, -20}";
target = down;
type = TopGhost;
}
);
paths = (
{
closed = 1;
nodes = (
"466 -11 OFFCURVE",
"528 34 OFFCURVE",
"555 34 CURVE SMOOTH",
"566 34 OFFCURVE",
"571 28 OFFCURVE",
"577 13 CURVE",
"581 13 LINE",
"581 243 LINE SMOOTH",
"581 302 OFFCURVE",
"585 331 OFFCURVE",
"632 331 CURVE",
"632 339 LINE",
"488 339 LINE",
"488 331 LINE",
"540 331 OFFCURVE",
"549 310 OFFCURVE",
"549 243 CURVE SMOOTH",
"549 49 LINE",
"539 42 OFFCURVE",
"455 0 OFFCURVE",
"374 0 CURVE SMOOTH",
"236 0 OFFCURVE",
"91 122 OFFCURVE",
"91 333 CURVE SMOOTH",
"91 535 OFFCURVE",
"229 682 OFFCURVE",
"378 682 CURVE SMOOTH",
"454 682 OFFCURVE",
"559 644 OFFCURVE",
"576 516 CURVE",
"584 516 LINE",
"584 666 LINE",
"576 666 LINE",
"568 646 OFFCURVE",
"562 637 OFFCURVE",
"552 637 CURVE SMOOTH",
"535 637 OFFCURVE",
"490 690 OFFCURVE",
"383 690 CURVE SMOOTH",
"217 690 OFFCURVE",
"59 555 OFFCURVE",
"59 327 CURVE SMOOTH",
"59 92 OFFCURVE",
"226 -11 OFFCURVE",
"368 -11 CURVE SMOOTH"
);
}
);
};
hints = (
{
horizontal = 1;
place = "{1, 23}";
type = Stem;
},
{
horizontal = 1;
place = "{343, 20}";
type = Stem;
},
{
horizontal = 1;
place = "{694, 20}";
type = Stem;
},
{
place = "{65, 44}";
type = Stem;
},
{
place = "{555, 110}";
type = Stem;
}
);
layerId = "37D97812-6202-4062-B82C-BFE1B107A5E4";
name = "Jun 24 21, 13:53";
paths = (
{
closed = 1;
nodes = (
"401 -11 OFFCURVE",
"464 34 OFFCURVE",
"495 34 CURVE SMOOTH",
"502 34 OFFCURVE",
"511 32 OFFCURVE",
"514 23 CURVE",
"518 23 LINE",
"577 243 LINE SMOOTH",
"593 302 OFFCURVE",
"605 331 OFFCURVE",
"652 331 CURVE",
"654 339 LINE",
"510 339 LINE",
"508 331 LINE",
"560 331 OFFCURVE",
"563 310 OFFCURVE",
"545 243 CURVE SMOOTH",
"493 50 LINE",
"482 44 OFFCURVE",
"396 0 OFFCURVE",
"317 0 CURVE SMOOTH",
"178 0 OFFCURVE",
"55 132 OFFCURVE",
"111 343 CURVE SMOOTH",
"165 545 OFFCURVE",
"345 682 OFFCURVE",
"488 682 CURVE SMOOTH",
"557 682 OFFCURVE",
"644 644 OFFCURVE",
"626 516 CURVE",
"634 516 LINE",
"676 674 LINE",
"668 674 LINE",
"658 657 OFFCURVE",
"652 649 OFFCURVE",
"638 649 CURVE SMOOTH",
"613 649 OFFCURVE",
"568 690 OFFCURVE",
"490 690 CURVE SMOOTH",
"340 690 OFFCURVE",
"141 569 OFFCURVE",
"80 341 CURVE SMOOTH",
"17 106 OFFCURVE",
"163 -11 OFFCURVE",
"310 -11 CURVE SMOOTH"
);
},
{
closed = 1;
nodes = (
"466 -11 OFFCURVE",
"528 34 OFFCURVE",
"555 34 CURVE SMOOTH",
"566 34 OFFCURVE",
"571 28 OFFCURVE",
"577 13 CURVE",
"581 13 LINE",
"581 243 LINE SMOOTH",
"581 302 OFFCURVE",
"585 331 OFFCURVE",
"632 331 CURVE",
"632 339 LINE",
"488 339 LINE",
"488 331 LINE",
"540 331 OFFCURVE",
"549 310 OFFCURVE",
"549 243 CURVE SMOOTH",
"549 49 LINE",
"539 42 OFFCURVE",
"455 0 OFFCURVE",
"374 0 CURVE SMOOTH",
"236 0 OFFCURVE",
"91 122 OFFCURVE",
"91 333 CURVE SMOOTH",
"91 535 OFFCURVE",
"229 682 OFFCURVE",
"378 682 CURVE SMOOTH",
"454 682 OFFCURVE",
"559 644 OFFCURVE",
"576 516 CURVE",
"584 516 LINE",
"584 666 LINE",
"576 666 LINE",
"568 646 OFFCURVE",
"562 637 OFFCURVE",
"552 637 CURVE SMOOTH",
"535 637 OFFCURVE",
"490 690 OFFCURVE",
"383 690 CURVE SMOOTH",
"217 690 OFFCURVE",
"59 555 OFFCURVE",
"59 327 CURVE SMOOTH",
"59 92 OFFCURVE",
"226 -11 OFFCURVE",
"368 -11 CURVE SMOOTH"
);
}
);
width = 661;
},
{
anchors = (
{
name = bottom;
position = "{269, 0}";
},
{
name = top;
position = "{451, 680}";
}
);
associatedMasterId = "B3CAC60A-28EB-414C-BF20-F972525BD7DF";
background = {
anchors = (
{
name = bottom;
position = "{378, 0}";
},
{
name = top;
position = "{378, 680}";
}
);
hints = (
{
horizontal = 1;
place = "{22, 21}";
target = up;
type = BottomGhost;
},
{
horizontal = 1;
place = "{723, -20}";
target = down;
type = TopGhost;
},
{
place = "{67, 63}";
type = Stem;
},
{
place = "{555, 65}";
type = Stem;
},
{
horizontal = 1;
place = "{32, 21}";
target = up;
type = BottomGhost;
},
{
horizontal = 1;
place = "{716, -20}";
target = down;
type = TopGhost;
},
{
horizontal = 1;
place = "{713, -20}";
target = down;
type = TopGhost;
}
);
paths = (
{
closed = 1;
nodes = (
"401 -11 OFFCURVE",
"464 34 OFFCURVE",
"495 34 CURVE SMOOTH",
"502 34 OFFCURVE",
"511 32 OFFCURVE",
"514 23 CURVE",
"518 23 LINE",
"577 243 LINE SMOOTH",
"593 302 OFFCURVE",
"605 331 OFFCURVE",
"652 331 CURVE",
"654 339 LINE",
"510 339 LINE",
"508 331 LINE",
"560 331 OFFCURVE",
"563 310 OFFCURVE",
"545 243 CURVE SMOOTH",
"493 50 LINE",
"482 44 OFFCURVE",
"396 0 OFFCURVE",
"317 0 CURVE SMOOTH",
"178 0 OFFCURVE",
"55 132 OFFCURVE",
"111 343 CURVE SMOOTH",
"165 545 OFFCURVE",
"345 682 OFFCURVE",
"488 682 CURVE SMOOTH",
"557 682 OFFCURVE",
"644 644 OFFCURVE",
"626 516 CURVE",
"634 516 LINE",
"676 674 LINE",
"668 674 LINE",
"658 657 OFFCURVE",
"652 649 OFFCURVE",
"638 649 CURVE SMOOTH",
"613 649 OFFCURVE",
"568 690 OFFCURVE",
"490 690 CURVE SMOOTH",
"340 690 OFFCURVE",
"141 569 OFFCURVE",
"80 341 CURVE SMOOTH",
"17 106 OFFCURVE",
"163 -11 OFFCURVE",
"310 -11 CURVE SMOOTH"
);
}
);
};
hints = (
{
horizontal = 1;
place = "{1, 23}";
type = Stem;
},
{
horizontal = 1;
place = "{343, 20}";
type = Stem;
},
{
horizontal = 1;
place = "{694, 20}";
type = Stem;
},
{
place = "{65, 44}";
type = Stem;
},
{
place = "{555, 110}";
type = Stem;
}
);
layerId = "C82BF9FD-C877-45EA-A104-60D023DFD175";
name = "Jun 24 21, 13:54";
paths = (
{
closed = 1;
nodes = (
"401 -11 OFFCURVE",
"464 34 OFFCURVE",
"495 34 CURVE SMOOTH",
"502 34 OFFCURVE",
"511 32 OFFCURVE",
"514 23 CURVE",
"518 23 LINE",
"577 243 LINE SMOOTH",
"593 302 OFFCURVE",
"605 331 OFFCURVE",
"652 331 CURVE",
"654 339 LINE",
"510 339 LINE",
"508 331 LINE",
"561 331 OFFCURVE",
"563 308 OFFCURVE",
"545 243 CURVE SMOOTH",
"493 50 LINE",
"482 44 OFFCURVE",
"396 0 OFFCURVE",
"317 0 CURVE SMOOTH",
"202 0 OFFCURVE",
"97 91 OFFCURVE",
"97 243 CURVE SMOOTH",
"97 450 OFFCURVE",
"289 682 OFFCURVE",
"488 682 CURVE SMOOTH",
"584 682 OFFCURVE",
"641 619 OFFCURVE",
"626 516 CURVE",
"634 516 LINE",
"676 674 LINE",
"668 674 LINE",
"658 657 OFFCURVE",
"652 649 OFFCURVE",
"638 649 CURVE SMOOTH",
"613 649 OFFCURVE",
"568 690 OFFCURVE",
"490 690 CURVE SMOOTH",
"270 690 OFFCURVE",
"65 465 OFFCURVE",
"65 235 CURVE SMOOTH",
"65 71 OFFCURVE",
"187 -11 OFFCURVE",
"310 -11 CURVE SMOOTH"
);
}
);
width = 661;
}
);
leftKerningGroup = C;
leftMetricsKey = O;
note = G;
rightKerningGroup = G;
unicode = 0047;
},
{
glyphname = H;
lastChange = "2021-06-24 14:27:09 +0000";
layers = (
{
anchors = (
{
name = bottom;
position = "{290, 0}";
},
{
name = center;
position = "{381, 340}";
},
{
name = top;
position = "{472, 680}";
},
{
name = topleft;
position = "{138, 680}";
}
);
hints = (
{
horizontal = 1;
place = "{0, 21}";
target = up;
type = BottomGhost;
},
{
horizontal = 1;
place = "{340, 35}";
type = Stem;
},
{
horizontal = 1;
place = "{680, -20}";
target = down;
type = TopGhost;
},
{
place = "{86, 195}";
type = Stem;
},
{
place = "{425, 195}";
type = Stem;
},
{
horizontal = 1;
place = "{0, 21}";
target = up;
type = BottomGhost;
},
{
horizontal = 1;
place = "{680, -20}";
target = down;
type = TopGhost;
},
{
place = "{426, 195}";
type = Stem;
},
{
horizontal = 1;
place = "{0, 21}";
target = up;
type = BottomGhost;
},
{
horizontal = 1;
place = "{680, -20}";
target = down;
type = TopGhost;
},
{
place = "{86, 195}";
type = Stem;
}
);
layerId = "838EFC6A-184F-4DB1-9A1E-77D55F860A0C";
paths = (
{
closed = 1;
nodes = (
"634 0 LINE",
"634 16 LINE",
"578 16 OFFCURVE",
"568 34 OFFCURVE",
"582 86 CURVE SMOOTH",
"718 594 LINE SMOOTH",
"732 646 OFFCURVE",
"752 664 OFFCURVE",
"808 664 CURVE",
"808 680 LINE",
"487 680 LINE",
"487 664 LINE",
"523 664 OFFCURVE",
"536 646 OFFCURVE",
"522 594 CURVE SMOOTH",
"386 86 LINE SMOOTH",
"372 34 OFFCURVE",
"349 16 OFFCURVE",
"309 16 CURVE",
"309 0 LINE"
);
},
{
closed = 1;
nodes = (
"272 0 LINE",
"272 16 LINE",
"235 16 OFFCURVE",
"228 34 OFFCURVE",
"242 86 CURVE SMOOTH",
"378 594 LINE SMOOTH",
"392 646 OFFCURVE",
"409 664 OFFCURVE",
"450 664 CURVE",
"450 680 LINE",
"130 680 LINE",
"130 664 LINE",
"186 664 OFFCURVE",
"196 646 OFFCURVE",
"182 594 CURVE SMOOTH",
"46 86 LINE SMOOTH",
"32 34 OFFCURVE",
"12 16 OFFCURVE",
"-44 16 CURVE",
"-44 0 LINE"
);
},
{
closed = 1;
nodes = (
"462 340 LINE",
"471 375 LINE",
"309 375 LINE",
"300 340 LINE"
);
}
);
width = 710;
},
{
anchors = (
{
name = bottom;
position = "{266, 0}";
},
{
name = center;
position = "{357, 340}";
},
{
name = top;
position = "{448, 680}";
},
{
name = topleft;
position = "{140, 680}";
}
);
background = {
anchors = (
{
name = bottom;
position = "{321, 0}";
},
{
name = center;
position = "{321, 340}";
},
{
name = top;
position = "{321, 680}";
},
{
name = topleft;
position = "{37, 680}";
}
);
components = (
{
name = Serif;
transform = "{1, 0, 0, 1, -7, 0}";
},
{
name = Serif;
transform = "{1, 0, 0, -1, -7, 680}";
},
{
name = Serif;
transform = "{-1, 0, 0, 1, 649, 0}";
},
{
name = Serif;
transform = "{-1, 0, 0, -1, 649, 680}";
}
);
hints = (
{
horizontal = 1;
place = "{33, 21}";
target = up;
type = BottomGhost;
},
{
horizontal = 1;
place = "{713, -20}";
target = down;
type = TopGhost;
},
{
place = "{129, 62}";
type = Stem;
},
{
place = "{538, 62}";
type = Stem;
}
);
paths = (
{
closed = 1;
nodes = (
"540 66 LINE",
"540 614 LINE",
"511 614 LINE",
"511 66 LINE"
);
},
{
closed = 1;
nodes = (
"131 66 LINE",
"131 614 LINE",
"102 614 LINE",
"102 66 LINE"
);
},
{
closed = 1;
nodes = (
"513 355 LINE",
"513 365 LINE",
"129 365 LINE",
"129 355 LINE"
);
}
);
};
hints = (
{
horizontal = 1;
place = "{12, 19}";
type = Stem;
},
{
horizontal = 1;
place = "{368, 20}";
type = Stem;
},
{
horizontal = 1;
place = "{685, 19}";
type = Stem;
},
{
place = "{-3, 102}";
type = Stem;
},
{
place = "{218, 102}";
type = Stem;
},
{
place = "{406, 102}";
type = Stem;
},
{
place = "{627, 102}";
type = Stem;
}
);
layerId = "B3CAC60A-28EB-414C-BF20-F972525BD7DF";
paths = (
{
closed = 1;
nodes = (
"538 0 LINE",
"538 7 LINE",
"492 7 OFFCURVE",
"489 14 OFFCURVE",
"503 66 CURVE SMOOTH",
"649 614 LINE SMOOTH",
"663 666 OFFCURVE",
"670 673 OFFCURVE",
"716 673 CURVE",
"716 680 LINE",
"585 680 LINE",
"585 673 LINE",
"631 673 OFFCURVE",
"634 666 OFFCURVE",
"620 614 CURVE SMOOTH",
"474 66 LINE SMOOTH",
"460 14 OFFCURVE",
"453 7 OFFCURVE",
"407 7 CURVE",
"407 0 LINE"
);
},
{
closed = 1;
nodes = (
"129 0 LINE",
"129 7 LINE",
"83 7 OFFCURVE",
"80 14 OFFCURVE",
"94 66 CURVE SMOOTH",
"240 614 LINE SMOOTH",
"254 666 OFFCURVE",
"261 673 OFFCURVE",
"307 673 CURVE",
"307 680 LINE",
"176 680 LINE",
"176 673 LINE",
"222 673 OFFCURVE",
"225 666 OFFCURVE",
"211 614 CURVE SMOOTH",
"65 66 LINE SMOOTH",
"51 14 OFFCURVE",
"44 7 OFFCURVE",
"-2 7 CURVE",
"-2 0 LINE"
);
},
{
closed = 1;
nodes = (
"553 355 LINE",
"555 365 LINE",
"171 365 LINE",
"169 355 LINE"
);
}
);
width = 656;
}
);
leftKerningGroup = H;
note = H;
rightKerningGroup = H;
rightMetricsKey = "=|";
unicode = 0048;
},
{
glyphname = Hbar;
lastChange = "2021-06-23 13:35:07 +0000";
layers = (
{
components = (
{
name = H;
}
);
layerId = "B3CAC60A-28EB-414C-BF20-F972525BD7DF";
paths = (
{
closed = 1;
nodes = (
"95 546 LINE",
"732 546 LINE",
"732 554 LINE",
"95 554 LINE"
);
}
);
width = 655;
},
{
components = (
{
name = H;
}
);
layerId = "838EFC6A-184F-4DB1-9A1E-77D55F860A0C";
paths = (
{
closed = 1;
nodes = (
"65 521 LINE",
"802 521 LINE",
"802 554 LINE",
"65 554 LINE"
);
}
);
width = 708;
}
);
leftKerningGroup = H;
rightKerningGroup = H;
unicode = 0126;
},
{
glyphname = I;
lastChange = "2021-06-24 10:31:14 +0000";
layers = (
{
anchors = (
{
name = bottom;
position = "{120, 0}";
},
{
name = ogonek;
position = "{270, 10}";
},
{
name = top;
position = "{302, 680}";
},
{
name = topleft;
position = "{138, 680}";
}
);
background = {
anchors = (
{
name = bottom;
position = "{180, 0}";
},
{
name = ogonek;
position = "{324, 10}";
},
{
name = top;
position = "{180, 680}";
},
{
name = topleft;
position = "{20, 680}";
}
);
hints = (
{
horizontal = 1;
place = "{-15, 21}";
target = up;
type = BottomGhost;
},
{
horizontal = 1;
place = "{665, -20}";
target = down;
type = TopGhost;
},
{
place = "{71, 180}";
type = Stem;
}
);
paths = (
{
closed = 1;
nodes = (
"290 0 LINE",
"294 16 LINE",
"238 16 OFFCURVE",
"228 34 OFFCURVE",
"242 86 CURVE SMOOTH",
"378 594 LINE SMOOTH",
"392 646 OFFCURVE",
"412 664 OFFCURVE",
"468 664 CURVE",
"472 680 LINE",
"134 680 LINE",
"130 664 LINE",
"186 664 OFFCURVE",
"196 646 OFFCURVE",
"182 594 CURVE SMOOTH",
"46 86 LINE SMOOTH",
"32 34 OFFCURVE",
"12 16 OFFCURVE",
"-44 16 CURVE",
"-48 0 LINE"
);
}
);
};
components = (
{
name = Stem;
}
);
hints = (
{
horizontal = 1;
place = "{0, 21}";
target = up;
type = BottomGhost;
},
{
horizontal = 1;
place = "{680, -20}";
target = down;
type = TopGhost;
},
{
place = "{86, 195}";
type = Stem;
}
);
layerId = "838EFC6A-184F-4DB1-9A1E-77D55F860A0C";
width = 368;
},
{
anchors = (
{
name = bottom;
position = "{61, 0}";
},
{
name = ogonek;
position = "{153, 10}";
},
{
name = top;
position = "{243, 680}";
},
{
name = topleft;
position = "{152, 680}";
}
);
background = {
anchors = (
{
name = bottom;
position = "{117, 0}";
},
{
name = ogonek;
position = "{182, 0}";
},
{
name = top;
position = "{117, 680}";
},
{
name = topleft;
position = "{6, 680}";
}
);
hints = (
{
horizontal = 1;
place = "{33, 21}";
target = up;
type = BottomGhost;
},
{
horizontal = 1;
place = "{713, -20}";
target = down;
type = TopGhost;
},
{
place = "{129, 62}";
type = Stem;
}
);
paths = (
{
closed = 1;
nodes = (
"182 0 LINE",
"182 7 LINE",
"136 7 OFFCURVE",
"131 14 OFFCURVE",
"131 66 CURVE SMOOTH",
"131 614 LINE SMOOTH",
"131 666 OFFCURVE",
"136 673 OFFCURVE",
"182 673 CURVE",
"182 680 LINE",
"51 680 LINE",
"51 673 LINE",
"97 673 OFFCURVE",
"102 666 OFFCURVE",
"102 614 CURVE SMOOTH",
"102 66 LINE SMOOTH",
"102 14 OFFCURVE",
"97 7 OFFCURVE",
"51 7 CURVE",
"51 0 LINE"
);
}
);
};
components = (
{
name = Stem;
}
);
hints = (
{
horizontal = 1;
place = "{12, 19}";
type = Stem;
},
{
horizontal = 1;
place = "{685, 19}";
type = Stem;
},
{
place = "{-3, 102}";
type = Stem;
},
{
place = "{218, 102}";
type = Stem;
}
);
layerId = "B3CAC60A-28EB-414C-BF20-F972525BD7DF";
width = 246;
}
);
leftKerningGroup = H;
note = I;
rightKerningGroup = H;
unicode = 0049;
},
{
glyphname = J;
lastChange = "2021-06-24 12:06:23 +0000";
layers = (
{
anchors = (
{
name = bottom;
position = "{120, 0}";
},
{
name = top;
position = "{302, 680}";
}
);
background = {
anchors = (
{
name = top;
position = "{174, 680}";
}
);
hints = (
{
horizontal = 1;
place = "{-166, 21}";
target = up;
type = BottomGhost;
},
{
horizontal = 1;
place = "{665, -20}";
target = down;
type = TopGhost;
},
{
place = "{71, 180}";
type = Stem;
}
);
paths = (
{
closed = 1;
nodes = (
"-7 -151 LINE",
"113 -132 OFFCURVE",
"275 -96 OFFCURVE",
"275 112 CURVE SMOOTH",
"275 594 LINE SMOOTH",
"275 646 OFFCURVE",
"290 664 OFFCURVE",
"346 664 CURVE",
"346 680 LINE",
"8 680 LINE",
"8 664 LINE",
"64 664 OFFCURVE",
"79 646 OFFCURVE",
"79 594 CURVE SMOOTH",
"79 85 LINE SMOOTH",
"79 -74 OFFCURVE",
"60 -117 OFFCURVE",
"-7 -135 CURVE"
);
}
);
};
hints = (
{
horizontal = 1;
place = "{-151, 21}";
target = up;
type = BottomGhost;
},
{
horizontal = 1;
place = "{680, -20}";
target = down;
type = TopGhost;
},
{
place = "{86, 195}";
type = Stem;
}
);
layerId = "838EFC6A-184F-4DB1-9A1E-77D55F860A0C";
paths = (
{
closed = 1;
nodes = (
"21 -132 OFFCURVE",
"192 -96 OFFCURVE",
"248 112 CURVE SMOOTH",
"377 594 LINE SMOOTH",
"391 646 OFFCURVE",
"411 664 OFFCURVE",
"467 664 CURVE",
"467 680 LINE",
"129 680 LINE",
"129 664 LINE",
"185 664 OFFCURVE",
"195 646 OFFCURVE",
"181 594 CURVE SMOOTH",
"45 85 LINE SMOOTH",
"2 -74 OFFCURVE",
"-28 -117 OFFCURVE",
"-100 -135 CURVE",
"-104 -151 LINE"
);
}
);
width = 368;
},
{
anchors = (
{
name = bottom;
position = "{61, 0}";
},
{
name = top;
position = "{243, 680}";
}
);
background = {
anchors = (
{
name = top;
position = "{123, 680}";
}
);
hints = (
{
horizontal = 1;
place = "{-118, 21}";
target = up;
type = BottomGhost;
},
{
horizontal = 1;
place = "{713, -20}";
target = down;
type = TopGhost;
},
{
place = "{129, 62}";
type = Stem;
}
);
paths = (
{
closed = 1;
nodes = (
"2 -151 LINE",
"90 -129 OFFCURVE",
"137 -108 OFFCURVE",
"137 78 CURVE SMOOTH",
"137 614 LINE SMOOTH",
"137 666 OFFCURVE",
"142 673 OFFCURVE",
"188 673 CURVE",
"188 680 LINE",
"57 680 LINE",
"57 673 LINE",
"103 673 OFFCURVE",
"108 666 OFFCURVE",
"108 614 CURVE SMOOTH",
"108 65 LINE SMOOTH",
"108 -94 OFFCURVE",
"69 -124 OFFCURVE",
"2 -142 CURVE"
);
}
);
};
hints = (
{
horizontal = 1;
place = "{685, 19}";
type = Stem;
},
{
place = "{-100, 420}";
type = Stem;
},
{
place = "{218, 101}";
type = Stem;
}
);
layerId = "B3CAC60A-28EB-414C-BF20-F972525BD7DF";
paths = (
{
closed = 1;
nodes = (
"-6 -129 OFFCURVE",
"46 -108 OFFCURVE",
"96 78 CURVE SMOOTH",
"240 614 LINE SMOOTH",
"254 666 OFFCURVE",
"261 673 OFFCURVE",
"307 673 CURVE",
"307 680 LINE",
"176 680 LINE",
"176 673 LINE",
"222 673 OFFCURVE",
"225 666 OFFCURVE",
"211 614 CURVE SMOOTH",
"64 65 LINE SMOOTH",
"21 -94 OFFCURVE",
"-26 -124 OFFCURVE",
"-98 -142 CURVE",
"-100 -151 LINE"
);
}
);
width = 245;
}
);
leftKerningGroup = J;
note = J;
rightKerningGroup = J;
unicode = 004A;
},
{
glyphname = K;
lastChange = "2021-06-24 12:10:04 +0000";
layers = (
{
anchors = (
{
name = bottom;
position = "{276, 0}";
},
{
name = top;
position = "{458, 680}";
}
);
background = {
anchors = (
{
name = bottom;
position = "{326, 0}";
},
{
name = top;
position = "{331, 680}";
}
);
components = (
{
name = Stem;
}
);
hints = (
{
horizontal = 1;
place = "{-15, 21}";
target = up;
type = BottomGhost;
},
{
horizontal = 1;
place = "{665, -20}";
target = down;
type = TopGhost;
},
{
place = "{266, 160}";
type = Stem;
},
{
place = "{71, 180}";
type = Stem;
}
);
paths = (
{
closed = 1;
nodes = (
"336 0 LINE",
"336 16 LINE",
"281 16 OFFCURVE",
"278 34 OFFCURVE",
"278 86 CURVE SMOOTH",
"278 349 LINE",
"279 349 LINE",
"412 70 LINE SMOOTH",
"433 27 OFFCURVE",
"426 16 OFFCURVE",
"385 16 CURVE",
"385 0 LINE",
"700 0 LINE",
"700 16 LINE",
"667 16 OFFCURVE",
"660 25 OFFCURVE",
"640 63 CURVE SMOOTH",
"413 502 LINE",
"411 470 LINE",
"451 513 OFFCURVE",
"477 541 OFFCURVE",
"519 593 CURVE SMOOTH",
"571 658 OFFCURVE",
"600 664 OFFCURVE",
"649 664 CURVE",
"649 680 LINE",
"416 680 LINE",
"416 664 LINE",
"499 664 OFFCURVE",
"527 648 OFFCURVE",
"429 533 CURVE SMOOTH",
"381 477 OFFCURVE",
"325 416 OFFCURVE",
"279 370 CURVE",
"278 370 LINE",
"278 594 LINE SMOOTH",
"278 646 OFFCURVE",
"290 664 OFFCURVE",
"345 664 CURVE",
"345 680 LINE",
"11 680 LINE",
"11 664 LINE",
"67 664 OFFCURVE",
"82 646 OFFCURVE",
"82 594 CURVE SMOOTH",
"82 86 LINE SMOOTH",
"82 34 OFFCURVE",
"67 16 OFFCURVE",
"11 16 CURVE",
"11 0 LINE"
);
}
);
};
hints = (
{
horizontal = 1;
place = "{0, 21}";
target = up;
type = BottomGhost;
},
{
horizontal = 1;
place = "{680, -20}";
target = down;
type = TopGhost;
},
{
place = "{86, 195}";
type = Stem;
}
);
layerId = "838EFC6A-184F-4DB1-9A1E-77D55F860A0C";
paths = (
{
closed = 1;
nodes = (
"288 0 LINE",
"288 16 LINE",
"233 16 OFFCURVE",
"228 34 OFFCURVE",
"242 86 CURVE SMOOTH",
"312 349 LINE",
"313 349 LINE",
"371 70 LINE SMOOTH",
"380 27 OFFCURVE",
"371 16 OFFCURVE",
"330 16 CURVE",
"330 0 LINE",
"644 0 LINE",
"645 16 LINE",
"612 16 OFFCURVE",
"606 25 OFFCURVE",
"597 63 CURVE SMOOTH",
"488 502 LINE",
"478 470 LINE",
"529 513 OFFCURVE",
"563 541 OFFCURVE",
"618 593 CURVE SMOOTH",
"688 658 OFFCURVE",
"719 664 OFFCURVE",
"768 664 CURVE",
"768 680 LINE",
"535 680 LINE",
"535 664 LINE",
"618 664 OFFCURVE",
"641 648 OFFCURVE",
"512 533 CURVE SMOOTH",
"449 477 OFFCURVE",
"377 416 OFFCURVE",
"319 370 CURVE",
"318 370 LINE",
"378 594 LINE SMOOTH",
"392 646 OFFCURVE",
"412 664 OFFCURVE",
"468 664 CURVE",
"468 680 LINE",
"130 680 LINE",
"130 664 LINE",
"186 664 OFFCURVE",
"196 646 OFFCURVE",
"182 594 CURVE SMOOTH",
"46 86 LINE SMOOTH",
"32 34 OFFCURVE",
"12 16 OFFCURVE",
"-44 16 CURVE",
"-44 0 LINE"
);
}
);
width = 679;
},
{
anchors = (
{
name = bottom;
position = "{220, 0}";
},
{
name = top;
position = "{402, 680}";
}
);
background = {
anchors = (
{
name = bottom;
position = "{296, 0}";
},
{
name = top;
position = "{281, 680}";
}
);
components = (
{
name = Stem;
}
);
hints = (
{
horizontal = 1;
place = "{33, 21}";
target = up;
type = BottomGhost;
},
{
horizontal = 1;
place = "{713, -20}";
target = down;
type = TopGhost;
},
{
place = "{129, 62}";
type = Stem;
}
);
};
hints = (
{
horizontal = 1;
place = "{12, 19}";
type = Stem;
},
{
horizontal = 1;
place = "{372, 21}";
type = Stem;
},
{
horizontal = 1;
place = "{685, 19}";
type = Stem;
},
{
place = "{-4, 667}";
type = Stem;
},
{
place = "{-3, 102}";
type = Stem;
},
{
place = "{218, 102}";
type = Stem;
}
);
layerId = "B3CAC60A-28EB-414C-BF20-F972525BD7DF";
paths = (
{
closed = 1;
nodes = (
"129 0 LINE",
"129 7 LINE",
"83 7 OFFCURVE",
"79 14 OFFCURVE",
"93 66 CURVE SMOOTH",
"172 358 LINE",
"173 358 LINE",
"383 52 LINE SMOOTH",
"410 13 OFFCURVE",
"407 7 OFFCURVE",
"367 7 CURVE",
"367 0 LINE",
"498 0 LINE",
"498 7 LINE",
"465 7 OFFCURVE",
"448 14 OFFCURVE",
"415 62 CURVE SMOOTH",
"194 380 LINE",
"181 361 LINE",
"271 427 OFFCURVE",
"373 503 OFFCURVE",
"469 577 CURVE SMOOTH",
"589 669 OFFCURVE",
"595 673 OFFCURVE",
"635 673 CURVE",
"635 680 LINE",
"508 680 LINE",
"508 673 LINE",
"559 673 OFFCURVE",
"557 656 OFFCURVE",
"465 585 CURVE SMOOTH",
"360 504 OFFCURVE",
"287 448 OFFCURVE",
"174 365 CURVE",
"173 365 LINE",
"240 614 LINE SMOOTH",
"254 666 OFFCURVE",
"261 673 OFFCURVE",
"307 673 CURVE",
"307 680 LINE",
"176 680 LINE",
"176 673 LINE",
"222 673 OFFCURVE",
"225 666 OFFCURVE",
"211 614 CURVE SMOOTH",
"64 66 LINE SMOOTH",
"50 14 OFFCURVE",
"43 7 OFFCURVE",
"-3 7 CURVE",
"-3 0 LINE"
);
}
);
width = 564;
},
{
anchors = (
{
name = bottom;
position = "{276, 0}";
},
{
name = top;
position = "{458, 680}";
}
);
associatedMasterId = "838EFC6A-184F-4DB1-9A1E-77D55F860A0C";
background = {
anchors = (
{
name = bottom;
position = "{326, 0}";
},
{
name = top;
position = "{331, 680}";
}
);
hints = (
{
horizontal = 1;
place = "{-15, 21}";
target = up;
type = BottomGhost;
},
{
horizontal = 1;
place = "{665, -20}";
target = down;
type = TopGhost;
},
{
place = "{266, 160}";
type = Stem;
},
{
place = "{71, 180}";
type = Stem;
}
);
paths = (
{
closed = 1;
nodes = (
"336 0 LINE",
"336 16 LINE",
"281 16 OFFCURVE",
"278 34 OFFCURVE",
"278 86 CURVE SMOOTH",
"278 349 LINE",
"279 349 LINE",
"412 70 LINE SMOOTH",
"433 27 OFFCURVE",
"426 16 OFFCURVE",
"385 16 CURVE",
"385 0 LINE",
"700 0 LINE",
"700 16 LINE",
"667 16 OFFCURVE",
"660 25 OFFCURVE",
"640 63 CURVE SMOOTH",
"413 502 LINE",
"411 470 LINE",
"451 513 OFFCURVE",
"477 541 OFFCURVE",
"519 593 CURVE SMOOTH",
"571 658 OFFCURVE",
"600 664 OFFCURVE",
"649 664 CURVE",
"649 680 LINE",
"416 680 LINE",
"416 664 LINE",
"499 664 OFFCURVE",
"527 648 OFFCURVE",
"429 533 CURVE SMOOTH",
"381 477 OFFCURVE",
"325 416 OFFCURVE",
"279 370 CURVE",
"278 370 LINE",
"278 594 LINE SMOOTH",
"278 646 OFFCURVE",
"290 664 OFFCURVE",
"345 664 CURVE",
"345 680 LINE",
"11 680 LINE",
"11 664 LINE",
"67 664 OFFCURVE",
"82 646 OFFCURVE",
"82 594 CURVE SMOOTH",
"82 86 LINE SMOOTH",
"82 34 OFFCURVE",
"67 16 OFFCURVE",
"11 16 CURVE",
"11 0 LINE"
);
}
);
};
hints = (
{
horizontal = 1;
place = "{0, 21}";
target = up;
type = BottomGhost;
},
{
horizontal = 1;
place = "{680, -20}";
target = down;
type = TopGhost;
},
{
place = "{86, 195}";
type = Stem;
}
);
layerId = "45869CF9-03CF-4B89-B230-BC5A94F9503E";
name = "Jun 24 21, 14:09";
paths = (
{
closed = 1;
nodes = (
"276 0 LINE",
"280 16 LINE",
"245 16 OFFCURVE",
"227 34 OFFCURVE",
"241 86 CURVE SMOOTH",
"306 330 LINE",
"313 330 LINE",
"366 70 LINE SMOOTH",
"375 24 OFFCURVE",
"361 16 OFFCURVE",
"342 16 CURVE SMOOTH",
"334 16 LINE",
"330 0 LINE",
"615 0 LINE",
"619 16 LINE",
"586 16 OFFCURVE",
"581 25 OFFCURVE",
"572 63 CURVE SMOOTH",
"472 466 LINE",
"596 584 LINE SMOOTH",
"656 642 OFFCURVE",
"694 664 OFFCURVE",
"734 664 CURVE SMOOTH",
"745 664 LINE",
"749 680 LINE",
"516 680 LINE",
"512 664 LINE",
"528 664 LINE SMOOTH",
"603 664 OFFCURVE",
"572 591 OFFCURVE",
"480 504 CURVE SMOOTH",
"320 353 LINE",
"312 353 LINE",
"377 594 LINE SMOOTH",
"391 646 OFFCURVE",
"428 664 OFFCURVE",
"463 664 CURVE",
"467 680 LINE",
"133 680 LINE",
"129 664 LINE",
"165 664 OFFCURVE",
"195 646 OFFCURVE",
"181 594 CURVE SMOOTH",
"45 86 LINE SMOOTH",
"31 34 OFFCURVE",
"-9 16 OFFCURVE",
"-45 16 CURVE",
"-49 0 LINE"
);
}
);
width = 679;
}
);
leftKerningGroup = H;
leftMetricsKey = H;
note = K;
rightKerningGroup = K;
unicode = 004B;
},
{
glyphname = L;
lastChange = "2021-06-24 12:11:49 +0000";
layers = (
{
anchors = (
{
name = bottom;
position = "{272, 0}";
},
{
name = center;
position = "{363, 340}";
},
{
name = top;
position = "{454, 680}";
},
{
name = topright;
position = "{698, 680}";
}
);
background = {
anchors = (
{
name = bottom;
position = "{385, 0}";
},
{
name = center;
position = "{479, 340}";
},
{
name = top;
position = "{253, 680}";
},
{
name = topright;
position = "{511, 680}";
}
);
components = (
{
name = Stem;
}
);
hints = (
{
horizontal = 1;
place = "{-15, 21}";
type = Stem;
},
{
horizontal = 1;
place = "{665, -20}";
target = down;
type = TopGhost;
},
{
place = "{71, 181}";
type = Stem;
}
);
paths = (
{
closed = 1;
nodes = (
"83 0 LINE",
"597 0 LINE",
"597 179 LINE",
"581 179 LINE",
"581 72 OFFCURVE",
"546 36 OFFCURVE",
"452 36 CURVE SMOOTH",
"407 36 LINE SMOOTH",
"372 36 OFFCURVE",
"350 43 OFFCURVE",
"350 96 CURVE SMOOTH",
"350 594 LINE SMOOTH",
"350 646 OFFCURVE",
"365 664 OFFCURVE",
"421 664 CURVE",
"421 680 LINE",
"83 680 LINE",
"83 664 LINE",
"139 664 OFFCURVE",
"154 646 OFFCURVE",
"154 594 CURVE SMOOTH",
"154 86 LINE SMOOTH",
"154 34 OFFCURVE",
"139 16 OFFCURVE",
"83 16 CURVE"
);
}
);
};
hints = (
{
horizontal = 1;
place = "{0, 36}";
type = Stem;
},
{
horizontal = 1;
place = "{680, -20}";
target = down;
type = TopGhost;
},
{
place = "{86, 196}";
type = Stem;
}
);
layerId = "838EFC6A-184F-4DB1-9A1E-77D55F860A0C";
paths = (
{
closed = 1;
nodes = (
"-44 0 LINE",
"466 0 LINE",
"514 179 LINE",
"498 179 LINE",
"469 72 OFFCURVE",
"424 36 OFFCURVE",
"330 36 CURVE SMOOTH",
"285 36 LINE SMOOTH",
"250 36 OFFCURVE",
"230 43 OFFCURVE",
"244 96 CURVE SMOOTH",
"378 594 LINE SMOOTH",
"392 646 OFFCURVE",
"412 664 OFFCURVE",
"472 664 CURVE",
"472 680 LINE",
"130 680 LINE",
"130 664 LINE",
"186 664 OFFCURVE",
"196 646 OFFCURVE",
"182 594 CURVE SMOOTH",
"46 86 LINE SMOOTH",
"32 34 OFFCURVE",
"12 16 OFFCURVE",
"-44 16 CURVE"
);
}
);
width = 600;
},
{
anchors = (
{
name = bottom;
position = "{247, 0}";
},
{
name = center;
position = "{338, 340}";
},
{
name = top;
position = "{429, 680}";
},
{
name = topright;
position = "{630, 680}";
}
);
background = {
anchors = (
{
name = bottom;
position = "{324, 0}";
},
{
name = center;
position = "{353, 340}";
},
{
name = top;
position = "{192, 680}";
},
{
name = topright;
position = "{370, 680}";
}
);
components = (
{
name = Stem;
transform = "{1, 0, 0, 1, -1, 0}";
}
);
hints = (
{
horizontal = 1;
place = "{33, 21}";
target = up;
type = BottomGhost;
},
{
horizontal = 1;
place = "{713, -20}";
target = down;
type = TopGhost;
},
{
place = "{129, 62}";
type = Stem;
}
);
paths = (
{
closed = 1;
nodes = (
"127 0 LINE",
"515 0 LINE",
"515 117 LINE",
"505 117 LINE",
"505 12 OFFCURVE",
"485 10 OFFCURVE",
"411 10 CURVE SMOOTH",
"257 10 LINE SMOOTH",
"215 10 OFFCURVE",
"207 14 OFFCURVE",
"207 66 CURVE SMOOTH",
"207 614 LINE SMOOTH",
"207 666 OFFCURVE",
"212 673 OFFCURVE",
"258 673 CURVE",
"258 680 LINE",
"127 680 LINE",
"127 673 LINE",
"173 673 OFFCURVE",
"178 666 OFFCURVE",
"178 614 CURVE SMOOTH",
"178 66 LINE SMOOTH",
"178 14 OFFCURVE",
"173 7 OFFCURVE",
"127 7 CURVE"
);
}
);
};
hints = (
{
horizontal = 1;
place = "{12, 22}";
type = Stem;
},
{
horizontal = 1;
place = "{685, 19}";
type = Stem;
},
{
place = "{-4, 421}";
type = Stem;
},
{
horizontal = 1;
place = "{12, 19}";
type = Stem;
},
{
place = "{218, 102}";
type = Stem;
}
);
layerId = "B3CAC60A-28EB-414C-BF20-F972525BD7DF";
paths = (
{
closed = 1;
nodes = (
"-3 0 LINE",
"384 0 LINE",
"415 117 LINE",
"405 117 LINE",
"377 12 OFFCURVE",
"356 10 OFFCURVE",
"282 10 CURVE SMOOTH",
"128 10 LINE SMOOTH",
"86 10 OFFCURVE",
"79 14 OFFCURVE",
"93 66 CURVE SMOOTH",
"240 614 LINE SMOOTH",
"254 666 OFFCURVE",
"260 673 OFFCURVE",
"309 673 CURVE",
"309 680 LINE",
"176 680 LINE",
"176 673 LINE",
"222 673 OFFCURVE",
"225 666 OFFCURVE",
"211 614 CURVE SMOOTH",
"64 66 LINE SMOOTH",
"51 17 OFFCURVE",
"59 14 OFFCURVE",
"-3 7 CURVE"
);
}
);
width = 542;
}
);
leftKerningGroup = H;
leftMetricsKey = H;
note = L;
rightKerningGroup = L;
unicode = 004C;
},
{
glyphname = Lslash;
lastChange = "2021-06-23 13:35:07 +0000";
layers = (
{
background = {
components = (
{
name = L;
}
);
hints = (
{
horizontal = 1;
place = "{0, 36}";
type = Stem;
},
{
horizontal = 1;
place = "{680, -20}";
target = down;
type = TopGhost;
},
{
place = "{86, 196}";
type = Stem;
}
);
paths = (
{
closed = 1;
nodes = (
"23 254 LINE",
"409 388 LINE",
"398 421 LINE",
"11 287 LINE"
);
}
);
};
hints = (
{
horizontal = 1;
place = "{0, 36}";
type = Stem;
},
{
horizontal = 1;
place = "{680, -20}";
target = down;
type = TopGhost;
},
{
place = "{86, 196}";
type = Stem;
}
);
layerId = "838EFC6A-184F-4DB1-9A1E-77D55F860A0C";
paths = (
{
closed = 1;
nodes = (
"449 0 LINE",
"497 179 LINE",
"481 179 LINE",
"455 81 OFFCURVE",
"378 36 OFFCURVE",
"314 36 CURVE SMOOTH",
"228 36 LINE",
"311 347 LINE",
"429 388 LINE",
"418 421 LINE",
"322 388 LINE",
"377 594 LINE SMOOTH",
"391 646 OFFCURVE",
"431 664 OFFCURVE",
"467 664 CURVE",
"471 680 LINE",
"133 680 LINE",
"129 664 LINE",
"165 664 OFFCURVE",
"195 646 OFFCURVE",
"181 594 CURVE SMOOTH",
"106 313 LINE",
"31 287 LINE",
"43 254 LINE",
"95 272 LINE",
"45 86 LINE SMOOTH",
"31 34 OFFCURVE",
"-9 16 OFFCURVE",
"-45 16 CURVE",
"-49 0 LINE"
);
}
);
width = 528;
},
{
background = {
components = (
{
name = L;
}
);
hints = (
{
horizontal = 1;
place = "{0, 21}";
target = up;
type = BottomGhost;
},
{
horizontal = 1;
place = "{680, -20}";
target = down;
type = TopGhost;
},
{
place = "{96, 29}";
type = Stem;
}
);
paths = (
{
closed = 1;
nodes = (
"16 238 LINE",
"302 372 LINE",
"299 381 LINE",
"12 247 LINE"
);
}
);
};
hints = (
{
horizontal = 1;
place = "{12, 22}";
type = Stem;
},
{
horizontal = 1;
place = "{685, 19}";
type = Stem;
},
{
place = "{-4, 421}";
type = Stem;
},
{
horizontal = 1;
place = "{12, 19}";
type = Stem;
},
{
place = "{218, 102}";
type = Stem;
}
);
layerId = "B3CAC60A-28EB-414C-BF20-F972525BD7DF";
paths = (
{
closed = 1;
nodes = (
"374 0 LINE",
"405 117 LINE",
"395 117 LINE",
"367 12 OFFCURVE",
"347 10 OFFCURVE",
"273 10 CURVE SMOOTH",
"79 10 LINE",
"156 298 LINE",
"314 372 LINE",
"311 381 LINE",
"159 310 LINE",
"240 614 LINE SMOOTH",
"254 666 OFFCURVE",
"261 673 OFFCURVE",
"307 673 CURVE",
"309 680 LINE",
"178 680 LINE",
"176 673 LINE",
"222 673 OFFCURVE",
"225 666 OFFCURVE",
"211 614 CURVE SMOOTH",
"126 295 LINE",
"24 247 LINE",
"28 238 LINE",
"123 282 LINE",
"65 66 LINE SMOOTH",
"51 14 OFFCURVE",
"44 7 OFFCURVE",
"-2 7 CURVE",
"-4 0 LINE"
);
}
);
width = 466;
}
);
leftKerningGroup = H;
note = Lslash;
rightKerningGroup = L;
unicode = 0141;
},
{
glyphname = M;
lastChange = "2021-06-24 14:27:09 +0000";
layers = (
{
anchors = (
{
name = bottom;
position = "{349, 0}";
},
{
name = top;
position = "{531, 680}";
}
);
background = {
anchors = (
{
name = bottom;
position = "{345, 0}";
},
{
name = bottomright;
position = "{743, 0}";
},
{
name = top;
position = "{405, 680}";
}
);
hints = (
{
horizontal = 1;
place = "{-15, 21}";
target = up;
type = BottomGhost;
},
{
horizontal = 1;
place = "{665, -20}";
target = down;
type = TopGhost;
},
{
place = "{71, 20}";
type = Stem;
},
{
place = "{536, 180}";
type = Stem;
}
);
paths = (
{
closed = 1;
nodes = (
"8 0 LINE",
"185 0 LINE",
"185 16 LINE",
"129 16 OFFCURVE",
"114 34 OFFCURVE",
"114 86 CURVE SMOOTH",
"114 573 LINE",
"115 573 LINE",
"318 0 LINE",
"333 0 LINE",
"546 574 LINE",
"547 574 LINE",
"547 86 LINE SMOOTH",
"547 34 OFFCURVE",
"532 16 OFFCURVE",
"476 16 CURVE",
"476 0 LINE",
"814 0 LINE",
"814 16 LINE",
"758 16 OFFCURVE",
"743 34 OFFCURVE",
"743 86 CURVE SMOOTH",
"743 594 LINE SMOOTH",
"743 646 OFFCURVE",
"758 664 OFFCURVE",
"814 664 CURVE",
"814 680 LINE",
"547 680 LINE",
"415 315 LINE",
"413 315 LINE",
"276 680 LINE",
"8 680 LINE",
"8 664 LINE",
"64 664 OFFCURVE",
"79 646 OFFCURVE",
"79 594 CURVE SMOOTH",
"79 86 LINE SMOOTH",
"79 34 OFFCURVE",
"64 16 OFFCURVE",
"8 16 CURVE"
);
}
);
};
hints = (
{
horizontal = 1;
place = "{0, 21}";
target = up;
type = BottomGhost;
},
{
horizontal = 1;
place = "{680, -20}";
target = down;
type = TopGhost;
},
{
place = "{86, 35}";
type = Stem;
},
{
place = "{551, 195}";
type = Stem;
}
);
layerId = "838EFC6A-184F-4DB1-9A1E-77D55F860A0C";
paths = (
{
closed = 1;
nodes = (
"125 0 LINE",
"129 16 LINE",
"93 16 OFFCURVE",
"63 34 OFFCURVE",
"77 86 CURVE SMOOTH",
"203 556 LINE",
"204 556 LINE",
"254 2 LINE",
"269 2 LINE",
"636 574 LINE",
"637 574 LINE",
"506 86 LINE SMOOTH",
"492 34 OFFCURVE",
"452 16 OFFCURVE",
"416 16 CURVE",
"412 0 LINE",
"750 0 LINE",
"754 16 LINE",
"718 16 OFFCURVE",
"688 34 OFFCURVE",
"702 86 CURVE SMOOTH",
"838 594 LINE SMOOTH",
"852 646 OFFCURVE",
"892 664 OFFCURVE",
"928 664 CURVE",
"932 680 LINE",
"668 680 LINE",
"425 299 LINE",
"423 299 LINE",
"383 680 LINE",
"130 680 LINE",
"126 664 LINE",
"162 664 OFFCURVE",
"192 646 OFFCURVE",
"178 594 CURVE SMOOTH",
"42 86 LINE SMOOTH",
"28 34 OFFCURVE",
"-12 16 OFFCURVE",
"-48 16 CURVE",
"-52 0 LINE"
);
}
);
width = 826;
},
{
anchors = (
{
name = bottom;
position = "{332, 0}";
},
{
name = top;
position = "{514, 680}";
}
);
background = {
anchors = (
{
name = bottom;
position = "{376, 0}";
},
{
name = bottomright;
position = "{673, 0}";
},
{
name = top;
position = "{384, 680}";
}
);
hints = (
{
horizontal = 1;
place = "{33, 21}";
target = up;
type = BottomGhost;
},
{
horizontal = 1;
place = "{713, -20}";
target = down;
type = TopGhost;
},
{
place = "{671, 62}";
type = Stem;
}
);
paths = (
{
closed = 1;
nodes = (
"-3 0 LINE",
"109 0 LINE",
"110 7 LINE",
"64 7 OFFCURVE",
"61 14 OFFCURVE",
"75 66 CURVE SMOOTH",
"231 647 LINE",
"232 647 LINE",
"320 0 LINE",
"328 0 LINE",
"762 647 LINE",
"763 647 LINE",
"607 66 LINE SMOOTH",
"593 14 OFFCURVE",
"586 7 OFFCURVE",
"540 7 CURVE",
"539 0 LINE",
"670 0 LINE",
"671 7 LINE",
"625 7 OFFCURVE",
"622 14 OFFCURVE",
"636 66 CURVE SMOOTH",
"783 614 LINE SMOOTH",
"797 666 OFFCURVE",
"804 673 OFFCURVE",
"850 673 CURVE",
"852 680 LINE",
"774 680 LINE",
"346 44 LINE",
"344 44 LINE",
"259 680 LINE",
"179 680 LINE",
"177 673 LINE",
"223 673 OFFCURVE",
"226 666 OFFCURVE",
"212 614 CURVE SMOOTH",
"65 66 LINE SMOOTH",
"51 14 OFFCURVE",
"44 7 OFFCURVE",
"-2 7 CURVE"
);
}
);
};
hints = (
{
horizontal = 1;
place = "{12, 19}";
type = Stem;
},
{
horizontal = 1;
place = "{685, 19}";
type = Stem;
},
{
place = "{-3, 83}";
type = Stem;
},
{
place = "{218, 24}";
type = Stem;
},
{
place = "{539, 102}";
type = Stem;
}
);
layerId = "B3CAC60A-28EB-414C-BF20-F972525BD7DF";
paths = (
{
closed = 1;
nodes = (
"110 0 LINE",
"110 7 LINE",
"64 7 OFFCURVE",
"61 14 OFFCURVE",
"75 66 CURVE SMOOTH",
"230 647 LINE",
"231 647 LINE",
"319 2 LINE",
"324 2 LINE",
"761 647 LINE",
"762 647 LINE",
"607 66 LINE SMOOTH",
"593 14 OFFCURVE",
"586 7 OFFCURVE",
"538 7 CURVE",
"538 0 LINE",
"671 0 LINE",
"671 7 LINE",
"625 7 OFFCURVE",
"622 14 OFFCURVE",
"636 66 CURVE SMOOTH",
"782 614 LINE SMOOTH",
"796 666 OFFCURVE",
"803 673 OFFCURVE",
"851 673 CURVE",
"851 680 LINE",
"772 680 LINE",
"343 46 LINE",
"341 46 LINE",
"255 680 LINE",
"176 680 LINE",
"176 673 LINE",
"222 673 OFFCURVE",
"225 666 OFFCURVE",
"211 614 CURVE SMOOTH",
"65 66 LINE SMOOTH",
"51 14 OFFCURVE",
"43 7 OFFCURVE",
"-3 7 CURVE",
"-3 0 LINE"
);
}
);
width = 789;
},
{
anchors = (
{
name = bottom;
position = "{332, 0}";
},
{
name = top;
position = "{514, 680}";
}
);
associatedMasterId = "B3CAC60A-28EB-414C-BF20-F972525BD7DF";
background = {
anchors = (
{
name = bottom;
position = "{376, 0}";
},
{
name = bottomright;
position = "{673, 0}";
},
{
name = top;
position = "{384, 680}";
}
);
hints = (
{
horizontal = 1;
place = "{33, 21}";
target = up;
type = BottomGhost;
},
{
horizontal = 1;
place = "{713, -20}";
target = down;
type = TopGhost;
},
{
place = "{671, 62}";
type = Stem;
}
);
paths = (
{
closed = 1;
nodes = (
"51 0 LINE",
"163 0 LINE",
"163 7 LINE",
"117 7 OFFCURVE",
"112 14 OFFCURVE",
"112 66 CURVE SMOOTH",
"112 647 LINE",
"113 647 LINE",
"374 0 LINE",
"382 0 LINE",
"643 647 LINE",
"644 647 LINE",
"644 66 LINE SMOOTH",
"644 14 OFFCURVE",
"639 7 OFFCURVE",
"593 7 CURVE",
"593 0 LINE",
"724 0 LINE",
"724 7 LINE",
"678 7 OFFCURVE",
"673 14 OFFCURVE",
"673 66 CURVE SMOOTH",
"673 614 LINE SMOOTH",
"673 666 OFFCURVE",
"678 673 OFFCURVE",
"724 673 CURVE",
"724 680 LINE",
"646 680 LINE",
"389 44 LINE",
"387 44 LINE",
"131 680 LINE",
"51 680 LINE",
"51 673 LINE",
"97 673 OFFCURVE",
"102 666 OFFCURVE",
"102 614 CURVE SMOOTH",
"102 66 LINE SMOOTH",
"102 14 OFFCURVE",
"97 7 OFFCURVE",
"51 7 CURVE"
);
}
);
};
hints = (
{
horizontal = 1;
place = "{12, 19}";
type = Stem;
},
{
horizontal = 1;
place = "{685, 19}";
type = Stem;
},
{
place = "{-3, 83}";
type = Stem;
},
{
place = "{218, 24}";
type = Stem;
},
{
place = "{539, 102}";
type = Stem;
}
);
layerId = "86B96063-5514-4731-8378-7E4890B44B12";
name = "Jun 24 21, 14:12";
paths = (
{
closed = 1;
nodes = (
"108 0 LINE",
"110 7 LINE",
"64 7 OFFCURVE",
"61 14 OFFCURVE",
"75 66 CURVE SMOOTH",
"230 647 LINE",
"231 647 LINE",
"319 2 LINE",
"324 2 LINE",
"761 647 LINE",
"762 647 LINE",
"607 66 LINE SMOOTH",
"593 14 OFFCURVE",
"586 7 OFFCURVE",
"540 7 CURVE",
"538 0 LINE",
"669 0 LINE",
"671 7 LINE",
"625 7 OFFCURVE",
"622 14 OFFCURVE",
"636 66 CURVE SMOOTH",
"782 614 LINE SMOOTH",
"796 666 OFFCURVE",
"803 673 OFFCURVE",
"849 673 CURVE",
"851 680 LINE",
"774 680 LINE",
"343 44 LINE",
"341 44 LINE",
"255 680 LINE",
"178 680 LINE",
"176 673 LINE",
"222 673 OFFCURVE",
"225 666 OFFCURVE",
"211 614 CURVE SMOOTH",
"65 66 LINE SMOOTH",
"51 14 OFFCURVE",
"44 7 OFFCURVE",
"-2 7 CURVE",
"-4 0 LINE"
);
}
);
width = 788;
}
);
leftKerningGroup = H;
leftMetricsKey = H;
note = M;
rightKerningGroup = H;
rightMetricsKey = H;
unicode = 004D;
},
{
glyphname = N;
lastChange = "2021-06-24 14:27:09 +0000";
layers = (
{
anchors = (
{
name = bottom;
position = "{265, 0}";
},
{
name = top;
position = "{447, 680}";
}
);
background = {
anchors = (
{
name = bottom;
position = "{399, 0}";
},
{
name = top;
position = "{399, 680}";
}
);
hints = (
{
horizontal = 1;
place = "{-21, 21}";
target = up;
type = BottomGhost;
},
{
horizontal = 1;
place = "{665, -20}";
target = down;
type = TopGhost;
},
{
place = "{64, 20}";
type = Stem;
},
{
place = "{494, 20}";
type = Stem;
},
{
horizontal = 1;
place = "{-15, 21}";
target = up;
type = BottomGhost;
}
);
paths = (
{
closed = 1;
nodes = (
"635 -6 LINE",
"649 -6 LINE",
"649 594 LINE SMOOTH",
"649 646 OFFCURVE",
"655 664 OFFCURVE",
"715 664 CURVE",
"715 680 LINE",
"545 680 LINE",
"545 664 LINE",
"606 664 OFFCURVE",
"614 646 OFFCURVE",
"614 594 CURVE SMOOTH",
"614 294 LINE",
"640 339 LINE",
"568 339 LINE",
"640 303 LINE",
"335 680 LINE",
"83 680 LINE",
"83 664 LINE",
"129 664 OFFCURVE",
"154 642 OFFCURVE",
"154 574 CURVE SMOOTH",
"154 86 LINE SMOOTH",
"154 34 OFFCURVE",
"139 16 OFFCURVE",
"83 16 CURVE",
"83 0 LINE",
"259 0 LINE",
"259 16 LINE",
"197 16 OFFCURVE",
"189 34 OFFCURVE",
"189 86 CURVE SMOOTH",
"189 548 LINE",
"190 548 LINE"
);
}
);
};
hints = (
{
horizontal = 1;
place = "{-6, 21}";
target = up;
type = BottomGhost;
},
{
horizontal = 1;
place = "{680, -20}";
target = down;
type = TopGhost;
},
{
place = "{79, 35}";
type = Stem;
},
{
place = "{509, 35}";
type = Stem;
},
{
horizontal = 1;
place = "{0, 21}";
target = up;
type = BottomGhost;
}
);
layerId = "838EFC6A-184F-4DB1-9A1E-77D55F860A0C";
paths = (
{
closed = 1;
nodes = (
"516 -6 LINE",
"675 585 LINE SMOOTH",
"691 646 OFFCURVE",
"702 664 OFFCURVE",
"762 664 CURVE",
"762 680 LINE",
"592 680 LINE",
"592 664 LINE",
"653 664 OFFCURVE",
"657 646 OFFCURVE",
"642 594 CURVE SMOOTH",
"547 270 LINE",
"575 295 LINE",
"503 295 LINE",
"568 263 LINE",
"352 680 LINE",
"130 680 LINE",
"130 664 LINE",
"176 664 OFFCURVE",
"194 642 OFFCURVE",
"176 574 CURVE SMOOTH",
"48 95 LINE SMOOTH",
"32 34 OFFCURVE",
"12 16 OFFCURVE",
"-44 16 CURVE",
"-44 0 LINE",
"132 0 LINE",
"132 16 LINE",
"70 16 OFFCURVE",
"67 34 OFFCURVE",
"81 86 CURVE SMOOTH",
"204 548 LINE",
"205 548 LINE",
"502 -6 LINE"
);
}
);
width = 660;
},
{
anchors = (
{
name = bottom;
position = "{246, 0}";
},
{
name = top;
position = "{428, 680}";
}
);
background = {
anchors = (
{
name = bottom;
position = "{301, 0}";
},
{
name = top;
position = "{301, 680}";
}
);
components = (
{
name = Stem;
transform = "{1, 0, 0, 1, 415, 0}";
}
);
hints = (
{
horizontal = 1;
place = "{27, 21}";
target = up;
type = BottomGhost;
},
{
horizontal = 1;
place = "{713, -20}";
target = down;
type = TopGhost;
},
{
horizontal = 1;
place = "{33, 21}";
target = up;
type = BottomGhost;
}
);
paths = (
{
closed = 1;
nodes = (
"513 -6 LINE",
"522 -6 LINE",
"522 614 LINE SMOOTH",
"522 666 OFFCURVE",
"527 673 OFFCURVE",
"573 673 CURVE",
"573 680 LINE",
"461 680 LINE",
"461 673 LINE",
"507 673 OFFCURVE",
"512 666 OFFCURVE",
"512 614 CURVE SMOOTH",
"512 6 LINE",
"519 51 LINE",
"488 51 LINE",
"521 36 LINE",
"101 680 LINE",
"29 680 LINE",
"29 673 LINE",
"75 673 OFFCURVE",
"80 666 OFFCURVE",
"80 614 CURVE SMOOTH",
"80 66 LINE SMOOTH",
"80 14 OFFCURVE",
"75 7 OFFCURVE",
"29 7 CURVE",
"29 0 LINE",
"141 0 LINE",
"141 7 LINE",
"95 7 OFFCURVE",
"90 14 OFFCURVE",
"90 66 CURVE SMOOTH",
"90 639 LINE",
"91 639 LINE"
);
}
);
};
hints = (
{
horizontal = 1;
place = "{6, 21}";
target = up;
type = BottomGhost;
},
{
horizontal = 1;
place = "{685, 19}";
type = Stem;
},
{
place = "{213, 23}";
type = Stem;
},
{
place = "{645, 83}";
type = Stem;
},
{
horizontal = 1;
place = "{12, 19}";
type = Stem;
},
{
place = "{-8, 82}";
type = Stem;
}
);
layerId = "B3CAC60A-28EB-414C-BF20-F972525BD7DF";
paths = (
{
closed = 1;
nodes = (
"489 -6 LINE",
"655 614 LINE SMOOTH",
"669 666 OFFCURVE",
"676 673 OFFCURVE",
"722 673 CURVE",
"722 680 LINE",
"610 680 LINE",
"610 673 LINE",
"656 673 OFFCURVE",
"659 666 OFFCURVE",
"645 614 CURVE SMOOTH",
"482 6 LINE",
"501 42 LINE",
"470 42 LINE",
"495 36 LINE",
"246 680 LINE",
"176 680 LINE",
"176 673 LINE",
"222 673 OFFCURVE",
"227 666 OFFCURVE",
"213 614 CURVE SMOOTH",
"66 66 LINE SMOOTH",
"52 14 OFFCURVE",
"45 7 OFFCURVE",
"-1 7 CURVE",
"-1 0 LINE",
"111 0 LINE",
"111 7 LINE",
"65 7 OFFCURVE",
"62 14 OFFCURVE",
"76 66 CURVE SMOOTH",
"230 639 LINE",
"231 639 LINE",
"480 -6 LINE"
);
}
);
width = 659;
}
);
leftKerningGroup = H;
leftMetricsKey = H;
note = N;
rightKerningGroup = N;
rightMetricsKey = H;
unicode = 004E;
},
{
glyphname = Eng;
lastChange = "2021-06-23 13:35:07 +0000";
layers = (
{
background = {
hints = (
{
horizontal = 1;
place = "{-190, 31}";
type = Stem;
},
{
horizontal = 1;
place = "{0, 21}";
target = up;
type = BottomGhost;
},
{
horizontal = 1;
place = "{680, -20}";
target = down;
type = TopGhost;
},
{
place = "{79, 35}";
type = Stem;
},
{
place = "{509, 35}";
type = Stem;
}
);
paths = (
{
closed = 1;
nodes = (
"445 680 LINE",
"445 664 LINE",
"481 664 OFFCURVE",
"509 646 OFFCURVE",
"509 594 CURVE SMOOTH",
"509 352 LINE",
"508 352 LINE",
"250 680 LINE",
"15 680 LINE",
"15 664 LINE",
"51 664 OFFCURVE",
"79 642 OFFCURVE",
"79 594 CURVE SMOOTH",
"79 86 LINE SMOOTH",
"79 34 OFFCURVE",
"53 16 OFFCURVE",
"17 16 CURVE",
"17 0 LINE",
"178 0 LINE",
"178 16 LINE",
"142 16 OFFCURVE",
"114 34 OFFCURVE",
"114 86 CURVE SMOOTH",
"114 548 LINE",
"115 548 LINE",
"509 22 LINE",
"509 -110 LINE SMOOTH",
"509 -146 OFFCURVE",
"489 -161 OFFCURVE",
"466 -161 CURVE SMOOTH",
"442 -161 OFFCURVE",
"427 -146 OFFCURVE",
"427 -110 CURVE SMOOTH",
"427 -100 LINE SMOOTH",
"427 -68 OFFCURVE",
"421 -39 OFFCURVE",
"383 -39 CURVE SMOOTH",
"353 -39 OFFCURVE",
"332 -58 OFFCURVE",
"332 -93 CURVE SMOOTH",
"332 -148 OFFCURVE",
"385 -190 OFFCURVE",
"451 -190 CURVE SMOOTH",
"502 -190 OFFCURVE",
"544 -157 OFFCURVE",
"544 -100 CURVE SMOOTH",
"544 594 LINE SMOOTH",
"544 646 OFFCURVE",
"570 664 OFFCURVE",
"606 664 CURVE",
"606 680 LINE"
);
}
);
};
hints = (
{
horizontal = 1;
place = "{-6, 21}";
target = up;
type = BottomGhost;
},
{
horizontal = 1;
place = "{680, -20}";
target = down;
type = TopGhost;
},
{
place = "{79, 35}";
type = Stem;
},
{
place = "{509, 35}";
type = Stem;
},
{
horizontal = 1;
place = "{0, 21}";
target = up;
type = BottomGhost;
}
);
layerId = "838EFC6A-184F-4DB1-9A1E-77D55F860A0C";
paths = (
{
closed = 1;
nodes = (
"394 -190 OFFCURVE",
"436 -163 OFFCURVE",
"453 -100 CURVE SMOOTH",
"478 -6 LINE",
"639 594 LINE SMOOTH",
"653 646 OFFCURVE",
"684 664 OFFCURVE",
"720 664 CURVE",
"724 680 LINE",
"563 680 LINE",
"559 664 LINE",
"595 664 OFFCURVE",
"618 646 OFFCURVE",
"604 594 CURVE SMOOTH",
"533 328 LINE",
"532 328 LINE",
"368 680 LINE",
"133 680 LINE",
"129 664 LINE",
"165 664 OFFCURVE",
"187 642 OFFCURVE",
"174 594 CURVE SMOOTH",
"38 86 LINE SMOOTH",
"24 34 OFFCURVE",
"-7 16 OFFCURVE",
"-43 16 CURVE",
"-47 0 LINE",
"114 0 LINE",
"118 16 LINE",
"82 16 OFFCURVE",
"59 34 OFFCURVE",
"73 86 CURVE SMOOTH",
"202 565 LINE",
"203 565 LINE",
"450 24 LINE",
"415 -110 LINE SMOOTH",
"405 -146 OFFCURVE",
"385 -161 OFFCURVE",
"362 -161 CURVE SMOOTH",
"338 -161 OFFCURVE",
"322 -149 OFFCURVE",
"333 -113 CURVE SMOOTH",
"336 -103 LINE SMOOTH",
"346 -71 OFFCURVE",
"343 -39 OFFCURVE",
"305 -39 CURVE SMOOTH",
"275 -39 OFFCURVE",
"253 -54 OFFCURVE",
"244 -89 CURVE SMOOTH",
"230 -146 OFFCURVE",
"274 -190 OFFCURVE",
"343 -190 CURVE SMOOTH"
);
}
);
width = 621;
},
{
background = {
hints = (
{
horizontal = 1;
place = "{-6, 21}";
target = up;
type = BottomGhost;
},
{
horizontal = 1;
place = "{680, -20}";
target = down;
type = TopGhost;
},
{
horizontal = 1;
place = "{0, 21}";
target = up;
type = BottomGhost;
}
);
paths = (
{
closed = 1;
nodes = (
"477 680 LINE",
"477 673 LINE",
"523 673 OFFCURVE",
"528 666 OFFCURVE",
"528 614 CURVE SMOOTH",
"528 51 LINE",
"527 51 LINE",
"117 680 LINE",
"45 680 LINE",
"45 673 LINE",
"91 673 OFFCURVE",
"96 666 OFFCURVE",
"96 614 CURVE SMOOTH",
"96 66 LINE SMOOTH",
"96 14 OFFCURVE",
"91 7 OFFCURVE",
"45 7 CURVE",
"45 0 LINE",
"157 0 LINE",
"157 7 LINE",
"111 7 OFFCURVE",
"106 14 OFFCURVE",
"106 66 CURVE SMOOTH",
"106 639 LINE",
"107 639 LINE",
"528 -1 LINE",
"528 -135 LINE SMOOTH",
"528 -163 OFFCURVE",
"514 -178 OFFCURVE",
"494 -178 CURVE SMOOTH",
"478 -178 OFFCURVE",
"464 -168 OFFCURVE",
"464 -149 CURVE SMOOTH",
"464 -145 LINE SMOOTH",
"464 -134 OFFCURVE",
"462 -124 OFFCURVE",
"449 -124 CURVE SMOOTH",
"438 -124 OFFCURVE",
"431 -130 OFFCURVE",
"431 -142 CURVE SMOOTH",
"431 -167 OFFCURVE",
"461 -190 OFFCURVE",
"490 -190 CURVE SMOOTH",
"518 -190 OFFCURVE",
"538 -169 OFFCURVE",
"538 -134 CURVE SMOOTH",
"538 614 LINE SMOOTH",
"538 666 OFFCURVE",
"543 673 OFFCURVE",
"589 673 CURVE",
"589 680 LINE"
);
}
);
};
hints = (
{
horizontal = 1;
place = "{-178, 24}";
type = Stem;
},
{
horizontal = 1;
place = "{12, 19}";
type = Stem;
},
{
horizontal = 1;
place = "{685, 19}";
type = Stem;
},
{
place = "{-8, 82}";
type = Stem;
},
{
place = "{213, 23}";
type = Stem;
},
{
place = "{339, 44}";
type = Stem;
},
{
place = "{645, 83}";
type = Stem;
}
);
layerId = "B3CAC60A-28EB-414C-BF20-F972525BD7DF";
paths = (
{
closed = 1;
nodes = (
"416 -190 OFFCURVE",
"439 -169 OFFCURVE",
"448 -134 CURVE SMOOTH",
"493 35 LINE",
"648 614 LINE SMOOTH",
"662 666 OFFCURVE",
"669 673 OFFCURVE",
"715 673 CURVE",
"717 680 LINE",
"605 680 LINE",
"603 673 LINE",
"649 673 OFFCURVE",
"652 666 OFFCURVE",
"638 614 CURVE SMOOTH",
"485 44 LINE",
"484 44 LINE",
"242 680 LINE",
"173 680 LINE",
"171 673 LINE",
"217 673 OFFCURVE",
"220 666 OFFCURVE",
"206 614 CURVE SMOOTH",
"59 66 LINE SMOOTH",
"45 14 OFFCURVE",
"39 7 OFFCURVE",
"-7 7 CURVE",
"-9 0 LINE",
"103 0 LINE",
"105 7 LINE",
"59 7 OFFCURVE",
"55 14 OFFCURVE",
"69 66 CURVE SMOOTH",
"224 643 LINE",
"225 643 LINE",
"472 -5 LINE",
"438 -135 LINE SMOOTH",
"431 -163 OFFCURVE",
"412 -178 OFFCURVE",
"392 -178 CURVE SMOOTH",
"376 -178 OFFCURVE",
"365 -169 OFFCURVE",
"370 -150 CURVE SMOOTH",
"371 -146 LINE SMOOTH",
"374 -135 OFFCURVE",
"372 -124 OFFCURVE",
"359 -124 CURVE SMOOTH",
"348 -124 OFFCURVE",
"342 -129 OFFCURVE",
"339 -141 CURVE SMOOTH",
"333 -166 OFFCURVE",
"356 -190 OFFCURVE",
"388 -190 CURVE SMOOTH"
);
}
);
width = 649;
}
);
leftKerningGroup = H;
note = Eng;
rightKerningGroup = N;
unicode = 014A;
},
{
glyphname = O;
lastChange = "2021-06-24 11:46:48 +0000";
layers = (
{
anchors = (
{
name = bottom;
position = "{234, 0}";
},
{
name = center;
position = "{370, 340}";
},
{
name = ogonek;
position = "{508, 10}";
},
{
name = top;
position = "{505, 680}";
},
{
name = topleft;
position = "{187, 680}";
},
{
name = topright;
position = "{823, 680}";
}
);
background = {
anchors = (
{
name = bottom;
position = "{338, 0}";
},
{
name = center;
position = "{338, 340}";
},
{
name = ogonek;
position = "{421, 0}";
},
{
name = top;
position = "{338, 680}";
},
{
name = topleft;
position = "{4, 680}";
},
{
name = topright;
position = "{339, 696}";
}
);
hints = (
{
horizontal = 1;
place = "{-26, 10}";
type = Stem;
},
{
horizontal = 1;
place = "{650, 10}";
type = Stem;
},
{
place = "{12, 200}";
type = Stem;
},
{
place = "{417, 201}";
type = Stem;
}
);
paths = (
{
closed = 1;
nodes = (
"533 -12 OFFCURVE",
"660 134 OFFCURVE",
"660 344 CURVE SMOOTH",
"660 564 OFFCURVE",
"533 696 OFFCURVE",
"339 696 CURVE SMOOTH",
"145 696 OFFCURVE",
"19 558 OFFCURVE",
"19 338 CURVE SMOOTH",
"19 128 OFFCURVE",
"145 -12 OFFCURVE",
"339 -12 CURVE SMOOTH"
);
},
{
closed = 1;
nodes = (
"273 13 OFFCURVE",
"234 88 OFFCURVE",
"234 344 CURVE SMOOTH",
"234 610 OFFCURVE",
"273 671 OFFCURVE",
"339 671 CURVE SMOOTH",
"405 671 OFFCURVE",
"444 604 OFFCURVE",
"444 338 CURVE SMOOTH",
"444 82 OFFCURVE",
"405 13 OFFCURVE",
"339 13 CURVE SMOOTH"
);
},
{
closed = 1;
nodes = (
"517 -11 OFFCURVE",
"691 205 OFFCURVE",
"691 454 CURVE SMOOTH",
"691 598 OFFCURVE",
"610 690 OFFCURVE",
"457 690 CURVE SMOOTH",
"212 690 OFFCURVE",
"38 472 OFFCURVE",
"38 223 CURVE SMOOTH",
"38 80 OFFCURVE",
"119 -11 OFFCURVE",
"271 -11 CURVE SMOOTH"
);
},
{
closed = 1;
nodes = (
"242 14 OFFCURVE",
"221 31 OFFCURVE",
"221 89 CURVE SMOOTH",
"221 243 OFFCURVE",
"331 665 OFFCURVE",
"450 665 CURVE SMOOTH",
"486 665 OFFCURVE",
"507 648 OFFCURVE",
"507 589 CURVE SMOOTH",
"507 434 OFFCURVE",
"398 14 OFFCURVE",
"278 14 CURVE SMOOTH"
);
}
);
};
hints = (
{
horizontal = 1;
place = "{-11, 49}";
type = Stem;
},
{
horizontal = 1;
place = "{640, 50}";
type = Stem;
},
{
place = "{109, 211}";
type = Stem;
},
{
place = "{534, 212}";
type = Stem;
}
);
layerId = "838EFC6A-184F-4DB1-9A1E-77D55F860A0C";
paths = (
{
closed = 1;
nodes = (
"505 -12 OFFCURVE",
"689 183 OFFCURVE",
"689 410 CURVE SMOOTH",
"689 569 OFFCURVE",
"608 691 OFFCURVE",
"434 691 CURVE SMOOTH",
"194 691 OFFCURVE",
"16 480 OFFCURVE",
"16 260 CURVE SMOOTH",
"16 112 OFFCURVE",
"96 -12 OFFCURVE",
"270 -12 CURVE SMOOTH"
);
},
{
closed = 1;
nodes = (
"220 15 OFFCURVE",
"207 92 OFFCURVE",
"207 154 CURVE SMOOTH",
"207 332 OFFCURVE",
"310 664 OFFCURVE",
"430 664 CURVE SMOOTH",
"470 664 OFFCURVE",
"498 628 OFFCURVE",
"498 526 CURVE SMOOTH",
"498 333 OFFCURVE",
"387 15 OFFCURVE",
"275 15 CURVE SMOOTH"
);
}
);
width = 654;
},
{
anchors = (
{
name = bottom;
position = "{228, 0}";
},
{
name = center;
position = "{364, 340}";
},
{
name = ogonek;
position = "{504, 10}";
},
{
name = top;
position = "{500, 680}";
},
{
name = topleft;
position = "{180, 680}";
},
{
name = topright;
position = "{819, 680}";
}
);
background = {
anchors = (
{
name = bottom;
position = "{362, 0}";
},
{
name = center;
position = "{362, 340}";
},
{
name = ogonek;
position = "{442, 0}";
},
{
name = top;
position = "{362, 680}";
},
{
name = topleft;
position = "{78, 680}";
},
{
name = topright;
position = "{363, 696}";
}
);
hints = (
{
horizontal = 1;
place = "{22, 42}";
type = Stem;
},
{
horizontal = 1;
place = "{714, 42}";
type = Stem;
},
{
place = "{69, 65}";
type = Stem;
},
{
place = "{643, 65}";
type = Stem;
}
);
paths = (
{
closed = 1;
nodes = (
"506 -12 OFFCURVE",
"667 107 OFFCURVE",
"667 342 CURVE SMOOTH",
"667 577 OFFCURVE",
"509 696 OFFCURVE",
"363 696 CURVE SMOOTH",
"217 696 OFFCURVE",
"59 577 OFFCURVE",
"59 342 CURVE SMOOTH",
"59 107 OFFCURVE",
"220 -12 OFFCURVE",
"363 -12 CURVE SMOOTH"
);
},
{
closed = 1;
nodes = (
"242 -4 OFFCURVE",
"91 98 OFFCURVE",
"91 341 CURVE SMOOTH",
"91 583 OFFCURVE",
"240 688 OFFCURVE",
"363 688 CURVE SMOOTH",
"486 688 OFFCURVE",
"635 583 OFFCURVE",
"635 341 CURVE SMOOTH",
"635 98 OFFCURVE",
"484 -4 OFFCURVE",
"363 -4 CURVE SMOOTH"
);
}
);
};
hints = (
{
horizontal = 1;
place = "{1, 28}";
type = Stem;
},
{
horizontal = 1;
place = "{686, 28}";
type = Stem;
},
{
place = "{64, 46}";
type = Stem;
},
{
place = "{664, 46}";
type = Stem;
}
);
layerId = "B3CAC60A-28EB-414C-BF20-F972525BD7DF";
paths = (
{
closed = 1;
nodes = (
"507 -12 OFFCURVE",
"676 197 OFFCURVE",
"676 409 CURVE SMOOTH",
"676 568 OFFCURVE",
"583 692 OFFCURVE",
"426 692 CURVE SMOOTH",
"221 692 OFFCURVE",
"51 484 OFFCURVE",
"51 271 CURVE SMOOTH",
"51 114 OFFCURVE",
"146 -12 OFFCURVE",
"300 -12 CURVE SMOOTH"
);
},
{
closed = 1;
nodes = (
"188 -4 OFFCURVE",
"81 92 OFFCURVE",
"81 265 CURVE SMOOTH",
"81 468 OFFCURVE",
"230 684 OFFCURVE",
"425 684 CURVE SMOOTH",
"547 684 OFFCURVE",
"646 589 OFFCURVE",
"646 415 CURVE SMOOTH",
"646 213 OFFCURVE",
"500 -4 OFFCURVE",
"302 -4 CURVE SMOOTH"
);
}
);
width = 668;
},
{
anchors = (
{
name = bottom;
position = "{274, 0}";
},
{
name = center;
position = "{365, 340}";
},
{
name = ogonek;
position = "{547, 10}";
},
{
name = top;
position = "{456, 680}";
},
{
name = topleft;
position = "{138, 680}";
},
{
name = topright;
position = "{774, 680}";
}
);
associatedMasterId = "838EFC6A-184F-4DB1-9A1E-77D55F860A0C";
hints = (
{
horizontal = 1;
place = "{-11, 49}";
type = Stem;
},
{
horizontal = 1;
place = "{640, 50}";
type = Stem;
},
{
place = "{109, 211}";
type = Stem;
},
{
place = "{534, 212}";
type = Stem;
}
);
layerId = "597B86DF-AA85-4CD9-8F3C-E9152FF74BB1";
name = "Mar 29 21, 20:19";
paths = (
{
closed = 1;
nodes = (
"460 -11 OFFCURVE",
"620 116 OFFCURVE",
"674 325 CURVE SMOOTH",
"729 539 OFFCURVE",
"621 690 OFFCURVE",
"442 690 CURVE SMOOTH",
"268 690 OFFCURVE",
"109 561 OFFCURVE",
"55 352 CURVE SMOOTH",
"0 138 OFFCURVE",
"107 -11 OFFCURVE",
"286 -11 CURVE SMOOTH"
);
},
{
closed = 1;
nodes = (
"324 11 OFFCURVE",
"290 55 OFFCURVE",
"266 307 CURVE SMOOTH",
"242 560 OFFCURVE",
"267 623 OFFCURVE",
"335 645 CURVE SMOOTH",
"405 668 OFFCURVE",
"438 618 OFFCURVE",
"462 372 CURVE SMOOTH",
"487 118 OFFCURVE",
"461 56 OFFCURVE",
"393 34 CURVE SMOOTH"
);
}
);
width = 676;
},
{
anchors = (
{
name = bottom;
position = "{274, 0}";
},
{
name = center;
position = "{365, 340}";
},
{
name = ogonek;
position = "{547, 10}";
},
{
name = top;
position = "{456, 680}";
},
{
name = topleft;
position = "{138, 680}";
},
{
name = topright;
position = "{774, 680}";
}
);
associatedMasterId = "838EFC6A-184F-4DB1-9A1E-77D55F860A0C";
background = {
anchors = (
{
name = bottom;
position = "{338, 0}";
},
{
name = center;
position = "{338, 340}";
},
{
name = ogonek;
position = "{421, 0}";
},
{
name = top;
position = "{338, 680}";
},
{
name = topleft;
position = "{4, 680}";
},
{
name = topright;
position = "{339, 696}";
}
);
hints = (
{
horizontal = 1;
place = "{-26, 10}";
type = Stem;
},
{
horizontal = 1;
place = "{650, 10}";
type = Stem;
},
{
place = "{12, 200}";
type = Stem;
},
{
place = "{417, 201}";
type = Stem;
}
);
paths = (
{
closed = 1;
nodes = (
"533 -12 OFFCURVE",
"660 134 OFFCURVE",
"660 344 CURVE SMOOTH",
"660 564 OFFCURVE",
"533 696 OFFCURVE",
"339 696 CURVE SMOOTH",
"145 696 OFFCURVE",
"19 558 OFFCURVE",
"19 338 CURVE SMOOTH",
"19 128 OFFCURVE",
"145 -12 OFFCURVE",
"339 -12 CURVE SMOOTH"
);
},
{
closed = 1;
nodes = (
"273 13 OFFCURVE",
"234 88 OFFCURVE",
"234 344 CURVE SMOOTH",
"234 610 OFFCURVE",
"273 671 OFFCURVE",
"339 671 CURVE SMOOTH",
"405 671 OFFCURVE",
"444 604 OFFCURVE",
"444 338 CURVE SMOOTH",
"444 82 OFFCURVE",
"405 13 OFFCURVE",
"339 13 CURVE SMOOTH"
);
}
);
};
hints = (
{
horizontal = 1;
place = "{-11, 49}";
type = Stem;
},
{
horizontal = 1;
place = "{640, 50}";
type = Stem;
},
{
place = "{109, 211}";
type = Stem;
},
{
place = "{534, 212}";
type = Stem;
}
);
layerId = "098F9F35-9606-42A3-8678-D1C1D4949567";
name = "Jun 24 21, 13:38";
paths = (
{
closed = 1;
nodes = (
"517 -11 OFFCURVE",
"691 205 OFFCURVE",
"691 454 CURVE SMOOTH",
"691 598 OFFCURVE",
"610 690 OFFCURVE",
"457 690 CURVE SMOOTH",
"212 690 OFFCURVE",
"38 472 OFFCURVE",
"38 223 CURVE SMOOTH",
"38 80 OFFCURVE",
"119 -11 OFFCURVE",
"271 -11 CURVE SMOOTH"
);
},
{
closed = 1;
nodes = (
"242 14 OFFCURVE",
"221 31 OFFCURVE",
"221 89 CURVE SMOOTH",
"221 243 OFFCURVE",
"331 665 OFFCURVE",
"450 665 CURVE SMOOTH",
"486 665 OFFCURVE",
"507 648 OFFCURVE",
"507 589 CURVE SMOOTH",
"507 434 OFFCURVE",
"398 14 OFFCURVE",
"278 14 CURVE SMOOTH"
);
}
);
width = 676;
}
);
leftKerningGroup = O;
note = O;
rightKerningGroup = O;
rightMetricsKey = "=|";
unicode = 004F;
},
{
glyphname = Oslash;
lastChange = "2021-06-25 07:27:39 +0000";
layers = (
{
anchors = (
{
name = bottom;
position = "{274, 0}";
},
{
name = top;
position = "{456, 680}";
}
);
background = {
components = (
{
name = O;
},
{
name = O;
}
);
hints = (
{
horizontal = 1;
place = "{-56, 21}";
target = up;
type = BottomGhost;
},
{
horizontal = 1;
place = "{-11, 21}";
target = up;
type = BottomGhost;
},
{
horizontal = 1;
place = "{690, -20}";
target = down;
type = TopGhost;
},
{
horizontal = 1;
place = "{734, -20}";
target = down;
type = TopGhost;
}
);
paths = (
{
closed = 1;
nodes = (
"165 -56 LINE",
"548 734 LINE",
"488 734 LINE",
"104 -56 LINE"
);
}
);
};
components = (
{
name = O;
}
);
hints = (
{
horizontal = 1;
place = "{-56, 21}";
target = up;
type = BottomGhost;
},
{
horizontal = 1;
place = "{-11, 49}";
type = Stem;
},
{
horizontal = 1;
place = "{640, 50}";
type = Stem;
},
{
horizontal = 1;
place = "{734, -20}";
target = down;
type = TopGhost;
},
{
place = "{109, 211}";
type = Stem;
},
{
place = "{534, 212}";
type = Stem;
}
);
layerId = "838EFC6A-184F-4DB1-9A1E-77D55F860A0C";
paths = (
{
closed = 1;
nodes = (
"86 -56 LINE",
"681 734 LINE",
"621 734 LINE",
"25 -56 LINE"
);
}
);
width = 654;
},
{
anchors = (
{
name = bottom;
position = "{290, 0}";
},
{
name = top;
position = "{472, 680}";
}
);
background = {
components = (
{
name = O;
}
);
hints = (
{
horizontal = 1;
place = "{-56, 21}";
target = up;
type = BottomGhost;
},
{
horizontal = 1;
place = "{-11, 21}";
target = up;
type = BottomGhost;
},
{
horizontal = 1;
place = "{690, -20}";
target = down;
type = TopGhost;
},
{
horizontal = 1;
place = "{734, -20}";
target = down;
type = TopGhost;
}
);
paths = (
{
closed = 1;
nodes = (
"108 -56 LINE",
"578 734 LINE",
"565 734 LINE",
"94 -56 LINE"
);
}
);
};
components = (
{
name = O;
}
);
hints = (
{
horizontal = 1;
place = "{-44, 21}";
target = up;
type = BottomGhost;
},
{
horizontal = 1;
place = "{746, -20}";
target = down;
type = TopGhost;
}
);
layerId = "B3CAC60A-28EB-414C-BF20-F972525BD7DF";
paths = (
{
closed = 1;
nodes = (
"28 -56 LINE",
"710 734 LINE",
"697 734 LINE",
"14 -56 LINE"
);
}
);
width = 668;
}
);
leftKerningGroup = O;
leftMetricsKey = O;
note = Oslash;
rightKerningGroup = O;
rightMetricsKey = "=|";
unicode = 00D8;
},
{
glyphname = OE;
lastChange = "2021-06-24 14:27:09 +0000";
layers = (
{
anchors = (
{
name = bottom;
position = "{309, 0}";
},
{
name = top;
position = "{491, 680}";
}
);
background = {
hints = (
{
horizontal = 1;
place = "{0, 36}";
type = Stem;
},
{
horizontal = 1;
place = "{340, 35}";
type = Stem;
},
{
horizontal = 1;
place = "{652, 28}";
type = Stem;
},
{
place = "{27, 202}";
type = Stem;
},
{
place = "{452, 174}";
type = Stem;
}
);
paths = (
{
closed = 1;
nodes = (
"827 0 LINE",
"827 179 LINE",
"811 179 LINE",
"811 81 OFFCURVE",
"746 36 OFFCURVE",
"682 36 CURVE SMOOTH",
"596 36 LINE",
"596 340 LINE",
"667 340 LINE SMOOTH",
"728 340 OFFCURVE",
"740 303 OFFCURVE",
"740 266 CURVE",
"756 266 LINE",
"756 440 LINE",
"740 440 LINE",
"740 391 OFFCURVE",
"723 375 OFFCURVE",
"666 375 CURVE SMOOTH",
"596 375 LINE",
"596 652 LINE",
"653 652 LINE SMOOTH",
"742 652 OFFCURVE",
"776 589 OFFCURVE",
"776 526 CURVE",
"792 526 LINE",
"792 680 LINE",
"331 680 LINE SMOOTH",
"168 680 OFFCURVE",
"-3 589 OFFCURVE",
"-3 331 CURVE SMOOTH",
"-3 55 OFFCURVE",
"160 0 OFFCURVE",
"327 0 CURVE SMOOTH"
);
},
{
closed = 1;
nodes = (
"328 36 LINE SMOOTH",
"224 36 OFFCURVE",
"199 108 OFFCURVE",
"199 295 CURVE SMOOTH",
"199 402 LINE SMOOTH",
"199 580 OFFCURVE",
"254 651 OFFCURVE",
"328 651 CURVE SMOOTH",
"422 651 LINE",
"422 36 LINE"
);
}
);
};
hints = (
{
horizontal = 1;
place = "{-11, 49}";
type = Stem;
},
{
horizontal = 1;
place = "{640, 50}";
type = Stem;
},
{
place = "{109, 211}";
type = Stem;
},
{
place = "{534, 212}";
type = Stem;
},
{
horizontal = 1;
place = "{0, 36}";
type = Stem;
},
{
horizontal = 1;
place = "{340, 35}";
type = Stem;
},
{
horizontal = 1;
place = "{652, 28}";
type = Stem;
},
{
horizontal = 1;
place = "{678, -36}";
type = Stem;
},
{
horizontal = 1;
place = "{27, -29}";
type = Stem;
},
{
place = "{697, -196}";
type = Stem;
},
{
place = "{376, -202}";
type = Stem;
}
);
layerId = "838EFC6A-184F-4DB1-9A1E-77D55F860A0C";
paths = (
{
closed = 1;
nodes = (
"697 0 LINE",
"745 179 LINE",
"729 179 LINE",
"703 81 OFFCURVE",
"626 36 OFFCURVE",
"562 36 CURVE SMOOTH",
"476 36 LINE",
"557 340 LINE",
"628 340 LINE SMOOTH",
"689 340 OFFCURVE",
"691 303 OFFCURVE",
"681 266 CURVE",
"697 266 LINE",
"744 440 LINE",
"728 440 LINE",
"715 391 OFFCURVE",
"693 375 OFFCURVE",
"636 375 CURVE SMOOTH",
"566 375 LINE",
"641 652 LINE",
"698 652 LINE SMOOTH",
"787 652 OFFCURVE",
"804 589 OFFCURVE",
"787 526 CURVE",
"803 526 LINE",
"844 680 LINE",
"414 680 LINE SMOOTH",
"247 680 OFFCURVE",
"92 595 OFFCURVE",
"23 339 CURVE SMOOTH",
"-45 84 OFFCURVE",
"107 0 OFFCURVE",
"226 0 CURVE SMOOTH"
);
},
{
closed = 1;
nodes = (
"191 29 OFFCURVE",
"165 88 OFFCURVE",
"225 328 CURVE SMOOTH",
"232 356 LINE SMOOTH",
"297 615 OFFCURVE",
"364 644 OFFCURVE",
"415 644 CURVE SMOOTH",
"440 644 LINE",
"277 29 LINE",
"256 29 LINE SMOOTH"
);
}
);
width = 788;
},
{
anchors = (
{
name = bottom;
position = "{292, 0}";
},
{
name = top;
position = "{474, 680}";
}
);
background = {
hints = (
{
horizontal = 1;
place = "{0, 21}";
target = up;
type = BottomGhost;
},
{
horizontal = 1;
place = "{680, -20}";
target = down;
type = TopGhost;
},
{
place = "{96, 29}";
type = Stem;
},
{
place = "{496, 29}";
type = Stem;
},
{
place = "{539, 35}";
type = Stem;
}
);
paths = (
{
closed = 1;
nodes = (
"797 0 LINE",
"797 117 LINE",
"787 117 LINE",
"787 9 OFFCURVE",
"761 10 OFFCURVE",
"687 10 CURVE SMOOTH",
"495 10 LINE",
"495 356 LINE",
"647 356 LINE SMOOTH",
"705 356 OFFCURVE",
"717 350 OFFCURVE",
"717 298 CURVE",
"726 298 LINE",
"726 419 LINE",
"717 419 LINE",
"717 372 OFFCURVE",
"706 364 OFFCURVE",
"646 364 CURVE SMOOTH",
"495 364 LINE",
"495 671 LINE",
"653 671 LINE SMOOTH",
"742 671 OFFCURVE",
"752 658 OFFCURVE",
"752 585 CURVE",
"762 585 LINE",
"762 680 LINE",
"336 680 LINE SMOOTH",
"172 680 OFFCURVE",
"15 587 OFFCURVE",
"15 329 CURVE SMOOTH",
"15 54 OFFCURVE",
"209 0 OFFCURVE",
"325 0 CURVE SMOOTH"
);
},
{
closed = 1;
nodes = (
"337 10 LINE SMOOTH",
"216 10 OFFCURVE",
"50 71 OFFCURVE",
"50 318 CURVE SMOOTH",
"50 355 LINE SMOOTH",
"50 579 OFFCURVE",
"185 673 OFFCURVE",
"337 671 CURVE SMOOTH",
"466 671 LINE",
"466 10 LINE"
);
}
);
};
hints = (
{
horizontal = 1;
place = "{1, 28}";
type = Stem;
},
{
horizontal = 1;
place = "{686, 28}";
type = Stem;
},
{
place = "{64, 46}";
type = Stem;
},
{
place = "{664, 46}";
type = Stem;
},
{
horizontal = 1;
place = "{12, 22}";
type = Stem;
},
{
horizontal = 1;
place = "{368, 20}";
type = Stem;
},
{
horizontal = 1;
place = "{683, 21}";
type = Stem;
},
{
place = "{897, 50}";
type = Stem;
},
{
place = "{1178, 38}";
type = Stem;
},
{
horizontal = 1;
place = "{12, 19}";
type = Stem;
},
{
horizontal = 1;
place = "{692, 5}";
type = Stem;
},
{
horizontal = 1;
place = "{21, 3}";
type = Stem;
},
{
place = "{602, -26}";
type = Stem;
},
{
place = "{216, -19}";
type = Stem;
}
);
layerId = "B3CAC60A-28EB-414C-BF20-F972525BD7DF";
paths = (
{
closed = 1;
nodes = (
"746 0 LINE",
"777 117 LINE",
"767 117 LINE",
"738 9 OFFCURVE",
"713 10 OFFCURVE",
"639 10 CURVE SMOOTH",
"447 10 LINE",
"539 356 LINE",
"691 356 LINE SMOOTH",
"749 356 OFFCURVE",
"760 350 OFFCURVE",
"746 298 CURVE",
"755 298 LINE",
"787 419 LINE",
"778 419 LINE",
"766 372 OFFCURVE",
"752 364 OFFCURVE",
"692 364 CURVE SMOOTH",
"541 364 LINE",
"624 671 LINE",
"782 671 LINE SMOOTH",
"871 671 OFFCURVE",
"877 658 OFFCURVE",
"858 585 CURVE",
"868 585 LINE",
"893 680 LINE",
"469 680 LINE SMOOTH",
"305 680 OFFCURVE",
"124 599 OFFCURVE",
"55 341 CURVE SMOOTH",
"-19 66 OFFCURVE",
"160 0 OFFCURVE",
"276 0 CURVE SMOOTH"
);
},
{
closed = 1;
nodes = (
"169 9 OFFCURVE",
"18 76 OFFCURVE",
"86 324 CURVE SMOOTH",
"95 357 LINE SMOOTH",
"156 581 OFFCURVE",
"316 673 OFFCURVE",
"468 673 CURVE SMOOTH",
"595 673 LINE",
"417 9 LINE",
"290 9 LINE SMOOTH"
);
}
);
width = 931;
}
);
leftMetricsKey = O;
note = OE;
rightMetricsKey = E;
unicode = 0152;
},
{
glyphname = P;
lastChange = "2021-06-24 14:27:09 +0000";
layers = (
{
anchors = (
{
name = bottom;
position = "{264, 0}";
},
{
name = top;
position = "{446, 680}";
}
);
background = {
anchors = (
{
name = bottom;
position = "{346, 0}";
},
{
name = top;
position = "{346, 680}";
}
);
components = (
{
name = Stem;
}
);
hints = (
{
horizontal = 1;
place = "{-15, 21}";
target = up;
type = BottomGhost;
},
{
horizontal = 1;
place = "{290, 6}";
type = Stem;
},
{
horizontal = 1;
place = "{626, 24}";
type = Stem;
},
{
place = "{71, 181}";
type = Stem;
},
{
place = "{367, 170}";
type = Stem;
}
);
paths = (
{
closed = 1;
nodes = (
"372 305 OFFCURVE",
"391 301 OFFCURVE",
"424 301 CURVE SMOOTH",
"573 301 OFFCURVE",
"665 375 OFFCURVE",
"665 493 CURVE SMOOTH",
"665 619 OFFCURVE",
"555 680 OFFCURVE",
"390 680 CURVE SMOOTH",
"83 680 LINE",
"83 664 LINE",
"139 664 OFFCURVE",
"154 646 OFFCURVE",
"154 594 CURVE SMOOTH",
"154 86 LINE SMOOTH",
"154 34 OFFCURVE",
"139 16 OFFCURVE",
"83 16 CURVE",
"83 0 LINE",
"432 0 LINE",
"432 16 LINE",
"365 16 OFFCURVE",
"350 34 OFFCURVE",
"350 86 CURVE SMOOTH",
"350 647 LINE",
"378 647 LINE SMOOTH",
"440 647 OFFCURVE",
"470 600 OFFCURVE",
"470 484 CURVE SMOOTH",
"470 346 OFFCURVE",
"423 326 OFFCURVE",
"387 326 CURVE SMOOTH",
"380 326 OFFCURVE",
"371 326 OFFCURVE",
"363 328 CURVE",
"363 307 LINE"
);
}
);
};
hints = (
{
horizontal = 1;
place = "{0, 21}";
target = up;
type = BottomGhost;
},
{
horizontal = 1;
place = "{305, 21}";
type = Stem;
},
{
horizontal = 1;
place = "{641, 39}";
type = Stem;
}
);
layerId = "838EFC6A-184F-4DB1-9A1E-77D55F860A0C";
paths = (
{
closed = 1;
nodes = (
"305 0 LINE",
"305 16 LINE",
"243 16 OFFCURVE",
"226 28 OFFCURVE",
"242 86 CURVE SMOOTH",
"398 668 LINE",
"347 647 LINE",
"400 647 LINE SMOOTH",
"462 647 OFFCURVE",
"483 599 OFFCURVE",
"483 542 CURVE SMOOTH",
"483 456 OFFCURVE",
"434 326 OFFCURVE",
"343 326 CURVE SMOOTH",
"335 326 OFFCURVE",
"326 327 OFFCURVE",
"319 328 CURVE",
"314 307 LINE",
"322 305 OFFCURVE",
"349 301 OFFCURVE",
"382 301 CURVE SMOOTH",
"540 301 OFFCURVE",
"674 385 OFFCURVE",
"674 522 CURVE SMOOTH",
"674 641 OFFCURVE",
"569 680 OFFCURVE",
"412 680 CURVE SMOOTH",
"130 680 LINE",
"130 664 LINE",
"185 664 OFFCURVE",
"196 647 OFFCURVE",
"182 594 CURVE SMOOTH",
"46 86 LINE SMOOTH",
"32 34 OFFCURVE",
"12 16 OFFCURVE",
"-44 16 CURVE",
"-44 0 LINE"
);
}
);
width = 651;
},
{
anchors = (
{
name = bottom;
position = "{239, 0}";
},
{
name = top;
position = "{370, 680}";
}
);
background = {
anchors = (
{
name = bottom;
position = "{340, 0}";
},
{
name = top;
position = "{340, 680}";
}
);
components = (
{
name = Stem;
}
);
hints = (
{
horizontal = 1;
place = "{33, 21}";
target = up;
type = BottomGhost;
},
{
horizontal = 1;
place = "{713, -20}";
target = down;
type = TopGhost;
},
{
place = "{129, 62}";
type = Stem;
},
{
place = "{462, 65}";
type = Stem;
}
);
paths = (
{
closed = 1;
nodes = (
"256 306 OFFCURVE",
"281 304 OFFCURVE",
"304 304 CURVE SMOOTH",
"460 304 OFFCURVE",
"543 379 OFFCURVE",
"543 502 CURVE SMOOTH",
"543 623 OFFCURVE",
"454 680 OFFCURVE",
"310 680 CURVE SMOOTH",
"127 680 LINE",
"127 673 LINE",
"173 673 OFFCURVE",
"178 666 OFFCURVE",
"178 614 CURVE SMOOTH",
"178 66 LINE SMOOTH",
"178 14 OFFCURVE",
"173 7 OFFCURVE",
"127 7 CURVE",
"127 0 LINE",
"263 0 LINE",
"263 7 LINE",
"211 7 OFFCURVE",
"207 14 OFFCURVE",
"207 66 CURVE SMOOTH",
"207 671 LINE",
"309 671 LINE SMOOTH",
"445 671 OFFCURVE",
"511 613 OFFCURVE",
"511 498 CURVE SMOOTH",
"511 394 OFFCURVE",
"446 312 OFFCURVE",
"300 312 CURVE SMOOTH",
"277 312 OFFCURVE",
"256 314 OFFCURVE",
"235 318 CURVE",
"235 310 LINE"
);
}
);
};
hints = (
{
horizontal = 1;
place = "{12, 19}";
type = Stem;
},
{
horizontal = 1;
place = "{318, 20}";
type = Stem;
},
{
horizontal = 1;
place = "{683, 21}";
type = Stem;
},
{
place = "{-3, 102}";
type = Stem;
},
{
place = "{218, 50}";
type = Stem;
},
{
place = "{519, 45}";
type = Stem;
}
);
layerId = "B3CAC60A-28EB-414C-BF20-F972525BD7DF";
paths = (
{
closed = 1;
nodes = (
"133 0 LINE",
"133 7 LINE",
"85 7 OFFCURVE",
"79 12 OFFCURVE",
"93 66 CURVE SMOOTH",
"256 674 LINE",
"210 671 LINE",
"352 671 LINE SMOOTH",
"462 671 OFFCURVE",
"522 621 OFFCURVE",
"522 526 CURVE SMOOTH",
"522 395 OFFCURVE",
"409 312 OFFCURVE",
"255 312 CURVE SMOOTH",
"232 312 OFFCURVE",
"209 314 OFFCURVE",
"189 318 CURVE",
"187 310 LINE",
"207 306 OFFCURVE",
"234 304 OFFCURVE",
"257 304 CURVE SMOOTH",
"422 304 OFFCURVE",
"554 387 OFFCURVE",
"554 522 CURVE SMOOTH",
"554 627 OFFCURVE",
"474 680 OFFCURVE",
"353 680 CURVE SMOOTH",
"176 680 LINE",
"176 673 LINE",
"221 673 OFFCURVE",
"225 667 OFFCURVE",
"211 614 CURVE SMOOTH",
"64 66 LINE SMOOTH",
"50 14 OFFCURVE",
"43 7 OFFCURVE",
"-3 7 CURVE",
"-3 0 LINE"
);
}
);
width = 601;
}
);
leftKerningGroup = H;
leftMetricsKey = H;
note = P;
rightKerningGroup = P;
unicode = 0050;
},
{
glyphname = Thorn;
lastChange = "2021-06-24 14:24:20 +0000";
layers = (
{
anchors = (
{
name = bottom;
position = "{260, 0}";
},
{
name = top;
position = "{442, 680}";
}
);
background = {
hints = (
{
horizontal = 1;
place = "{-15, 171}";
type = Stem;
},
{
horizontal = 1;
place = "{486, 24}";
type = Stem;
},
{
place = "{71, 181}";
type = Stem;
},
{
place = "{357, 170}";
type = Stem;
},
{
horizontal = 1;
place = "{150, 6}";
type = Stem;
},
{
horizontal = 1;
place = "{486, 164}";
type = Stem;
}
);
paths = (
{
closed = 1;
nodes = (
"171 0 LINE",
"509 0 LINE",
"509 16 LINE",
"473 16 OFFCURVE",
"438 34 OFFCURVE",
"438 86 CURVE SMOOTH",
"438 165 LINE",
"470 165 LINE SMOOTH",
"626 165 OFFCURVE",
"725 234 OFFCURVE",
"725 354 CURVE SMOOTH",
"725 478 OFFCURVE",
"619 540 OFFCURVE",
"454 540 CURVE SMOOTH",
"438 540 LINE",
"438 594 LINE SMOOTH",
"438 646 OFFCURVE",
"473 664 OFFCURVE",
"509 664 CURVE",
"509 680 LINE",
"171 680 LINE",
"171 664 LINE",
"207 664 OFFCURVE",
"242 646 OFFCURVE",
"242 594 CURVE SMOOTH",
"242 86 LINE SMOOTH",
"242 34 OFFCURVE",
"207 16 OFFCURVE",
"171 16 CURVE"
);
},
{
closed = 1;
nodes = (
"438 198 LINE",
"438 505 LINE",
"453 505 LINE SMOOTH",
"508 505 OFFCURVE",
"540 456 OFFCURVE",
"540 345 CURVE SMOOTH",
"540 225 OFFCURVE",
"499 198 OFFCURVE",
"454 198 CURVE SMOOTH"
);
}
);
};
components = (
{
name = Stem;
transform = "{1, 0, 0, 1, 55, 0}";
}
);
hints = (
{
horizontal = 1;
place = "{0, 186}";
type = Stem;
},
{
horizontal = 1;
place = "{501, 39}";
type = Stem;
},
{
place = "{86, 196}";
type = Stem;
},
{
place = "{372, 185}";
type = Stem;
},
{
horizontal = 1;
place = "{165, 21}";
type = Stem;
},
{
horizontal = 1;
place = "{501, 179}";
type = Stem;
},
{
horizontal = 1;
place = "{0, 21}";
target = up;
type = BottomGhost;
},
{
horizontal = 1;
place = "{305, 21}";
type = Stem;
},
{
horizontal = 1;
place = "{641, 39}";
type = Stem;
}
);
layerId = "838EFC6A-184F-4DB1-9A1E-77D55F860A0C";
paths = (
{
closed = 1;
nodes = (
"424 507 LINE SMOOTH",
"486 507 OFFCURVE",
"507 459 OFFCURVE",
"507 402 CURVE SMOOTH",
"507 316 OFFCURVE",
"458 186 OFFCURVE",
"367 186 CURVE SMOOTH",
"359 186 OFFCURVE",
"350 187 OFFCURVE",
"343 188 CURVE",
"338 167 LINE",
"346 165 OFFCURVE",
"373 161 OFFCURVE",
"406 161 CURVE SMOOTH",
"564 161 OFFCURVE",
"698 245 OFFCURVE",
"698 382 CURVE SMOOTH",
"698 501 OFFCURVE",
"593 540 OFFCURVE",
"426 540 CURVE SMOOTH",
"373 540 LINE",
"355 507 LINE"
);
}
);
width = 1015;
},
{
anchors = (
{
name = bottom;
position = "{238, 0}";
},
{
name = top;
position = "{369, 680}";
}
);
background = {
hints = (
{
horizontal = 1;
place = "{33, 21}";
target = up;
type = BottomGhost;
},
{
horizontal = 1;
place = "{713, -20}";
target = down;
type = TopGhost;
},
{
place = "{129, 62}";
type = Stem;
},
{
place = "{462, 65}";
type = Stem;
}
);
paths = (
{
closed = 1;
nodes = (
"51 0 LINE",
"187 0 LINE",
"187 7 LINE",
"135 7 OFFCURVE",
"131 14 OFFCURVE",
"131 66 CURVE SMOOTH",
"131 186 LINE",
"222 186 LINE SMOOTH",
"378 186 OFFCURVE",
"467 253 OFFCURVE",
"467 376 CURVE SMOOTH",
"467 497 OFFCURVE",
"382 560 OFFCURVE",
"236 560 CURVE SMOOTH",
"131 560 LINE",
"131 614 LINE SMOOTH",
"131 666 OFFCURVE",
"136 673 OFFCURVE",
"182 673 CURVE",
"182 680 LINE",
"51 680 LINE",
"51 673 LINE",
"97 673 OFFCURVE",
"102 666 OFFCURVE",
"102 614 CURVE SMOOTH",
"102 66 LINE SMOOTH",
"102 14 OFFCURVE",
"97 7 OFFCURVE",
"51 7 CURVE"
);
},
{
closed = 1;
nodes = (
"131 194 LINE",
"131 551 LINE",
"233 551 LINE SMOOTH",
"371 551 OFFCURVE",
"435 481 OFFCURVE",
"435 372 CURVE SMOOTH",
"435 256 OFFCURVE",
"358 194 OFFCURVE",
"222 194 CURVE SMOOTH"
);
}
);
};
components = (
{
name = Stem;
transform = "{1, 0, 0, 1, -10, 0}";
}
);
hints = (
{
horizontal = 1;
place = "{12, 21}";
target = up;
type = BottomGhost;
},
{
horizontal = 1;
place = "{692, -20}";
target = down;
type = TopGhost;
},
{
place = "{108, 41}";
type = Stem;
},
{
place = "{441, 44}";
type = Stem;
},
{
horizontal = 1;
place = "{12, 19}";
type = Stem;
},
{
horizontal = 1;
place = "{318, 20}";
type = Stem;
},
{
horizontal = 1;
place = "{683, 21}";
type = Stem;
},
{
place = "{-3, 102}";
type = Stem;
},
{
place = "{218, 50}";
type = Stem;
},
{
place = "{519, 45}";
type = Stem;
}
);
layerId = "B3CAC60A-28EB-414C-BF20-F972525BD7DF";
paths = (
{
closed = 1;
nodes = (
"321 551 LINE SMOOTH",
"431 551 OFFCURVE",
"492 501 OFFCURVE",
"492 406 CURVE SMOOTH",
"492 275 OFFCURVE",
"379 192 OFFCURVE",
"225 192 CURVE SMOOTH",
"202 192 OFFCURVE",
"179 194 OFFCURVE",
"159 198 CURVE",
"157 190 LINE",
"177 186 OFFCURVE",
"204 184 OFFCURVE",
"227 184 CURVE SMOOTH",
"392 184 OFFCURVE",
"524 267 OFFCURVE",
"524 402 CURVE SMOOTH",
"524 507 OFFCURVE",
"445 560 OFFCURVE",
"324 560 CURVE SMOOTH",
"196 560 LINE",
"195 551 LINE"
);
}
);
width = 846;
}
);
note = Thorn;
unicode = 00DE;
},
{
glyphname = Q;
lastChange = "2021-06-24 14:27:09 +0000";
layers = (
{
anchors = (
{
name = bottom;
position = "{274, 0}";
},
{
name = top;
position = "{456, 680}";
}
);
background = {
components = (
{
name = O;
}
);
hints = (
{
horizontal = 1;
place = "{-177, 121}";
type = Stem;
},
{
horizontal = 1;
place = "{675, -20}";
target = down;
type = TopGhost;
}
);
paths = (
{
closed = 1;
nodes = (
"262 -9 OFFCURVE",
"236 -65 OFFCURVE",
"229 -120 CURVE",
"243 -120 LINE",
"281 -69 OFFCURVE",
"409 -162 OFFCURVE",
"511 -162 CURVE SMOOTH",
"603 -162 OFFCURVE",
"629 -66 OFFCURVE",
"646 16 CURVE",
"631 16 LINE",
"618 -18 OFFCURVE",
"596 -26 OFFCURVE",
"574 -26 CURVE SMOOTH",
"525 -26 OFFCURVE",
"437 -11 OFFCURVE",
"376 -4 CURVE",
"306 -5 LINE"
);
}
);
};
components = (
{
name = O;
}
);
hints = (
{
horizontal = 1;
place = "{22, -20}";
target = down;
type = TopGhost;
},
{
horizontal = 1;
place = "{640, 50}";
type = Stem;
},
{
place = "{109, 211}";
type = Stem;
},
{
place = "{534, 212}";
type = Stem;
},
{
horizontal = 1;
place = "{-166, 182}";
type = Stem;
}
);
layerId = "838EFC6A-184F-4DB1-9A1E-77D55F860A0C";
paths = (
{
closed = 1;
nodes = (
"182 -9 OFFCURVE",
"156 -65 OFFCURVE",
"149 -120 CURVE",
"163 -120 LINE",
"201 -69 OFFCURVE",
"329 -162 OFFCURVE",
"431 -162 CURVE SMOOTH",
"523 -162 OFFCURVE",
"549 -66 OFFCURVE",
"566 16 CURVE",
"551 16 LINE",
"538 -18 OFFCURVE",
"516 -26 OFFCURVE",
"494 -26 CURVE SMOOTH",
"445 -26 OFFCURVE",
"357 -11 OFFCURVE",
"296 -4 CURVE",
"226 -5 LINE"
);
}
);
width = 654;
},
{
anchors = (
{
name = bottom;
position = "{290, 0}";
},
{
name = top;
position = "{472, 680}";
}
);
background = {
components = (
{
name = O;
}
);
hints = (
{
horizontal = 1;
place = "{-69, 133}";
type = Stem;
},
{
horizontal = 1;
place = "{723, -20}";
target = down;
type = TopGhost;
},
{
horizontal = 1;
place = "{-69, 65}";
type = Stem;
}
);
paths = (
{
closed = 1;
nodes = (
"322 -11 OFFCURVE",
"299 -27 OFFCURVE",
"287 -62 CURVE",
"294 -62 LINE",
"346 64 OFFCURVE",
"474 -104 OFFCURVE",
"592 -104 CURVE SMOOTH",
"645 -104 OFFCURVE",
"681 -56 OFFCURVE",
"694 14 CURVE",
"688 14 LINE",
"673 -36 OFFCURVE",
"651 -72 OFFCURVE",
"601 -72 CURVE SMOOTH",
"552 -72 OFFCURVE",
"457 -22 OFFCURVE",
"398 -7 CURVE",
"351 -5 LINE"
);
}
);
};
components = (
{
name = O;
}
);
hints = (
{
horizontal = 1;
place = "{-90, 44}";
type = Stem;
},
{
horizontal = 1;
place = "{1, 28}";
type = Stem;
},
{
horizontal = 1;
place = "{686, 28}";
type = Stem;
},
{
place = "{65, 45}";
type = Stem;
},
{
place = "{664, 46}";
type = Stem;
},
{
horizontal = 1;
place = "{7, 22}";
type = Stem;
},
{
horizontal = 1;
place = "{-1, 30}";
type = Stem;
}
);
layerId = "B3CAC60A-28EB-414C-BF20-F972525BD7DF";
paths = (
{
closed = 1;
nodes = (
"232 -11 OFFCURVE",
"209 -27 OFFCURVE",
"197 -62 CURVE",
"204 -62 LINE",
"256 64 OFFCURVE",
"384 -104 OFFCURVE",
"502 -104 CURVE SMOOTH",
"555 -104 OFFCURVE",
"591 -56 OFFCURVE",
"604 14 CURVE",
"598 14 LINE",
"583 -36 OFFCURVE",
"561 -72 OFFCURVE",
"511 -72 CURVE SMOOTH",
"462 -72 OFFCURVE",
"367 -22 OFFCURVE",
"308 -7 CURVE",
"261 -5 LINE"
);
}
);
width = 688;
}
);
leftKerningGroup = O;
leftMetricsKey = O;
note = Q;
rightKerningGroup = O;
rightMetricsKey = O;
unicode = 0051;
},
{
glyphname = R;
lastChange = "2021-06-24 14:27:09 +0000";
layers = (
{
anchors = (
{
name = bottom;
position = "{274, 0}";
},
{
name = top;
position = "{456, 680}";
}
);
background = {
anchors = (
{
name = bottom;
position = "{331, 0}";
},
{
name = top;
position = "{331, 680}";
}
);
hints = (
{
horizontal = 1;
place = "{-15, 21}";
target = up;
type = BottomGhost;
},
{
horizontal = 1;
place = "{325, 20}";
type = Stem;
},
{
horizontal = 1;
place = "{629, 21}";
type = Stem;
},
{
place = "{71, 181}";
type = Stem;
},
{
place = "{372, 179}";
type = Stem;
},
{
place = "{372, 164}";
type = Stem;
}
);
};
hints = (
{
horizontal = 1;
place = "{0, 21}";
target = up;
type = BottomGhost;
},
{
horizontal = 1;
place = "{340, 35}";
type = Stem;
},
{
horizontal = 1;
place = "{644, 36}";
type = Stem;
}
);
layerId = "838EFC6A-184F-4DB1-9A1E-77D55F860A0C";
paths = (
{
closed = 1;
nodes = (
"294 0 LINE",
"294 16 LINE",
"239 16 OFFCURVE",
"228 33 OFFCURVE",
"242 86 CURVE SMOOTH",
"399 674 LINE",
"346 645 LINE",
"420 645 LINE SMOOTH",
"452 645 OFFCURVE",
"487 630 OFFCURVE",
"487 561 CURVE SMOOTH",
"487 479 OFFCURVE",
"438 375 OFFCURVE",
"344 375 CURVE SMOOTH",
"310 375 LINE",
"301 340 LINE",
"335 340 LINE SMOOTH",
"393 340 OFFCURVE",
"417 315 OFFCURVE",
"406 258 CURVE SMOOTH",
"377 113 LINE SMOOTH",
"369 75 OFFCURVE",
"363 32 OFFCURVE",
"374 0 CURVE",
"610 0 LINE",
"610 16 LINE",
"558 16 OFFCURVE",
"558 58 OFFCURVE",
"578 136 CURVE SMOOTH",
"590 184 LINE SMOOTH",
"624 319 OFFCURVE",
"529 347 OFFCURVE",
"387 366 CURVE",
"430 336 LINE",
"430 388 LINE",
"391 362 LINE",
"541 365 OFFCURVE",
"683 424 OFFCURVE",
"683 543 CURVE SMOOTH",
"683 639 OFFCURVE",
"591 680 OFFCURVE",
"425 680 CURVE SMOOTH",
"130 680 LINE",
"130 664 LINE",
"185 664 OFFCURVE",
"196 647 OFFCURVE",
"182 594 CURVE SMOOTH",
"46 86 LINE SMOOTH",
"32 34 OFFCURVE",
"12 16 OFFCURVE",
"-44 16 CURVE",
"-44 0 LINE"
);
}
);
width = 665;
},
{
anchors = (
{
name = bottom;
position = "{220, 0}";
},
{
name = top;
position = "{402, 680}";
}
);
background = {
anchors = (
{
name = bottom;
position = "{290, 0}";
},
{
name = top;
position = "{250, 680}";
}
);
hints = (
{
horizontal = 1;
place = "{33, 21}";
target = up;
type = BottomGhost;
},
{
horizontal = 1;
place = "{713, -20}";
target = down;
type = TopGhost;
},
{
place = "{129, 62}";
type = Stem;
},
{
place = "{460, 61}";
type = Stem;
}
);
paths = (
{
closed = 1;
nodes = (
"182 0 LINE",
"182 7 LINE",
"136 7 OFFCURVE",
"131 14 OFFCURVE",
"131 66 CURVE SMOOTH",
"131 356 LINE",
"227 356 LINE SMOOTH",
"314 356 OFFCURVE",
"422 324 OFFCURVE",
"431 179 CURVE SMOOTH",
"436 100 LINE SMOOTH",
"439 56 OFFCURVE",
"446 23 OFFCURVE",
"460 0 CURVE",
"526 0 LINE",
"526 7 LINE",
"482 7 OFFCURVE",
"471 34 OFFCURVE",
"464 137 CURVE SMOOTH",
"461 184 LINE SMOOTH",
"453 305 OFFCURVE",
"368 349 OFFCURVE",
"277 359 CURVE",
"277 361 LINE",
"379 375 OFFCURVE",
"462 414 OFFCURVE",
"462 528 CURVE SMOOTH",
"462 623 OFFCURVE",
"401 680 OFFCURVE",
"240 680 CURVE SMOOTH",
"51 680 LINE",
"51 673 LINE",
"97 673 OFFCURVE",
"102 666 OFFCURVE",
"102 614 CURVE SMOOTH",
"102 66 LINE SMOOTH",
"102 14 OFFCURVE",
"97 7 OFFCURVE",
"51 7 CURVE",
"51 0 LINE"
);
},
{
closed = 1;
nodes = (
"131 671 LINE",
"237 671 LINE SMOOTH",
"361 671 OFFCURVE",
"430 624 OFFCURVE",
"430 526 CURVE SMOOTH",
"430 417 OFFCURVE",
"347 364 OFFCURVE",
"227 364 CURVE SMOOTH",
"131 364 LINE"
);
}
);
};
hints = (
{
horizontal = 1;
place = "{12, 19}";
type = Stem;
},
{
horizontal = 1;
place = "{368, 20}";
type = Stem;
},
{
horizontal = 1;
place = "{683, 21}";
type = Stem;
},
{
place = "{-3, 102}";
type = Stem;
},
{
place = "{431, 40}";
type = Stem;
},
{
place = "{528, 39}";
type = Stem;
},
{
place = "{401, 43}";
type = Stem;
},
{
place = "{218, 50}";
type = Stem;
}
);
layerId = "B3CAC60A-28EB-414C-BF20-F972525BD7DF";
paths = (
{
closed = 1;
nodes = (
"129 0 LINE",
"129 7 LINE",
"84 7 OFFCURVE",
"80 14 OFFCURVE",
"94 66 CURVE SMOOTH",
"258 677 LINE",
"211 671 LINE",
"360 671 LINE SMOOTH",
"491 671 OFFCURVE",
"528 612 OFFCURVE",
"528 546 CURVE SMOOTH",
"528 423 OFFCURVE",
"422 364 OFFCURVE",
"269 364 CURVE SMOOTH",
"171 364 LINE",
"169 356 LINE",
"267 356 LINE SMOOTH",
"379 356 OFFCURVE",
"450 304 OFFCURVE",
"426 187 CURVE SMOOTH",
"412 119 LINE SMOOTH",
"401 65 OFFCURVE",
"399 30 OFFCURVE",
"404 0 CURVE",
"473 0 LINE",
"473 7 LINE",
"426 7 OFFCURVE",
"422 37 OFFCURVE",
"443 132 CURVE SMOOTH",
"454 182 LINE SMOOTH",
"479 296 OFFCURVE",
"417 355 OFFCURVE",
"278 363 CURVE",
"327 354 LINE",
"327 364 LINE",
"282 357 LINE",
"434 362 OFFCURVE",
"555 416 OFFCURVE",
"555 548 CURVE SMOOTH",
"555 624 OFFCURVE",
"504 680 OFFCURVE",
"362 680 CURVE SMOOTH",
"176 680 LINE",
"176 673 LINE",
"221 673 OFFCURVE",
"225 666 OFFCURVE",
"211 614 CURVE SMOOTH",
"65 66 LINE SMOOTH",
"51 14 OFFCURVE",
"44 7 OFFCURVE",
"-2 7 CURVE",
"-2 0 LINE"
);
}
);
width = 563;
},
{
anchors = (
{
name = bottom;
position = "{259, 0}";
},
{
name = top;
position = "{441, 680}";
}
);
associatedMasterId = "838EFC6A-184F-4DB1-9A1E-77D55F860A0C";
background = {
anchors = (
{
name = bottom;
position = "{320, 0}";
},
{
name = top;
position = "{320, 680}";
}
);
hints = (
{
horizontal = 1;
place = "{-15, 21}";
target = up;
type = BottomGhost;
},
{
horizontal = 1;
place = "{325, 20}";
type = Stem;
},
{
horizontal = 1;
place = "{629, 21}";
type = Stem;
},
{
place = "{71, 181}";
type = Stem;
},
{
place = "{372, 179}";
type = Stem;
},
{
place = "{372, 164}";
type = Stem;
}
);
};
hints = (
{
horizontal = 1;
place = "{0, 21}";
target = up;
type = BottomGhost;
},
{
horizontal = 1;
place = "{340, 35}";
type = Stem;
},
{
horizontal = 1;
place = "{644, 36}";
type = Stem;
}
);
layerId = "0E188A2D-7A9D-437D-8C00-06002FDAA294";
name = "Jun 24 21, 14:30";
paths = (
{
closed = 1;
nodes = (
"334 340 LINE SMOOTH",
"387 340 OFFCURVE",
"406 318 OFFCURVE",
"395 258 CURVE SMOOTH",
"364 90 LINE SMOOTH",
"359 62 OFFCURVE",
"354 25 OFFCURVE",
"363 0 CURVE",
"594 0 LINE",
"594 16 LINE",
"550 16 OFFCURVE",
"546 38 OFFCURVE",
"565 137 CURVE SMOOTH",
"574 184 LINE SMOOTH",
"597 306 OFFCURVE",
"529 340 OFFCURVE",
"410 359 CURVE",
"411 363 LINE",
"551 369 OFFCURVE",
"650 428 OFFCURVE",
"650 539 CURVE SMOOTH",
"650 634 OFFCURVE",
"578 680 OFFCURVE",
"427 680 CURVE SMOOTH",
"129 680 LINE",
"129 664 LINE",
"182 664 OFFCURVE",
"194 642 OFFCURVE",
"181 594 CURVE SMOOTH",
"45 86 LINE SMOOTH",
"31 34 OFFCURVE",
"15 16 OFFCURVE",
"-45 16 CURVE",
"-45 0 LINE",
"293 0 LINE",
"293 16 LINE",
"231 16 OFFCURVE",
"228 38 OFFCURVE",
"241 86 CURVE SMOOTH",
"397 667 LINE",
"345 647 LINE",
"399 647 LINE SMOOTH",
"457 647 OFFCURVE",
"477 611 OFFCURVE",
"477 542 CURVE SMOOTH",
"477 448 OFFCURVE",
"437 375 OFFCURVE",
"343 375 CURVE SMOOTH",
"309 375 LINE",
"300 340 LINE"
);
}
);
width = 654;
}
);
leftKerningGroup = H;
leftMetricsKey = H;
note = R;
rightKerningGroup = H;
unicode = 0052;
},
{
glyphname = S;
lastChange = "2021-06-24 12:42:04 +0000";
layers = (
{
anchors = (
{
name = bottom;
position = "{229, 0}";
},
{
name = top;
position = "{393, 680}";
}
);
background = {
anchors = (
{
name = bottom;
position = "{258, 0}";
},
{
name = cedilla;
position = "{271, 1}";
},
{
name = top;
position = "{274, 680}";
}
);
hints = (
{
horizontal = 1;
place = "{-26, 12}";
type = Stem;
},
{
horizontal = 1;
place = "{466, -20}";
target = down;
type = TopGhost;
},
{
horizontal = 1;
place = "{665, -20}";
target = down;
type = TopGhost;
},
{
place = "{23, 6}";
type = Stem;
},
{
place = "{365, 74}";
type = Stem;
},
{
place = "{23, 135}";
type = Stem;
},
{
horizontal = 1;
place = "{-15, 21}";
target = up;
type = BottomGhost;
},
{
horizontal = 1;
place = "{650, 10}";
type = Stem;
}
);
paths = (
{
closed = 1;
nodes = (
"392 -11 OFFCURVE",
"511 61 OFFCURVE",
"511 209 CURVE SMOOTH",
"511 454 OFFCURVE",
"196 390 OFFCURVE",
"196 564 CURVE SMOOTH",
"196 619 OFFCURVE",
"222 667 OFFCURVE",
"291 667 CURVE SMOOTH",
"361 667 OFFCURVE",
"428 613 OFFCURVE",
"441 481 CURVE",
"457 481 LINE",
"457 680 LINE",
"441 680 LINE",
"433 664 OFFCURVE",
"431 657 OFFCURVE",
"420 657 CURVE SMOOTH",
"396 657 OFFCURVE",
"365 696 OFFCURVE",
"282 696 CURVE SMOOTH",
"150 696 OFFCURVE",
"36 608 OFFCURVE",
"36 470 CURVE SMOOTH",
"36 235 OFFCURVE",
"362 292 OFFCURVE",
"362 115 CURVE SMOOTH",
"362 49 OFFCURVE",
"324 18 OFFCURVE",
"260 18 CURVE SMOOTH",
"184 18 OFFCURVE",
"68 67 OFFCURVE",
"57 230 CURVE",
"41 230 LINE",
"41 0 LINE",
"57 0 LINE",
"69 25 OFFCURVE",
"76 36 OFFCURVE",
"92 36 CURVE SMOOTH",
"118 36 OFFCURVE",
"167 -11 OFFCURVE",
"259 -11 CURVE SMOOTH"
);
}
);
};
hints = (
{
horizontal = 1;
place = "{-11, 27}";
type = Stem;
},
{
horizontal = 1;
place = "{481, -20}";
target = down;
type = TopGhost;
},
{
horizontal = 1;
place = "{680, -20}";
target = down;
type = TopGhost;
},
{
place = "{114, 52}";
type = Stem;
},
{
place = "{333, 72}";
type = Stem;
},
{
horizontal = 1;
place = "{0, 21}";
target = up;
type = BottomGhost;
},
{
horizontal = 1;
place = "{665, 25}";
type = Stem;
}
);
layerId = "838EFC6A-184F-4DB1-9A1E-77D55F860A0C";
paths = (
{
closed = 1;
nodes = (
"363 -11 OFFCURVE",
"509 62 OFFCURVE",
"509 220 CURVE SMOOTH",
"509 413 OFFCURVE",
"276 410 OFFCURVE",
"276 550 CURVE SMOOTH",
"276 611 OFFCURVE",
"320 665 OFFCURVE",
"397 665 CURVE SMOOTH",
"500 665 OFFCURVE",
"529 577 OFFCURVE",
"514 481 CURVE",
"530 481 LINE",
"584 680 LINE",
"568 680 LINE",
"557 664 OFFCURVE",
"552 657 OFFCURVE",
"540 657 CURVE SMOOTH",
"512 657 OFFCURVE",
"480 690 OFFCURVE",
"395 690 CURVE SMOOTH",
"266 690 OFFCURVE",
"109 619 OFFCURVE",
"109 467 CURVE SMOOTH",
"109 283 OFFCURVE",
"348 279 OFFCURVE",
"348 136 CURVE SMOOTH",
"348 64 OFFCURVE",
"301 16 OFFCURVE",
"222 16 CURVE SMOOTH",
"113 16 OFFCURVE",
"44 98 OFFCURVE",
"63 230 CURVE",
"47 230 LINE",
"-14 0 LINE",
"2 0 LINE",
"18 25 OFFCURVE",
"30 36 OFFCURVE",
"46 36 CURVE SMOOTH",
"79 36 OFFCURVE",
"121 -11 OFFCURVE",
"222 -11 CURVE SMOOTH"
);
}
);
width = 549;
},
{
anchors = (
{
name = bottom;
position = "{212, -7}";
},
{
name = top;
position = "{356, 680}";
}
);
background = {
anchors = (
{
name = bottom;
position = "{250, 1}";
},
{
name = cedilla;
position = "{258, -8}";
},
{
name = top;
position = "{246, 680}";
}
);
hints = (
{
horizontal = 1;
place = "{22, 21}";
target = up;
type = BottomGhost;
},
{
horizontal = 1;
place = "{713, -20}";
target = down;
type = TopGhost;
},
{
place = "{77, 61}";
type = Stem;
},
{
place = "{418, 61}";
type = Stem;
},
{
horizontal = 1;
place = "{32, 21}";
target = up;
type = BottomGhost;
},
{
horizontal = 1;
place = "{715, -20}";
target = down;
type = TopGhost;
},
{
horizontal = 1;
place = "{723, -20}";
target = down;
type = TopGhost;
}
);
paths = (
{
closed = 1;
nodes = (
"356 -12 OFFCURVE",
"430 50 OFFCURVE",
"430 160 CURVE SMOOTH",
"430 394 OFFCURVE",
"90 339 OFFCURVE",
"90 533 CURVE SMOOTH",
"90 619 OFFCURVE",
"154 682 OFFCURVE",
"234 682 CURVE SMOOTH",
"298 682 OFFCURVE",
"362 645 OFFCURVE",
"377 547 CURVE",
"385 547 LINE",
"385 680 LINE",
"379 680 LINE",
"374 661 OFFCURVE",
"367 649 OFFCURVE",
"359 649 CURVE SMOOTH",
"339 649 OFFCURVE",
"307 691 OFFCURVE",
"235 691 CURVE SMOOTH",
"141 691 OFFCURVE",
"66 624 OFFCURVE",
"66 526 CURVE SMOOTH",
"66 314 OFFCURVE",
"405 366 OFFCURVE",
"405 154 CURVE SMOOTH",
"405 54 OFFCURVE",
"333 -3 OFFCURVE",
"250 -3 CURVE SMOOTH",
"175 -3 OFFCURVE",
"85 48 OFFCURVE",
"71 170 CURVE",
"63 170 LINE",
"63 0 LINE",
"69 0 LINE",
"77 25 OFFCURVE",
"83 41 OFFCURVE",
"95 41 CURVE SMOOTH",
"121 41 OFFCURVE",
"164 -12 OFFCURVE",
"251 -12 CURVE SMOOTH"
);
}
);
};
hints = (
{
horizontal = 1;
place = "{1, 22}";
type = Stem;
},
{
horizontal = 1;
place = "{694, 20}";
type = Stem;
},
{
place = "{129, 43}";
type = Stem;
},
{
place = "{384, 43}";
type = Stem;
},
{
place = "{454, 20}";
type = Stem;
},
{
horizontal = 1;
place = "{692, -20}";
target = down;
type = TopGhost;
},
{
horizontal = 1;
place = "{12, 21}";
target = up;
type = BottomGhost;
}
);
layerId = "B3CAC60A-28EB-414C-BF20-F972525BD7DF";
paths = (
{
closed = 1;
nodes = (
"321 -12 OFFCURVE",
"415 70 OFFCURVE",
"415 180 CURVE SMOOTH",
"415 364 OFFCURVE",
"158 362 OFFCURVE",
"158 526 CURVE SMOOTH",
"158 613 OFFCURVE",
"234 682 OFFCURVE",
"326 682 CURVE SMOOTH",
"407 682 OFFCURVE",
"464 629 OFFCURVE",
"454 547 CURVE",
"462 547 LINE",
"497 680 LINE",
"491 680 LINE",
"479 658 OFFCURVE",
"471 649 OFFCURVE",
"462 649 CURVE SMOOTH",
"443 649 OFFCURVE",
"401 690 OFFCURVE",
"324 690 CURVE SMOOTH",
"222 690 OFFCURVE",
"129 619 OFFCURVE",
"129 518 CURVE SMOOTH",
"129 349 OFFCURVE",
"386 348 OFFCURVE",
"386 170 CURVE SMOOTH",
"386 75 OFFCURVE",
"309 -2 OFFCURVE",
"207 -2 CURVE SMOOTH",
"112 -2 OFFCURVE",
"31 63 OFFCURVE",
"47 170 CURVE",
"39 170 LINE",
"-7 0 LINE",
"-1 0 LINE",
"16 31 OFFCURVE",
"24 44 OFFCURVE",
"37 44 CURVE SMOOTH",
"64 44 OFFCURVE",
"112 -12 OFFCURVE",
"205 -12 CURVE SMOOTH"
);
}
);
width = 472;
}
);
leftMetricsKey = S;
note = S;
rightMetricsKey = S;
unicode = 0053;
},
{
glyphname = Germandbls;
lastChange = "2021-06-23 13:35:08 +0000";
layers = (
{
anchors = (
{
name = bottom;
position = "{236, 0}";
},
{
name = top;
position = "{418, 680}";
}
);
background = {
hints = (
{
horizontal = 1;
place = "{-11, 21}";
target = up;
type = BottomGhost;
},
{
horizontal = 1;
place = "{386, 242}";
type = Stem;
},
{
horizontal = 1;
place = "{665, 25}";
type = Stem;
},
{
place = "{86, 196}";
type = Stem;
},
{
place = "{531, 185}";
type = Stem;
},
{
horizontal = 1;
place = "{0, 21}";
target = up;
type = BottomGhost;
}
);
paths = (
{
closed = 1;
nodes = (
"604 -11 OFFCURVE",
"716 67 OFFCURVE",
"716 203 CURVE SMOOTH",
"716 310 OFFCURVE",
"649 372 OFFCURVE",
"516 390 CURVE",
"689 690 LINE",
"670 690 LINE",
"645 647 OFFCURVE",
"620 638 OFFCURVE",
"599 638 CURVE SMOOTH",
"538 638 OFFCURVE",
"484 690 OFFCURVE",
"375 690 CURVE SMOOTH",
"258 690 OFFCURVE",
"86 619 OFFCURVE",
"86 417 CURVE SMOOTH",
"86 86 LINE SMOOTH",
"86 34 OFFCURVE",
"51 16 OFFCURVE",
"15 16 CURVE",
"15 0 LINE",
"282 0 LINE",
"282 417 LINE SMOOTH",
"282 605 OFFCURVE",
"307 665 OFFCURVE",
"387 665 CURVE SMOOTH",
"425 665 OFFCURVE",
"460 650 OFFCURVE",
"491 636 CURVE",
"347 396 LINE",
"347 386 LINE",
"494 386 OFFCURVE",
"531 353 OFFCURVE",
"531 213 CURVE SMOOTH",
"531 85 OFFCURVE",
"517 16 OFFCURVE",
"458 16 CURVE SMOOTH",
"421 16 OFFCURVE",
"365 45 OFFCURVE",
"352 179 CURVE",
"335 179 LINE",
"335 31 LINE",
"366 9 OFFCURVE",
"412 -11 OFFCURVE",
"478 -11 CURVE SMOOTH"
);
}
);
};
components = (
{
name = S;
},
{
name = S;
transform = "{1, 0, 0, 1, 549, 0}";
}
);
layerId = "838EFC6A-184F-4DB1-9A1E-77D55F860A0C";
width = 1098;
},
{
anchors = (
{
name = bottom;
position = "{238, 0}";
},
{
name = top;
position = "{420, 680}";
}
);
background = {
hints = (
{
horizontal = 1;
place = "{-11, 10}";
type = Stem;
},
{
horizontal = 1;
place = "{378, 10}";
type = Stem;
},
{
horizontal = 1;
place = "{682, 8}";
type = Stem;
},
{
place = "{96, 29}";
type = Stem;
},
{
place = "{248, 10}";
type = Stem;
},
{
place = "{547, 33}";
type = Stem;
},
{
horizontal = 1;
place = "{0, 7}";
type = Stem;
}
);
paths = (
{
closed = 1;
nodes = (
"486 -11 OFFCURVE",
"580 58 OFFCURVE",
"580 201 CURVE SMOOTH",
"580 322 OFFCURVE",
"512 385 OFFCURVE",
"376 388 CURVE",
"531 668 LINE",
"524 668 LINE",
"519 664 OFFCURVE",
"513 662 OFFCURVE",
"505 662 CURVE SMOOTH",
"472 661 OFFCURVE",
"411 690 OFFCURVE",
"323 690 CURVE SMOOTH",
"188 690 OFFCURVE",
"96 630 OFFCURVE",
"96 427 CURVE SMOOTH",
"96 66 LINE SMOOTH",
"96 14 OFFCURVE",
"91 7 OFFCURVE",
"45 7 CURVE",
"45 0 LINE",
"125 0 LINE",
"125 427 LINE SMOOTH",
"125 614 OFFCURVE",
"192 682 OFFCURVE",
"321 682 CURVE SMOOTH",
"389 682 OFFCURVE",
"464 663 OFFCURVE",
"490 649 CURVE",
"344 386 LINE",
"344 378 LINE",
"483 378 OFFCURVE",
"547 343 OFFCURVE",
"547 208 CURVE SMOOTH",
"547 73 OFFCURVE",
"483 -1 OFFCURVE",
"393 -1 CURVE SMOOTH",
"336 -1 OFFCURVE",
"290 26 OFFCURVE",
"258 99 CURVE",
"248 99 LINE",
"248 41 LINE",
"286 13 OFFCURVE",
"331 -11 OFFCURVE",
"389 -11 CURVE SMOOTH"
);
}
);
};
components = (
{
name = S;
},
{
name = S;
transform = "{1, 0, 0, 1, 472, 0}";
}
);
layerId = "B3CAC60A-28EB-414C-BF20-F972525BD7DF";
width = 944;
}
);
note = uni1E9E;
unicode = 1E9E;
},
{
glyphname = T;
lastChange = "2021-06-24 13:08:29 +0000";
layers = (
{
anchors = (
{
name = bottom;
position = "{227, 0}";
},
{
name = center;
position = "{318, 340}";
},
{
name = top;
position = "{409, 680}";
}
);
background = {
anchors = (
{
name = bottom;
position = "{365, 0}";
},
{
name = cedilla;
position = "{389, 0}";
},
{
name = center;
position = "{365, 340}";
},
{
name = top;
position = "{365, 680}";
}
);
components = (
{
name = Stem;
transform = "{1, 0, 0, 1, 106, 0}";
}
);
hints = (
{
horizontal = 1;
place = "{-15, 21}";
target = up;
type = BottomGhost;
},
{
horizontal = 1;
place = "{492, -20}";
target = down;
type = TopGhost;
},
{
horizontal = 1;
place = "{630, 20}";
type = Stem;
},
{
place = "{142, 180}";
type = Stem;
}
);
paths = (
{
closed = 1;
nodes = (
"189 0 LINE",
"527 0 LINE",
"527 16 LINE",
"471 16 OFFCURVE",
"456 34 OFFCURVE",
"456 86 CURVE SMOOTH",
"456 645 LINE",
"521 645 LINE SMOOTH",
"599 645 OFFCURVE",
"622 608 OFFCURVE",
"622 507 CURVE",
"638 507 LINE",
"638 680 LINE",
"78 680 LINE",
"78 507 LINE",
"94 507 LINE",
"94 605 OFFCURVE",
"115 645 OFFCURVE",
"195 645 CURVE SMOOTH",
"260 645 LINE",
"260 86 LINE SMOOTH",
"260 34 OFFCURVE",
"245 16 OFFCURVE",
"189 16 CURVE"
);
}
);
};
hints = (
{
horizontal = 1;
place = "{0, 21}";
target = up;
type = BottomGhost;
},
{
horizontal = 1;
place = "{645, 35}";
type = Stem;
}
);
layerId = "838EFC6A-184F-4DB1-9A1E-77D55F860A0C";
paths = (
{
closed = 1;
nodes = (
"400 0 LINE",
"400 16 LINE",
"344 16 OFFCURVE",
"334 34 OFFCURVE",
"348 86 CURVE SMOOTH",
"497 645 LINE",
"562 645 LINE SMOOTH",
"640 645 OFFCURVE",
"654 608 OFFCURVE",
"626 507 CURVE",
"642 507 LINE",
"689 680 LINE",
"129 680 LINE",
"82 507 LINE",
"98 507 LINE",
"125 605 OFFCURVE",
"156 645 OFFCURVE",
"236 645 CURVE SMOOTH",
"301 645 LINE",
"152 86 LINE SMOOTH",
"138 34 OFFCURVE",
"118 16 OFFCURVE",
"62 16 CURVE",
"62 0 LINE"
);
}
);
width = 581;
},
{
anchors = (
{
name = bottom;
position = "{214, 0}";
},
{
name = center;
position = "{305, 340}";
},
{
name = top;
position = "{396, 680}";
}
);
background = {
anchors = (
{
name = bottom;
position = "{346, 0}";
},
{
name = cedilla;
position = "{358, 0}";
},
{
name = center;
position = "{346, 340}";
},
{
name = top;
position = "{346, 680}";
}
);
hints = (
{
horizontal = 1;
place = "{33, 21}";
target = up;
type = BottomGhost;
},
{
horizontal = 1;
place = "{713, -20}";
target = down;
type = TopGhost;
},
{
place = "{255, 62}";
type = Stem;
},
{
place = "{255, 249}";
type = Stem;
},
{
place = "{68, 249}";
type = Stem;
}
);
paths = (
{
closed = 1;
nodes = (
"280 0 LINE",
"411 0 LINE",
"411 7 LINE",
"365 7 OFFCURVE",
"360 14 OFFCURVE",
"360 66 CURVE SMOOTH",
"360 672 LINE",
"467 672 LINE SMOOTH",
"556 672 OFFCURVE",
"568 656 OFFCURVE",
"568 569 CURVE",
"576 569 LINE",
"576 680 LINE",
"115 680 LINE",
"115 569 LINE",
"123 569 LINE",
"123 654 OFFCURVE",
"133 672 OFFCURVE",
"224 672 CURVE SMOOTH",
"331 672 LINE",
"331 66 LINE SMOOTH",
"331 14 OFFCURVE",
"326 7 OFFCURVE",
"280 7 CURVE"
);
}
);
};
hints = (
{
horizontal = 1;
place = "{12, 19}";
type = Stem;
},
{
horizontal = 1;
place = "{684, 20}";
type = Stem;
},
{
place = "{123, 102}";
type = Stem;
},
{
place = "{545, 38}";
type = Stem;
},
{
horizontal = 1;
place = "{581, 123}";
type = Stem;
},
{
place = "{138, 22}";
type = Stem;
}
);
layerId = "B3CAC60A-28EB-414C-BF20-F972525BD7DF";
paths = (
{
closed = 1;
nodes = (
"281 0 LINE",
"281 7 LINE",
"235 7 OFFCURVE",
"232 14 OFFCURVE",
"246 66 CURVE SMOOTH",
"409 672 LINE",
"516 672 LINE SMOOTH",
"605 672 OFFCURVE",
"612 656 OFFCURVE",
"589 569 CURVE",
"597 569 LINE",
"627 680 LINE",
"166 680 LINE",
"136 569 LINE",
"144 569 LINE",
"167 654 OFFCURVE",
"182 672 OFFCURVE",
"273 672 CURVE SMOOTH",
"380 672 LINE",
"217 66 LINE SMOOTH",
"203 14 OFFCURVE",
"196 7 OFFCURVE",
"150 7 CURVE",
"150 0 LINE"
);
}
);
width = 552;
}
);
leftKerningGroup = T;
note = T;
rightKerningGroup = T;
rightMetricsKey = "=|";
unicode = 0054;
},
{
glyphname = Tbar;
lastChange = "2021-06-23 13:35:07 +0000";
layers = (
{
background = {
components = (
{
name = T;
}
);
hints = (
{
horizontal = 1;
place = "{0, 21}";
target = up;
type = BottomGhost;
},
{
horizontal = 1;
place = "{340, 35}";
type = Stem;
},
{
horizontal = 1;
place = "{507, -20}";
target = down;
type = TopGhost;
},
{
horizontal = 1;
place = "{645, 35}";
type = Stem;
},
{
place = "{157, 195}";
type = Stem;
}
);
paths = (
{
closed = 1;
nodes = (
"79 375 LINE",
"79 340 LINE",
"423 340 LINE",
"423 375 LINE"
);
}
);
};
hints = (
{
horizontal = 1;
place = "{0, 21}";
target = up;
type = BottomGhost;
},
{
horizontal = 1;
place = "{645, 35}";
type = Stem;
}
);
layerId = "838EFC6A-184F-4DB1-9A1E-77D55F860A0C";
paths = (
{
closed = 1;
nodes = (
"380 0 LINE",
"384 16 LINE",
"348 16 OFFCURVE",
"318 34 OFFCURVE",
"332 86 CURVE SMOOTH",
"400 340 LINE",
"476 340 LINE",
"486 375 LINE",
"410 375 LINE",
"482 645 LINE",
"507 645 LINE SMOOTH",
"566 645 OFFCURVE",
"587 582 OFFCURVE",
"574 521 CURVE SMOOTH",
"571 507 LINE",
"587 507 LINE",
"633 680 LINE",
"153 680 LINE",
"107 507 LINE",
"123 507 LINE",
"126 521 LINE SMOOTH",
"139 582 OFFCURVE",
"202 645 OFFCURVE",
"261 645 CURVE SMOOTH",
"286 645 LINE",
"214 375 LINE",
"142 375 LINE",
"132 340 LINE",
"204 340 LINE",
"136 86 LINE SMOOTH",
"122 34 OFFCURVE",
"82 16 OFFCURVE",
"46 16 CURVE",
"42 0 LINE"
);
}
);
width = 550;
},
{
background = {
components = (
{
name = T;
}
);
hints = (
{
horizontal = 1;
place = "{0, 21}";
target = up;
type = BottomGhost;
},
{
horizontal = 1;
place = "{680, -20}";
target = down;
type = TopGhost;
},
{
place = "{35, 216}";
type = Stem;
},
{
place = "{222, 29}";
type = Stem;
},
{
place = "{222, 216}";
type = Stem;
}
);
paths = (
{
closed = 1;
nodes = (
"97 363 LINE",
"97 353 LINE",
"376 353 LINE",
"376 363 LINE"
);
}
);
};
hints = (
{
horizontal = 1;
place = "{12, 19}";
type = Stem;
},
{
horizontal = 1;
place = "{365, 22}";
type = Stem;
},
{
horizontal = 1;
place = "{684, 20}";
type = Stem;
},
{
place = "{138, 22}";
type = Stem;
},
{
place = "{545, 38}";
type = Stem;
},
{
horizontal = 1;
place = "{581, 123}";
type = Stem;
},
{
place = "{123, 102}";
type = Stem;
}
);
layerId = "B3CAC60A-28EB-414C-BF20-F972525BD7DF";
paths = (
{
closed = 1;
nodes = (
"253 0 LINE",
"255 7 LINE",
"209 7 OFFCURVE",
"206 14 OFFCURVE",
"220 66 CURVE SMOOTH",
"297 353 LINE",
"421 353 LINE",
"423 363 LINE",
"299 363 LINE",
"382 672 LINE",
"460 672 LINE SMOOTH",
"548 672 OFFCURVE",
"556 652 OFFCURVE",
"537 583 CURVE SMOOTH",
"533 569 LINE",
"541 569 LINE",
"571 680 LINE",
"168 680 LINE",
"138 569 LINE",
"146 569 LINE",
"150 583 LINE SMOOTH",
"169 652 OFFCURVE",
"187 672 OFFCURVE",
"275 672 CURVE SMOOTH",
"353 672 LINE",
"270 363 LINE",
"144 363 LINE",
"142 353 LINE",
"268 353 LINE",
"191 66 LINE SMOOTH",
"177 14 OFFCURVE",
"170 7 OFFCURVE",
"124 7 CURVE",
"122 0 LINE"
);
}
);
width = 498;
}
);
leftKerningGroup = T;
note = Tbar;
rightKerningGroup = T;
unicode = 0166;
},
{
glyphname = U;
lastChange = "2021-06-24 12:44:58 +0000";
layers = (
{
anchors = (
{
name = bottom;
position = "{249, 0}";
},
{
name = ogonek;
position = "{502, 10}";
},
{
name = top;
position = "{431, 680}";
},
{
name = topright;
position = "{724, 680}";
}
);
background = {
anchors = (
{
name = bottom;
position = "{334, 0}";
},
{
name = horn;
position = "{500, 680}";
},
{
name = ogonek;
position = "{386, 0}";
},
{
name = top;
position = "{334, 680}";
},
{
name = topright;
position = "{571, 680}";
}
);
components = (
{
name = Stem;
}
);
hints = (
{
horizontal = 1;
place = "{-26, 45}";
type = Stem;
},
{
horizontal = 1;
place = "{665, -20}";
target = down;
type = TopGhost;
},
{
place = "{71, 180}";
type = Stem;
},
{
place = "{461, 16}";
type = Stem;
}
);
paths = (
{
closed = 1;
nodes = (
"449 -11 OFFCURVE",
"531 54 OFFCURVE",
"531 183 CURVE SMOOTH",
"531 588 LINE SMOOTH",
"531 656 OFFCURVE",
"549 664 OFFCURVE",
"603 664 CURVE",
"603 680 LINE",
"429 680 LINE",
"429 664 LINE",
"493 664 OFFCURVE",
"500 656 OFFCURVE",
"500 588 CURVE SMOOTH",
"500 185 LINE SMOOTH",
"500 98 OFFCURVE",
"455 49 OFFCURVE",
"385 49 CURVE SMOOTH",
"317 49 OFFCURVE",
"275 86 OFFCURVE",
"275 174 CURVE SMOOTH",
"275 594 LINE SMOOTH",
"275 646 OFFCURVE",
"290 664 OFFCURVE",
"346 664 CURVE",
"346 680 LINE",
"8 680 LINE",
"8 664 LINE",
"64 664 OFFCURVE",
"79 646 OFFCURVE",
"79 594 CURVE SMOOTH",
"79 162 LINE SMOOTH",
"79 76 OFFCURVE",
"142 -11 OFFCURVE",
"300 -11 CURVE SMOOTH"
);
}
);
};
hints = (
{
horizontal = 1;
place = "{-11, 60}";
type = Stem;
},
{
horizontal = 1;
place = "{680, -20}";
target = down;
type = TopGhost;
},
{
place = "{86, 195}";
type = Stem;
},
{
place = "{476, 31}";
type = Stem;
}
);
layerId = "838EFC6A-184F-4DB1-9A1E-77D55F860A0C";
paths = (
{
closed = 1;
nodes = (
"402 -11 OFFCURVE",
"489 57 OFFCURVE",
"524 186 CURVE SMOOTH",
"632 588 LINE SMOOTH",
"650 656 OFFCURVE",
"680 664 OFFCURVE",
"724 664 CURVE",
"724 680 LINE",
"550 680 LINE",
"550 664 LINE",
"604 664 OFFCURVE",
"619 656 OFFCURVE",
"601 588 CURVE SMOOTH",
"491 183 LINE SMOOTH",
"468 99 OFFCURVE",
"415 49 OFFCURVE",
"345 49 CURVE SMOOTH",
"277 49 OFFCURVE",
"245 100 OFFCURVE",
"266 177 CURVE SMOOTH",
"378 594 LINE SMOOTH",
"392 646 OFFCURVE",
"411 664 OFFCURVE",
"467 664 CURVE",
"467 680 LINE",
"129 680 LINE",
"129 664 LINE",
"185 664 OFFCURVE",
"196 646 OFFCURVE",
"182 594 CURVE SMOOTH",
"77 200 LINE SMOOTH",
"49 96 OFFCURVE",
"92 -11 OFFCURVE",
"263 -11 CURVE SMOOTH"
);
}
);
width = 626;
},
{
anchors = (
{
name = bottom;
position = "{258, 0}";
},
{
name = ogonek;
position = "{507, 10}";
},
{
name = top;
position = "{440, 680}";
},
{
name = topright;
position = "{727, 680}";
}
);
background = {
anchors = (
{
name = bottom;
position = "{320, 0}";
},
{
name = horn;
position = "{496, 680}";
},
{
name = ogonek;
position = "{372, 0}";
},
{
name = top;
position = "{320, 680}";
},
{
name = topright;
position = "{557, 680}";
}
);
hints = (
{
horizontal = 1;
place = "{22, 21}";
target = up;
type = BottomGhost;
},
{
horizontal = 1;
place = "{713, -20}";
target = down;
type = TopGhost;
},
{
place = "{129, 62}";
type = Stem;
}
);
paths = (
{
closed = 1;
nodes = (
"450 -11 OFFCURVE",
"523 92 OFFCURVE",
"523 221 CURVE SMOOTH",
"523 614 LINE SMOOTH",
"523 666 OFFCURVE",
"528 673 OFFCURVE",
"574 673 CURVE",
"574 680 LINE",
"462 680 LINE",
"462 673 LINE",
"508 673 OFFCURVE",
"513 666 OFFCURVE",
"513 614 CURVE SMOOTH",
"513 221 LINE SMOOTH",
"513 96 OFFCURVE",
"444 2 OFFCURVE",
"316 2 CURVE SMOOTH",
"185 2 OFFCURVE",
"124 83 OFFCURVE",
"124 214 CURVE SMOOTH",
"124 614 LINE SMOOTH",
"124 666 OFFCURVE",
"129 673 OFFCURVE",
"175 673 CURVE",
"175 680 LINE",
"44 680 LINE",
"44 673 LINE",
"90 673 OFFCURVE",
"95 666 OFFCURVE",
"95 614 CURVE SMOOTH",
"95 207 LINE SMOOTH",
"95 74 OFFCURVE",
"170 -11 OFFCURVE",
"301 -11 CURVE SMOOTH"
);
}
);
};
hints = (
{
horizontal = 1;
place = "{1, 25}";
type = Stem;
},
{
horizontal = 1;
place = "{685, 19}";
type = Stem;
},
{
place = "{90, 40}";
type = Stem;
},
{
place = "{218, 102}";
type = Stem;
},
{
place = "{636, 83}";
type = Stem;
}
);
layerId = "B3CAC60A-28EB-414C-BF20-F972525BD7DF";
paths = (
{
closed = 1;
nodes = (
"414 -11 OFFCURVE",
"496 83 OFFCURVE",
"531 212 CURVE SMOOTH",
"639 614 LINE SMOOTH",
"653 666 OFFCURVE",
"660 673 OFFCURVE",
"706 673 CURVE",
"706 680 LINE",
"594 680 LINE",
"594 673 LINE",
"640 673 OFFCURVE",
"643 666 OFFCURVE",
"629 614 CURVE SMOOTH",
"521 212 LINE SMOOTH",
"487 87 OFFCURVE",
"407 2 OFFCURVE",
"279 2 CURVE SMOOTH",
"148 2 OFFCURVE",
"98 90 OFFCURVE",
"126 192 CURVE SMOOTH",
"240 614 LINE SMOOTH",
"254 666 OFFCURVE",
"261 673 OFFCURVE",
"307 673 CURVE",
"307 680 LINE",
"176 680 LINE",
"176 673 LINE",
"222 673 OFFCURVE",
"225 666 OFFCURVE",
"211 614 CURVE SMOOTH",
"99 200 LINE SMOOTH",
"66 79 OFFCURVE",
"130 -11 OFFCURVE",
"265 -11 CURVE SMOOTH"
);
}
);
width = 639;
}
);
leftKerningGroup = U;
note = U;
rightKerningGroup = U;
unicode = 0055;
},
{
glyphname = V;
lastChange = "2021-06-24 12:49:21 +0000";
layers = (
{
anchors = (
{
name = bottom;
position = "{230, 0}";
},
{
name = top;
position = "{412, 680}";
}
);
background = {
anchors = (
{
name = bottom;
position = "{306, 0}";
},
{
name = top;
position = "{312, 680}";
}
);
hints = (
{
horizontal = 1;
place = "{-22, 21}";
target = up;
type = BottomGhost;
},
{
horizontal = 1;
place = "{665, -20}";
target = down;
type = TopGhost;
}
);
paths = (
{
closed = 1;
nodes = (
"310 -7 LINE",
"510 543 LINE SMOOTH",
"547 644 OFFCURVE",
"559 664 OFFCURVE",
"615 664 CURVE",
"615 680 LINE",
"421 680 LINE",
"421 664 LINE",
"480 664 OFFCURVE",
"508 635 OFFCURVE",
"475 546 CURVE SMOOTH",
"386 303 LINE",
"384 303 LINE",
"305 553 LINE SMOOTH",
"277 640 OFFCURVE",
"288 664 OFFCURVE",
"349 664 CURVE",
"349 680 LINE",
"4 680 LINE",
"4 664 LINE",
"55 664 OFFCURVE",
"61 645 OFFCURVE",
"83 585 CURVE SMOOTH",
"296 -7 LINE"
);
}
);
};
hints = (
{
horizontal = 1;
place = "{-7, 21}";
target = up;
type = BottomGhost;
},
{
horizontal = 1;
place = "{680, -20}";
target = down;
type = TopGhost;
}
);
layerId = "838EFC6A-184F-4DB1-9A1E-77D55F860A0C";
paths = (
{
closed = 1;
nodes = (
"229 -7 LINE",
"576 543 LINE SMOOTH",
"636 638 OFFCURVE",
"653 664 OFFCURVE",
"713 664 CURVE",
"713 680 LINE",
"519 680 LINE",
"519 664 LINE",
"580 664 OFFCURVE",
"589 633 OFFCURVE",
"536 546 CURVE SMOOTH",
"385 298 LINE",
"383 298 LINE",
"369 553 LINE SMOOTH",
"364 641 OFFCURVE",
"383 664 OFFCURVE",
"443 664 CURVE",
"443 680 LINE",
"102 680 LINE",
"102 664 LINE",
"153 664 OFFCURVE",
"156 633 OFFCURVE",
"159 603 CURVE SMOOTH",
"214 -7 LINE"
);
}
);
width = 587;
},
{
anchors = (
{
name = bottom;
position = "{231, 0}";
},
{
name = top;
position = "{413, 680}";
}
);
background = {
anchors = (
{
name = bottom;
position = "{314, 0}";
},
{
name = top;
position = "{320, 680}";
}
);
hints = (
{
horizontal = 1;
place = "{23, 21}";
target = up;
type = BottomGhost;
},
{
horizontal = 1;
place = "{713, -20}";
target = down;
type = TopGhost;
}
);
paths = (
{
closed = 1;
nodes = (
"314 -10 LINE",
"508 526 LINE SMOOTH",
"549 639 OFFCURVE",
"570 673 OFFCURVE",
"606 673 CURVE",
"606 680 LINE",
"489 680 LINE",
"489 673 LINE",
"538 673 OFFCURVE",
"543 650 OFFCURVE",
"499 528 CURVE SMOOTH",
"318 28 LINE",
"316 28 LINE",
"135 553 LINE SMOOTH",
"100 653 OFFCURVE",
"100 673 OFFCURVE",
"144 673 CURVE",
"144 680 LINE",
"22 680 LINE",
"22 673 LINE",
"57 673 OFFCURVE",
"69 656 OFFCURVE",
"103 559 CURVE SMOOTH",
"300 -10 LINE"
);
}
);
};
hints = (
{
horizontal = 1;
place = "{2, 21}";
target = up;
type = BottomGhost;
},
{
horizontal = 1;
place = "{685, 19}";
type = Stem;
},
{
place = "{119, 598}";
type = Stem;
},
{
place = "{120, 87}";
type = Stem;
},
{
place = "{618, 98}";
type = Stem;
}
);
layerId = "B3CAC60A-28EB-414C-BF20-F972525BD7DF";
paths = (
{
closed = 1;
nodes = (
"210 -10 LINE",
"548 526 LINE SMOOTH",
"630 656 OFFCURVE",
"649 673 OFFCURVE",
"685 673 CURVE",
"685 680 LINE",
"568 680 LINE",
"568 673 LINE",
"617 673 OFFCURVE",
"618 655 OFFCURVE",
"540 530 CURVE SMOOTH",
"224 28 LINE",
"222 28 LINE",
"182 553 LINE SMOOTH",
"174 653 OFFCURVE",
"176 673 OFFCURVE",
"226 673 CURVE",
"226 680 LINE",
"98 680 LINE",
"98 673 LINE",
"140 673 OFFCURVE",
"143 656 OFFCURVE",
"151 559 CURVE SMOOTH",
"196 -10 LINE"
);
}
);
width = 585;
}
);
leftKerningGroup = V;
note = V;
rightKerningGroup = V;
unicode = 0056;
},
{
glyphname = W;
lastChange = "2021-06-24 13:08:03 +0000";
layers = (
{
anchors = (
{
name = bottom;
position = "{389, 0}";
},
{
name = top;
position = "{571, 680}";
}
);
background = {
anchors = (
{
name = bottom;
position = "{472, 0}";
},
{
name = top;
position = "{539, 680}";
}
);
hints = (
{
horizontal = 1;
place = "{-22, 21}";
target = up;
type = BottomGhost;
},
{
horizontal = 1;
place = "{665, -20}";
target = down;
type = TopGhost;
}
);
paths = (
{
closed = 1;
nodes = (
"273 -7 LINE",
"458 424 LINE",
"635 -7 LINE",
"649 -7 LINE",
"824 543 LINE SMOOTH",
"855 641 OFFCURVE",
"871 664 OFFCURVE",
"929 664 CURVE",
"929 680 LINE",
"738 680 LINE",
"738 664 LINE",
"797 664 OFFCURVE",
"817 636 OFFCURVE",
"789 546 CURVE SMOOTH",
"711 293 LINE",
"551 675 LINE",
"527 675 LINE",
"369 302 LINE",
"305 553 LINE SMOOTH",
"279 655 OFFCURVE",
"280 664 OFFCURVE",
"321 664 CURVE",
"321 680 LINE",
"4 680 LINE",
"4 664 LINE",
"55 664 OFFCURVE",
"68 633 OFFCURVE",
"77 603 CURVE SMOOTH",
"256 -7 LINE"
);
}
);
};
hints = (
{
horizontal = 1;
place = "{-7, 21}";
target = up;
type = BottomGhost;
},
{
horizontal = 1;
place = "{680, -20}";
target = down;
type = TopGhost;
}
);
layerId = "838EFC6A-184F-4DB1-9A1E-77D55F860A0C";
paths = (
{
closed = 1;
nodes = (
"170 -7 LINE",
"499 461 LINE",
"472 451 LINE",
"532 -7 LINE",
"546 -7 LINE",
"868 543 LINE SMOOTH",
"925 641 OFFCURVE",
"948 664 OFFCURVE",
"1006 664 CURVE",
"1005 680 LINE",
"811 680 LINE",
"812 664 LINE",
"871 664 OFFCURVE",
"883 636 OFFCURVE",
"831 546 CURVE SMOOTH",
"662 254 LINE",
"688 263 LINE",
"630 675 LINE",
"606 675 LINE",
"320 265 LINE",
"337 257 LINE",
"338 553 LINE SMOOTH",
"338 655 OFFCURVE",
"357 664 OFFCURVE",
"398 664 CURVE",
"398 680 LINE",
"81 680 LINE",
"81 664 LINE",
"132 664 OFFCURVE",
"136 633 OFFCURVE",
"137 603 CURVE SMOOTH",
"153 -7 LINE"
);
}
);
width = 906;
},
{
anchors = (
{
name = bottom;
position = "{390, 0}";
},
{
name = top;
position = "{572, 680}";
}
);
background = {
anchors = (
{
name = bottom;
position = "{466, 0}";
},
{
name = top;
position = "{472, 680}";
}
);
hints = (
{
horizontal = 1;
place = "{23, 21}";
target = up;
type = BottomGhost;
},
{
horizontal = 1;
place = "{713, -20}";
target = down;
type = TopGhost;
}
);
paths = (
{
closed = 1;
nodes = (
"278 -10 LINE",
"463 634 LINE",
"662 -10 LINE",
"676 -10 LINE",
"824 526 LINE SMOOTH",
"855 638 OFFCURVE",
"876 673 OFFCURVE",
"914 673 CURVE",
"914 680 LINE",
"797 680 LINE",
"797 673 LINE",
"845 673 OFFCURVE",
"849 657 OFFCURVE",
"815 528 CURVE SMOOTH",
"679 24 LINE",
"478 678 LINE",
"467 678 LINE",
"281 26 LINE",
"129 553 LINE SMOOTH",
"99 655 OFFCURVE",
"100 673 OFFCURVE",
"144 673 CURVE",
"144 680 LINE",
"22 680 LINE",
"22 673 LINE",
"57 673 OFFCURVE",
"68 657 OFFCURVE",
"97 559 CURVE SMOOTH",
"264 -10 LINE"
);
}
);
};
hints = (
{
horizontal = 1;
place = "{2, 21}";
target = up;
type = BottomGhost;
},
{
horizontal = 1;
place = "{685, 19}";
type = Stem;
},
{
place = "{126, 87}";
type = Stem;
},
{
place = "{489, 31}";
type = Stem;
},
{
place = "{933, 97}";
type = Stem;
},
{
horizontal = 1;
place = "{2, 49}";
type = Stem;
}
);
layerId = "B3CAC60A-28EB-414C-BF20-F972525BD7DF";
paths = (
{
closed = 1;
nodes = (
"144 -10 LINE",
"523 671 LINE",
"500 638 LINE",
"528 -10 LINE",
"542 -10 LINE",
"834 526 LINE SMOOTH",
"907 660 OFFCURVE",
"927 675 OFFCURVE",
"966 673 CURVE",
"966 680 LINE",
"846 680 LINE",
"846 673 LINE",
"894 673 OFFCURVE",
"895 657 OFFCURVE",
"825 528 CURVE SMOOTH",
"542 4 LINE",
"556 23 LINE",
"528 678 LINE",
"517 678 LINE",
"145 8 LINE",
"158 20 LINE",
"144 555 LINE SMOOTH",
"141 657 OFFCURVE",
"149 673 OFFCURVE",
"193 673 CURVE",
"193 680 LINE",
"71 680 LINE",
"71 673 LINE",
"106 673 OFFCURVE",
"112 657 OFFCURVE",
"115 559 CURVE SMOOTH",
"130 -10 LINE"
);
}
);
width = 904;
},
{
anchors = (
{
name = bottom;
position = "{389, 0}";
},
{
name = top;
position = "{571, 680}";
}
);
associatedMasterId = "838EFC6A-184F-4DB1-9A1E-77D55F860A0C";
background = {
anchors = (
{
name = bottom;
position = "{472, 0}";
},
{
name = top;
position = "{539, 680}";
}
);
hints = (
{
horizontal = 1;
place = "{-22, 21}";
target = up;
type = BottomGhost;
},
{
horizontal = 1;
place = "{665, -20}";
target = down;
type = TopGhost;
}
);
paths = (
{
closed = 1;
nodes = (
"273 -7 LINE",
"458 424 LINE",
"635 -7 LINE",
"649 -7 LINE",
"824 543 LINE SMOOTH",
"855 641 OFFCURVE",
"871 664 OFFCURVE",
"929 664 CURVE",
"929 680 LINE",
"738 680 LINE",
"738 664 LINE",
"797 664 OFFCURVE",
"817 636 OFFCURVE",
"789 546 CURVE SMOOTH",
"711 293 LINE",
"551 675 LINE",
"527 675 LINE",
"369 302 LINE",
"305 553 LINE SMOOTH",
"279 655 OFFCURVE",
"280 664 OFFCURVE",
"321 664 CURVE",
"321 680 LINE",
"4 680 LINE",
"4 664 LINE",
"55 664 OFFCURVE",
"68 633 OFFCURVE",
"77 603 CURVE SMOOTH",
"256 -7 LINE"
);
}
);
};
hints = (
{
horizontal = 1;
place = "{-7, 21}";
target = up;
type = BottomGhost;
},
{
horizontal = 1;
place = "{680, -20}";
target = down;
type = TopGhost;
}
);
layerId = "178E8D57-6129-45FF-8D69-C7B9D6D79330";
name = "Jun 24 21, 14:51";
paths = (
{
closed = 1;
nodes = (
"234 -7 LINE",
"496 409 LINE",
"498 409 LINE",
"519 -7 LINE",
"533 -7 LINE",
"888 543 LINE SMOOTH",
"954 645 OFFCURVE",
"970 664 OFFCURVE",
"1026 664 CURVE",
"1026 680 LINE",
"832 680 LINE",
"832 664 LINE",
"893 664 OFFCURVE",
"902 633 OFFCURVE",
"846 546 CURVE SMOOTH",
"690 303 LINE",
"688 303 LINE",
"675 553 LINE SMOOTH",
"671 639 OFFCURVE",
"690 664 OFFCURVE",
"752 664 CURVE",
"752 680 LINE",
"449 680 LINE",
"449 664 LINE",
"479 664 OFFCURVE",
"485 654 OFFCURVE",
"488 603 CURVE SMOOTH",
"495 467 LINE",
"395 309 LINE",
"393 309 LINE",
"373 553 LINE SMOOTH",
"366 641 OFFCURVE",
"377 664 OFFCURVE",
"425 664 CURVE",
"425 680 LINE",
"108 680 LINE",
"108 664 LINE",
"159 664 OFFCURVE",
"161 633 OFFCURVE",
"164 603 CURVE SMOOTH",
"220 -7 LINE"
);
}
);
width = 906;
}
);
leftKerningGroup = V;
note = W;
rightKerningGroup = V;
unicode = 0057;
},
{
glyphname = X;
lastChange = "2021-06-24 12:59:53 +0000";
layers = (
{
anchors = (
{
name = bottom;
position = "{270, 0}";
},
{
name = top;
position = "{452, 680}";
}
);
background = {
anchors = (
{
name = bottom;
position = "{312, 0}";
},
{
name = top;
position = "{318, 680}";
}
);
hints = (
{
horizontal = 1;
place = "{-15, 21}";
target = up;
type = BottomGhost;
},
{
horizontal = 1;
place = "{665, -20}";
target = down;
type = TopGhost;
}
);
paths = (
{
closed = 1;
nodes = (
"666 0 LINE",
"666 16 LINE",
"624 16 OFFCURVE",
"597 34 OFFCURVE",
"564 99 CURVE SMOOTH",
"322 580 LINE SMOOTH",
"292 640 OFFCURVE",
"304 664 OFFCURVE",
"358 664 CURVE",
"358 680 LINE",
"8 680 LINE",
"8 664 LINE",
"54 664 OFFCURVE",
"74 644 OFFCURVE",
"113 567 CURVE SMOOTH",
"349 94 LINE SMOOTH",
"378 37 OFFCURVE",
"368 16 OFFCURVE",
"320 16 CURVE",
"320 0 LINE"
);
},
{
closed = 1;
nodes = (
"213 0 LINE",
"213 16 LINE",
"146 16 OFFCURVE",
"129 38 OFFCURVE",
"170 112 CURVE SMOOTH",
"264 283 LINE",
"248 314 LINE",
"132 114 LINE SMOOTH",
"88 38 OFFCURVE",
"56 16 OFFCURVE",
"1 16 CURVE",
"1 0 LINE"
);
},
{
closed = 1;
nodes = (
"516 572 LINE SMOOTH",
"562 648 OFFCURVE",
"580 664 OFFCURVE",
"629 664 CURVE",
"629 680 LINE",
"441 680 LINE",
"441 664 LINE",
"502 664 OFFCURVE",
"512 630 OFFCURVE",
"475 566 CURVE SMOOTH",
"397 432 LINE",
"412 402 LINE"
);
}
);
};
hints = (
{
horizontal = 1;
place = "{0, 21}";
target = up;
type = BottomGhost;
},
{
horizontal = 1;
place = "{680, -20}";
target = down;
type = TopGhost;
}
);
layerId = "838EFC6A-184F-4DB1-9A1E-77D55F860A0C";
paths = (
{
closed = 1;
nodes = (
"152 0 LINE",
"152 16 LINE",
"84 16 OFFCURVE",
"74 37 OFFCURVE",
"135 112 CURVE SMOOTH",
"272 280 LINE",
"320 94 LINE SMOOTH",
"334 38 OFFCURVE",
"317 16 OFFCURVE",
"270 16 CURVE",
"270 0 LINE",
"608 0 LINE",
"608 16 LINE",
"567 16 OFFCURVE",
"545 33 OFFCURVE",
"528 99 CURVE SMOOTH",
"449 404 LINE",
"595 572 LINE SMOOTH",
"662 649 OFFCURVE",
"687 664 OFFCURVE",
"736 664 CURVE",
"736 680 LINE",
"544 680 LINE",
"544 664 LINE",
"605 664 OFFCURVE",
"604 629 OFFCURVE",
"552 566 CURVE SMOOTH",
"441 433 LINE",
"403 580 LINE SMOOTH",
"387 640 OFFCURVE",
"412 664 OFFCURVE",
"466 664 CURVE",
"466 680 LINE",
"120 680 LINE",
"120 664 LINE",
"166 664 OFFCURVE",
"179 646 OFFCURVE",
"199 567 CURVE SMOOTH",
"265 310 LINE",
"96 114 LINE SMOOTH",
"31 38 OFFCURVE",
"-5 16 OFFCURVE",
"-60 16 CURVE",
"-60 0 LINE"
);
}
);
width = 668;
},
{
anchors = (
{
name = bottom;
position = "{244, 0}";
},
{
name = top;
position = "{426, 680}";
}
);
background = {
anchors = (
{
name = bottom;
position = "{312, 0}";
},
{
name = top;
position = "{318, 680}";
}
);
hints = (
{
horizontal = 1;
place = "{33, 21}";
target = up;
type = BottomGhost;
},
{
horizontal = 1;
place = "{713, -20}";
target = down;
type = TopGhost;
}
);
paths = (
{
closed = 1;
nodes = (
"610 0 LINE",
"610 7 LINE",
"572 7 OFFCURVE",
"547 22 OFFCURVE",
"498 98 CURVE SMOOTH",
"175 600 LINE SMOOTH",
"132 666 OFFCURVE",
"132 673 OFFCURVE",
"183 673 CURVE",
"183 680 LINE",
"45 680 LINE",
"45 673 LINE",
"88 673 OFFCURVE",
"99 666 OFFCURVE",
"160 572 CURVE SMOOTH",
"488 62 LINE SMOOTH",
"519 14 OFFCURVE",
"517 7 OFFCURVE",
"474 7 CURVE",
"474 0 LINE"
);
},
{
closed = 1;
nodes = (
"165 0 LINE",
"165 7 LINE",
"109 7 OFFCURVE",
"102 24 OFFCURVE",
"158 110 CURVE SMOOTH",
"320 356 LINE",
"314 365 LINE",
"146 112 LINE SMOOTH",
"95 35 OFFCURVE",
"72 7 OFFCURVE",
"22 7 CURVE",
"22 0 LINE"
);
},
{
closed = 1;
nodes = (
"466 574 LINE SMOOTH",
"518 651 OFFCURVE",
"539 673 OFFCURVE",
"586 673 CURVE",
"586 680 LINE",
"441 680 LINE",
"441 673 LINE",
"498 673 OFFCURVE",
"508 653 OFFCURVE",
"452 570 CURVE SMOOTH",
"319 371 LINE",
"325 363 LINE"
);
}
);
};
hints = (
{
horizontal = 1;
place = "{12, 19}";
type = Stem;
},
{
horizontal = 1;
place = "{685, 19}";
type = Stem;
},
{
place = "{-60, 742}";
type = Stem;
},
{
place = "{142, 103}";
type = Stem;
}
);
layerId = "B3CAC60A-28EB-414C-BF20-F972525BD7DF";
paths = (
{
closed = 1;
nodes = (
"86 0 LINE",
"86 7 LINE",
"31 7 OFFCURVE",
"29 24 OFFCURVE",
"106 110 CURVE SMOOTH",
"322 354 LINE",
"446 62 LINE SMOOTH",
"466 15 OFFCURVE",
"458 7 OFFCURVE",
"416 7 CURVE",
"416 0 LINE",
"550 0 LINE",
"550 7 LINE",
"512 7 OFFCURVE",
"492 24 OFFCURVE",
"461 98 CURVE SMOOTH",
"344 375 LINE",
"522 574 LINE SMOOTH",
"593 653 OFFCURVE",
"622 673 OFFCURVE",
"668 673 CURVE",
"668 680 LINE",
"522 680 LINE",
"522 673 LINE",
"580 673 OFFCURVE",
"582 656 OFFCURVE",
"506 570 CURVE SMOOTH",
"340 384 LINE",
"249 600 LINE SMOOTH",
"222 665 OFFCURVE",
"227 673 OFFCURVE",
"277 673 CURVE",
"277 680 LINE",
"141 680 LINE",
"141 673 LINE",
"185 673 OFFCURVE",
"193 661 OFFCURVE",
"230 572 CURVE SMOOTH",
"318 363 LINE",
"94 112 LINE SMOOTH",
"23 32 OFFCURVE",
"-9 7 OFFCURVE",
"-58 7 CURVE",
"-58 0 LINE"
);
}
);
width = 612;
}
);
leftKerningGroup = X;
note = X;
rightKerningGroup = X;
unicode = 0058;
},
{
glyphname = Y;
lastChange = "2021-06-24 13:01:21 +0000";
layers = (
{
anchors = (
{
name = bottom;
position = "{239, 0}";
},
{
name = top;
position = "{421, 680}";
},
{
name = topleft;
position = "{138, 680}";
}
);
background = {
anchors = (
{
name = bottom;
position = "{309, 0}";
},
{
name = top;
position = "{351, 680}";
},
{
name = topleft;
position = "{-29, 680}";
}
);
hints = (
{
horizontal = 1;
place = "{-15, 21}";
target = up;
type = BottomGhost;
},
{
horizontal = 1;
place = "{665, -20}";
target = down;
type = TopGhost;
},
{
place = "{192, 180}";
type = Stem;
}
);
paths = (
{
closed = 1;
nodes = (
"471 0 LINE",
"471 16 LINE",
"415 16 OFFCURVE",
"400 34 OFFCURVE",
"400 86 CURVE SMOOTH",
"400 262 LINE",
"511 540 LINE SMOOTH",
"550 639 OFFCURVE",
"568 664 OFFCURVE",
"619 664 CURVE",
"619 680 LINE",
"424 680 LINE",
"424 664 LINE",
"487 664 OFFCURVE",
"512 638 OFFCURVE",
"481 557 CURVE SMOOTH",
"379 290 LINE",
"393 290 LINE",
"286 574 LINE SMOOTH",
"257 652 OFFCURVE",
"265 664 OFFCURVE",
"324 664 CURVE",
"324 680 LINE",
"-3 680 LINE",
"-3 664 LINE",
"39 664 OFFCURVE",
"58 647 OFFCURVE",
"90 567 CURVE SMOOTH",
"204 287 LINE",
"204 86 LINE SMOOTH",
"204 34 OFFCURVE",
"189 16 OFFCURVE",
"133 16 CURVE",
"133 0 LINE"
);
}
);
};
hints = (
{
horizontal = 1;
place = "{0, 21}";
target = up;
type = BottomGhost;
},
{
horizontal = 1;
place = "{680, -20}";
target = down;
type = TopGhost;
}
);
layerId = "838EFC6A-184F-4DB1-9A1E-77D55F860A0C";
paths = (
{
closed = 1;
nodes = (
"406 0 LINE",
"406 16 LINE",
"370 16 OFFCURVE",
"340 34 OFFCURVE",
"354 86 CURVE SMOOTH",
"398 249 LINE",
"585 541 LINE SMOOTH",
"647 638 OFFCURVE",
"677 664 OFFCURVE",
"728 664 CURVE",
"728 680 LINE",
"533 680 LINE",
"533 664 LINE",
"596 664 OFFCURVE",
"609 640 OFFCURVE",
"561 557 CURVE SMOOTH",
"514 475 OFFCURVE",
"428 344 OFFCURVE",
"396 296 CURVE",
"369 574 LINE SMOOTH",
"362 651 OFFCURVE",
"374 664 OFFCURVE",
"433 664 CURVE",
"433 680 LINE",
"106 680 LINE",
"106 664 LINE",
"149 664 OFFCURVE",
"163 648 OFFCURVE",
"173 567 CURVE SMOOTH",
"208 274 LINE",
"158 86 LINE SMOOTH",
"144 34 OFFCURVE",
"104 16 OFFCURVE",
"68 16 CURVE",
"68 0 LINE"
);
}
);
width = 606;
},
{
anchors = (
{
name = bottom;
position = "{204, 0}";
},
{
name = top;
position = "{386, 680}";
},
{
name = topleft;
position = "{140, 680}";
}
);
background = {
anchors = (
{
name = bottom;
position = "{278, 0}";
},
{
name = top;
position = "{292, 680}";
},
{
name = topleft;
position = "{-5, 680}";
}
);
hints = (
{
horizontal = 1;
place = "{33, 21}";
target = up;
type = BottomGhost;
},
{
horizontal = 1;
place = "{713, -20}";
target = down;
type = TopGhost;
},
{
place = "{282, 62}";
type = Stem;
}
);
paths = (
{
closed = 1;
nodes = (
"341 0 LINE",
"341 7 LINE",
"295 7 OFFCURVE",
"290 14 OFFCURVE",
"290 66 CURVE SMOOTH",
"290 275 LINE",
"431 543 LINE SMOOTH",
"487 649 OFFCURVE",
"504 673 OFFCURVE",
"543 673 CURVE",
"543 680 LINE",
"418 680 LINE",
"418 673 LINE",
"475 673 OFFCURVE",
"474 654 OFFCURVE",
"423 547 CURVE",
"281 278 LINE",
"288 278 LINE",
"142 573 LINE SMOOTH",
"97 663 OFFCURVE",
"93 673 OFFCURVE",
"129 673 CURVE",
"129 680 LINE",
"22 680 LINE",
"22 673 LINE",
"56 673 OFFCURVE",
"62 671 OFFCURVE",
"114 567 CURVE SMOOTH",
"261 274 LINE",
"261 66 LINE SMOOTH",
"261 14 OFFCURVE",
"256 7 OFFCURVE",
"210 7 CURVE",
"210 0 LINE"
);
}
);
};
hints = (
{
horizontal = 1;
place = "{12, 19}";
type = Stem;
},
{
horizontal = 1;
place = "{685, 19}";
type = Stem;
},
{
place = "{140, 102}";
type = Stem;
},
{
place = "{556, 102}";
type = Stem;
},
{
place = "{124, 89}";
type = Stem;
}
);
layerId = "B3CAC60A-28EB-414C-BF20-F972525BD7DF";
paths = (
{
closed = 1;
nodes = (
"272 0 LINE",
"272 7 LINE",
"226 7 OFFCURVE",
"223 14 OFFCURVE",
"237 66 CURVE SMOOTH",
"293 275 LINE",
"498 543 LINE SMOOTH",
"578 647 OFFCURVE",
"605 673 OFFCURVE",
"645 673 CURVE",
"645 680 LINE",
"518 680 LINE",
"518 673 LINE",
"573 673 OFFCURVE",
"571 656 OFFCURVE",
"489 547 CURVE SMOOTH",
"433 472 OFFCURVE",
"332 338 OFFCURVE",
"289 286 CURVE",
"216 573 LINE SMOOTH",
"193 662 OFFCURVE",
"194 673 OFFCURVE",
"230 673 CURVE",
"230 680 LINE",
"123 680 LINE",
"123 673 LINE",
"160 673 OFFCURVE",
"162 670 OFFCURVE",
"188 567 CURVE SMOOTH",
"263 274 LINE",
"208 66 LINE SMOOTH",
"194 14 OFFCURVE",
"187 7 OFFCURVE",
"141 7 CURVE",
"141 0 LINE"
);
}
);
width = 531;
}
);
leftKerningGroup = Y;
note = Y;
rightKerningGroup = Y;
unicode = 0059;
},
{
glyphname = Z;
lastChange = "2021-06-24 13:03:09 +0000";
layers = (
{
anchors = (
{
name = bottom;
position = "{211, 0}";
},
{
name = center;
position = "{302, 340}";
},
{
name = top;
position = "{393, 680}";
}
);
background = {
anchors = (
{
name = bottom;
position = "{286, 0}";
},
{
name = center;
position = "{286, 340}";
},
{
name = top;
position = "{271, 680}";
}
);
hints = (
{
horizontal = 1;
place = "{-15, 21}";
type = Stem;
},
{
horizontal = 1;
place = "{469, -20}";
target = down;
type = TopGhost;
},
{
horizontal = 1;
place = "{637, 13}";
type = Stem;
}
);
paths = (
{
closed = 1;
nodes = (
"517 0 LINE",
"517 196 LINE",
"501 196 LINE",
"501 73 OFFCURVE",
"469 36 OFFCURVE",
"351 36 CURVE SMOOTH",
"243 36 LINE",
"523 664 LINE",
"523 680 LINE",
"36 680 LINE",
"36 476 LINE",
"52 476 LINE",
"52 598 OFFCURVE",
"63 644 OFFCURVE",
"179 644 CURVE SMOOTH",
"341 644 LINE",
"310 667 LINE",
"19 16 LINE",
"19 0 LINE"
);
}
);
};
hints = (
{
horizontal = 1;
place = "{0, 36}";
type = Stem;
},
{
horizontal = 1;
place = "{484, -20}";
target = down;
type = TopGhost;
},
{
horizontal = 1;
place = "{652, 28}";
type = Stem;
}
);
layerId = "838EFC6A-184F-4DB1-9A1E-77D55F860A0C";
paths = (
{
closed = 1;
nodes = (
"442 0 LINE",
"494 196 LINE",
"478 196 LINE",
"445 73 OFFCURVE",
"344 36 OFFCURVE",
"246 36 CURVE SMOOTH",
"203 36 LINE",
"656 664 LINE",
"660 680 LINE",
"160 680 LINE",
"108 484 LINE",
"124 484 LINE",
"164 598 OFFCURVE",
"240 652 OFFCURVE",
"336 652 CURVE SMOOTH",
"461 652 LINE",
"433 677 LINE",
"-52 16 LINE",
"-56 0 LINE"
);
}
);
width = 550;
},
{
anchors = (
{
name = bottom;
position = "{187, 0}";
},
{
name = center;
position = "{278, 340}";
},
{
name = top;
position = "{369, 680}";
}
);
background = {
anchors = (
{
name = bottom;
position = "{265, 0}";
},
{
name = center;
position = "{265, 340}";
},
{
name = top;
position = "{265, 680}";
}
);
hints = (
{
horizontal = 1;
place = "{33, 21}";
target = up;
type = BottomGhost;
},
{
horizontal = 1;
place = "{713, -20}";
target = down;
type = TopGhost;
}
);
paths = (
{
closed = 1;
nodes = (
"486 0 LINE",
"486 127 LINE",
"476 127 LINE",
"476 23 OFFCURVE",
"450 10 OFFCURVE",
"341 10 CURVE SMOOTH",
"78 10 LINE",
"482 671 LINE",
"482 680 LINE",
"57 680 LINE",
"57 575 LINE",
"67 575 LINE",
"67 669 OFFCURVE",
"105 671 OFFCURVE",
"198 671 CURVE SMOOTH",
"471 671 LINE",
"455 678 LINE",
"44 6 LINE",
"44 0 LINE"
);
}
);
};
hints = (
{
horizontal = 1;
place = "{12, 22}";
type = Stem;
},
{
horizontal = 1;
place = "{683, 21}";
type = Stem;
},
{
place = "{-42, 652}";
type = Stem;
}
);
layerId = "B3CAC60A-28EB-414C-BF20-F972525BD7DF";
paths = (
{
closed = 1;
nodes = (
"400 0 LINE",
"434 127 LINE",
"424 127 LINE",
"396 23 OFFCURVE",
"367 10 OFFCURVE",
"258 10 CURVE SMOOTH",
"0 10 LINE",
"596 671 LINE",
"596 680 LINE",
"193 680 LINE",
"165 575 LINE",
"175 575 LINE",
"210 669 OFFCURVE",
"229 670 OFFCURVE",
"355 670 CURVE SMOOTH",
"582 670 LINE",
"567 677 LINE",
"-40 6 LINE",
"-40 0 LINE"
);
}
);
width = 498;
}
);
leftKerningGroup = Z;
note = Z;
rightKerningGroup = Z;
unicode = 005A;
},
{
glyphname = A.ss01;
lastChange = "2021-06-25 08:16:55 +0000";
layers = (
{
anchors = (
{
name = bottom;
position = "{284, 0}";
},
{
name = center;
position = "{281, 340}";
},
{
name = ogonek;
position = "{576, 0}";
},
{
name = top;
position = "{304, 680}";
},
{
name = topleft;
position = "{110, 680}";
}
);
background = {
anchors = (
{
name = bottom;
position = "{284, 0}";
},
{
name = center;
position = "{281, 340}";
},
{
name = ogonek;
position = "{576, 0}";
},
{
name = top;
position = "{304, 680}";
},
{
name = topleft;
position = "{110, 680}";
}
);
hints = (
{
horizontal = 1;
place = "{33, 21}";
target = up;
type = BottomGhost;
},
{
horizontal = 1;
place = "{723, -20}";
target = down;
type = TopGhost;
}
);
paths = (
{
closed = 1;
nodes = (
"318 692 LINE",
"314 692 LINE",
"314 686 OFFCURVE",
"312 683 OFFCURVE",
"308 681 CURVE",
"108 126 LINE SMOOTH",
"66 9 OFFCURVE",
"54 7 OFFCURVE",
"27 7 CURVE SMOOTH",
"22 7 LINE",
"22 0 LINE",
"130 0 LINE",
"130 7 LINE",
"121 7 LINE SMOOTH",
"86 7 OFFCURVE",
"76 9 OFFCURVE",
"117 124 CURVE SMOOTH",
"142 193 LINE",
"166 248 OFFCURVE",
"204 260 OFFCURVE",
"232 260 CURVE SMOOTH",
"282 260 OFFCURVE",
"314 222 OFFCURVE",
"357 222 CURVE SMOOTH",
"389 222 OFFCURVE",
"417 242 OFFCURVE",
"436 279 CURVE",
"494 116 LINE SMOOTH",
"524 32 OFFCURVE",
"526 7 OFFCURVE",
"492 7 CURVE SMOOTH",
"476 7 LINE",
"476 0 LINE",
"604 0 LINE",
"604 7 LINE",
"569 7 OFFCURVE",
"562 13 OFFCURVE",
"527 110 CURVE SMOOTH"
);
},
{
closed = 1;
nodes = (
"317 233 OFFCURVE",
"288 271 OFFCURVE",
"237 271 CURVE SMOOTH",
"210 271 OFFCURVE",
"178 260 OFFCURVE",
"154 227 CURVE",
"305 648 LINE",
"434 286 LINE",
"418 254 OFFCURVE",
"396 233 OFFCURVE",
"362 233 CURVE SMOOTH"
);
}
);
};
hints = (
{
horizontal = 1;
place = "{33, 21}";
target = up;
type = BottomGhost;
},
{
horizontal = 1;
place = "{723, -20}";
target = down;
type = TopGhost;
}
);
layerId = "B3CAC60A-28EB-414C-BF20-F972525BD7DF";
paths = (
{
closed = 1;
nodes = (
"318 692 LINE",
"314 692 LINE",
"314 686 OFFCURVE",
"312 683 OFFCURVE",
"308 681 CURVE",
"108 126 LINE SMOOTH",
"66 9 OFFCURVE",
"54 7 OFFCURVE",
"27 7 CURVE SMOOTH",
"22 7 LINE",
"22 0 LINE",
"130 0 LINE",
"130 7 LINE",
"121 7 LINE SMOOTH",
"86 7 OFFCURVE",
"76 9 OFFCURVE",
"117 124 CURVE SMOOTH",
"142 193 LINE",
"166 248 OFFCURVE",
"204 260 OFFCURVE",
"232 260 CURVE SMOOTH",
"282 260 OFFCURVE",
"314 222 OFFCURVE",
"357 222 CURVE SMOOTH",
"389 222 OFFCURVE",
"417 242 OFFCURVE",
"436 279 CURVE",
"494 116 LINE SMOOTH",
"524 32 OFFCURVE",
"526 7 OFFCURVE",
"492 7 CURVE SMOOTH",
"476 7 LINE",
"476 0 LINE",
"604 0 LINE",
"604 7 LINE",
"569 7 OFFCURVE",
"562 13 OFFCURVE",
"527 110 CURVE SMOOTH"
);
},
{
closed = 1;
nodes = (
"317 233 OFFCURVE",
"288 271 OFFCURVE",
"237 271 CURVE SMOOTH",
"210 271 OFFCURVE",
"178 260 OFFCURVE",
"154 227 CURVE",
"305 648 LINE",
"434 286 LINE",
"418 254 OFFCURVE",
"396 233 OFFCURVE",
"362 233 CURVE SMOOTH"
);
}
);
width = 626;
},
{
anchors = (
{
name = bottom;
position = "{285, 0}";
},
{
name = center;
position = "{282, 340}";
},
{
name = ogonek;
position = "{597, 0}";
},
{
name = top;
position = "{325, 680}";
},
{
name = topleft;
position = "{131, 680}";
}
);
hints = (
{
horizontal = 1;
place = "{-15, 213}";
type = Stem;
},
{
horizontal = 1;
place = "{675, -20}";
target = down;
type = TopGhost;
},
{
horizontal = 1;
place = "{181, 17}";
type = Stem;
}
);
layerId = "838EFC6A-184F-4DB1-9A1E-77D55F860A0C";
paths = (
{
closed = 1;
nodes = (
"397 715 LINE",
"378 715 LINE",
"352 649 OFFCURVE",
"300 614 OFFCURVE",
"246 600 CURVE",
"119 177 LINE SMOOTH",
"73 25 OFFCURVE",
"45 16 OFFCURVE",
"9 16 CURVE SMOOTH",
"4 16 LINE",
"4 0 LINE",
"185 0 LINE",
"185 16 LINE",
"174 16 LINE SMOOTH",
"130 16 OFFCURVE",
"117 54 OFFCURVE",
"142 144 CURVE SMOOTH",
"146 159 LINE SMOOTH",
"158 193 OFFCURVE",
"177 198 OFFCURVE",
"189 198 CURVE SMOOTH",
"217 198 OFFCURVE",
"238 175 OFFCURVE",
"267 175 CURVE SMOOTH",
"288 175 OFFCURVE",
"308 187 OFFCURVE",
"319 215 CURVE",
"340 127 LINE SMOOTH",
"361 39 OFFCURVE",
"353 16 OFFCURVE",
"304 16 CURVE SMOOTH",
"293 16 LINE",
"293 0 LINE",
"634 0 LINE",
"634 16 LINE",
"590 16 OFFCURVE",
"579 35 OFFCURVE",
"568 77 CURVE SMOOTH"
);
},
{
closed = 1;
nodes = (
"249 220 OFFCURVE",
"229 238 OFFCURVE",
"207 238 CURVE SMOOTH",
"188 238 OFFCURVE",
"172 225 OFFCURVE",
"158 202 CURVE",
"247 516 LINE",
"315 232 LINE",
"305 224 OFFCURVE",
"292 220 OFFCURVE",
"278 220 CURVE SMOOTH"
);
}
);
width = 638;
}
);
},
{
glyphname = E.ss01;
lastChange = "2021-06-25 08:16:55 +0000";
layers = (
{
anchors = (
{
name = bottom;
position = "{247, 0}";
},
{
name = ogonek;
position = "{431, 10}";
},
{
name = top;
position = "{247, 680}";
},
{
name = topleft;
position = "{37, 680}";
}
);
background = {
anchors = (
{
name = bottom;
position = "{247, 0}";
},
{
name = ogonek;
position = "{431, 10}";
},
{
name = top;
position = "{247, 680}";
},
{
name = topleft;
position = "{37, 680}";
}
);
hints = (
{
horizontal = 1;
place = "{33, 21}";
target = up;
type = BottomGhost;
},
{
horizontal = 1;
place = "{713, -20}";
target = down;
type = TopGhost;
},
{
place = "{129, 62}";
type = Stem;
}
);
paths = (
{
closed = 1;
nodes = (
"433 0 LINE",
"433 117 LINE",
"423 117 LINE",
"423 9 OFFCURVE",
"397 10 OFFCURVE",
"323 10 CURVE SMOOTH",
"184 10 LINE SMOOTH",
"144 10 OFFCURVE",
"131 14 OFFCURVE",
"131 68 CURVE SMOOTH",
"131 350 LINE",
"152 369 OFFCURVE",
"166 373 OFFCURVE",
"186 373 CURVE SMOOTH",
"224 373 OFFCURVE",
"255 333 OFFCURVE",
"295 333 CURVE SMOOTH",
"327 333 OFFCURVE",
"359 356 OFFCURVE",
"378 413 CURVE",
"372 415 LINE",
"354 361 OFFCURVE",
"326 346 OFFCURVE",
"298 346 CURVE SMOOTH",
"259 346 OFFCURVE",
"230 385 OFFCURVE",
"191 385 CURVE SMOOTH",
"170 385 OFFCURVE",
"154 379 OFFCURVE",
"131 357 CURVE",
"131 671 LINE",
"309 671 LINE SMOOTH",
"398 671 OFFCURVE",
"408 658 OFFCURVE",
"408 585 CURVE",
"418 585 LINE",
"418 680 LINE",
"51 680 LINE",
"51 673 LINE",
"97 673 OFFCURVE",
"102 666 OFFCURVE",
"102 614 CURVE SMOOTH",
"102 66 LINE SMOOTH",
"102 14 OFFCURVE",
"97 7 OFFCURVE",
"51 7 CURVE",
"51 0 LINE"
);
}
);
};
hints = (
{
horizontal = 1;
place = "{33, 21}";
target = up;
type = BottomGhost;
},
{
horizontal = 1;
place = "{713, -20}";
target = down;
type = TopGhost;
},
{
place = "{129, 62}";
type = Stem;
}
);
layerId = "B3CAC60A-28EB-414C-BF20-F972525BD7DF";
paths = (
{
closed = 1;
nodes = (
"433 0 LINE",
"433 117 LINE",
"423 117 LINE",
"423 9 OFFCURVE",
"397 10 OFFCURVE",
"323 10 CURVE SMOOTH",
"184 10 LINE SMOOTH",
"144 10 OFFCURVE",
"131 14 OFFCURVE",
"131 68 CURVE SMOOTH",
"131 350 LINE",
"152 369 OFFCURVE",
"166 373 OFFCURVE",
"186 373 CURVE SMOOTH",
"224 373 OFFCURVE",
"255 333 OFFCURVE",
"295 333 CURVE SMOOTH",
"327 333 OFFCURVE",
"359 356 OFFCURVE",
"378 413 CURVE",
"372 415 LINE",
"354 361 OFFCURVE",
"326 346 OFFCURVE",
"298 346 CURVE SMOOTH",
"259 346 OFFCURVE",
"230 385 OFFCURVE",
"191 385 CURVE SMOOTH",
"170 385 OFFCURVE",
"154 379 OFFCURVE",
"131 357 CURVE",
"131 671 LINE",
"309 671 LINE SMOOTH",
"398 671 OFFCURVE",
"408 658 OFFCURVE",
"408 585 CURVE",
"418 585 LINE",
"418 680 LINE",
"51 680 LINE",
"51 673 LINE",
"97 673 OFFCURVE",
"102 666 OFFCURVE",
"102 614 CURVE SMOOTH",
"102 66 LINE SMOOTH",
"102 14 OFFCURVE",
"97 7 OFFCURVE",
"51 7 CURVE",
"51 0 LINE"
);
}
);
width = 494;
},
{
anchors = (
{
name = bottom;
position = "{270, 0}";
},
{
name = ogonek;
position = "{485, 10}";
},
{
name = top;
position = "{270, 680}";
},
{
name = topleft;
position = "{20, 680}";
}
);
hints = (
{
horizontal = 1;
place = "{-15, 21}";
type = Stem;
},
{
horizontal = 1;
place = "{325, 20}";
type = Stem;
},
{
horizontal = 1;
place = "{637, 13}";
type = Stem;
},
{
place = "{71, 181}";
type = Stem;
}
);
layerId = "838EFC6A-184F-4DB1-9A1E-77D55F860A0C";
paths = (
{
closed = 1;
nodes = (
"509 0 LINE",
"509 179 LINE",
"493 179 LINE",
"493 71 OFFCURVE",
"459 36 OFFCURVE",
"375 36 CURVE SMOOTH",
"323 36 LINE SMOOTH",
"291 36 OFFCURVE",
"278 50 OFFCURVE",
"278 86 CURVE SMOOTH",
"278 319 LINE",
"288 327 OFFCURVE",
"302 331 OFFCURVE",
"317 331 CURVE SMOOTH",
"348 331 OFFCURVE",
"371 311 OFFCURVE",
"397 311 CURVE SMOOTH",
"424 311 OFFCURVE",
"453 325 OFFCURVE",
"472 385 CURVE",
"460 390 LINE",
"450 371 OFFCURVE",
"440 366 OFFCURVE",
"421 366 CURVE SMOOTH",
"384 366 OFFCURVE",
"362 386 OFFCURVE",
"337 386 CURVE SMOOTH",
"315 386 OFFCURVE",
"295 374 OFFCURVE",
"278 339 CURVE",
"278 645 LINE",
"361 645 LINE SMOOTH",
"460 645 OFFCURVE",
"474 599 OFFCURVE",
"474 521 CURVE",
"490 521 LINE",
"490 680 LINE",
"11 680 LINE",
"11 664 LINE",
"67 664 OFFCURVE",
"82 646 OFFCURVE",
"82 594 CURVE SMOOTH",
"82 86 LINE SMOOTH",
"82 34 OFFCURVE",
"67 16 OFFCURVE",
"11 16 CURVE",
"11 0 LINE"
);
}
);
width = 539;
}
);
},
{
glyphname = F.ss01;
lastChange = "2021-06-25 08:16:55 +0000";
layers = (
{
anchors = (
{
name = bottomright;
position = "{131, 0}";
},
{
name = top;
position = "{239, 680}";
}
);
background = {
anchors = (
{
name = bottomright;
position = "{131, 0}";
},
{
name = top;
position = "{239, 680}";
}
);
hints = (
{
horizontal = 1;
place = "{33, 21}";
target = up;
type = BottomGhost;
},
{
horizontal = 1;
place = "{713, -20}";
target = down;
type = TopGhost;
},
{
place = "{129, 62}";
type = Stem;
}
);
paths = (
{
closed = 1;
nodes = (
"188 0 LINE",
"188 7 LINE",
"137 7 OFFCURVE",
"131 14 OFFCURVE",
"131 66 CURVE SMOOTH",
"131 341 LINE",
"152 360 OFFCURVE",
"166 364 OFFCURVE",
"186 364 CURVE SMOOTH",
"224 364 OFFCURVE",
"255 324 OFFCURVE",
"295 324 CURVE SMOOTH",
"327 324 OFFCURVE",
"359 347 OFFCURVE",
"378 404 CURVE",
"372 406 LINE",
"354 352 OFFCURVE",
"326 337 OFFCURVE",
"298 337 CURVE SMOOTH",
"259 337 OFFCURVE",
"230 376 OFFCURVE",
"191 376 CURVE SMOOTH",
"170 376 OFFCURVE",
"154 370 OFFCURVE",
"131 348 CURVE",
"131 671 LINE",
"289 671 LINE SMOOTH",
"378 671 OFFCURVE",
"388 658 OFFCURVE",
"388 585 CURVE",
"398 585 LINE",
"398 680 LINE",
"51 680 LINE",
"51 673 LINE",
"97 673 OFFCURVE",
"102 666 OFFCURVE",
"102 614 CURVE SMOOTH",
"102 66 LINE SMOOTH",
"102 14 OFFCURVE",
"97 7 OFFCURVE",
"51 7 CURVE",
"51 0 LINE"
);
}
);
};
hints = (
{
horizontal = 1;
place = "{33, 21}";
target = up;
type = BottomGhost;
},
{
horizontal = 1;
place = "{713, -20}";
target = down;
type = TopGhost;
},
{
place = "{129, 62}";
type = Stem;
}
);
layerId = "B3CAC60A-28EB-414C-BF20-F972525BD7DF";
paths = (
{
closed = 1;
nodes = (
"188 0 LINE",
"188 7 LINE",
"137 7 OFFCURVE",
"131 14 OFFCURVE",
"131 66 CURVE SMOOTH",
"131 341 LINE",
"152 360 OFFCURVE",
"166 364 OFFCURVE",
"186 364 CURVE SMOOTH",
"224 364 OFFCURVE",
"255 324 OFFCURVE",
"295 324 CURVE SMOOTH",
"327 324 OFFCURVE",
"359 347 OFFCURVE",
"378 404 CURVE",
"372 406 LINE",
"354 352 OFFCURVE",
"326 337 OFFCURVE",
"298 337 CURVE SMOOTH",
"259 337 OFFCURVE",
"230 376 OFFCURVE",
"191 376 CURVE SMOOTH",
"170 376 OFFCURVE",
"154 370 OFFCURVE",
"131 348 CURVE",
"131 671 LINE",
"289 671 LINE SMOOTH",
"378 671 OFFCURVE",
"388 658 OFFCURVE",
"388 585 CURVE",
"398 585 LINE",
"398 680 LINE",
"51 680 LINE",
"51 673 LINE",
"97 673 OFFCURVE",
"102 666 OFFCURVE",
"102 614 CURVE SMOOTH",
"102 66 LINE SMOOTH",
"102 14 OFFCURVE",
"97 7 OFFCURVE",
"51 7 CURVE",
"51 0 LINE"
);
}
);
width = 452;
},
{
anchors = (
{
name = bottomright;
position = "{278, 0}";
},
{
name = top;
position = "{260, 680}";
}
);
hints = (
{
horizontal = 1;
place = "{-15, 21}";
target = up;
type = BottomGhost;
},
{
horizontal = 1;
place = "{325, 20}";
type = Stem;
},
{
horizontal = 1;
place = "{637, 13}";
type = Stem;
},
{
place = "{71, 181}";
type = Stem;
}
);
layerId = "838EFC6A-184F-4DB1-9A1E-77D55F860A0C";
paths = (
{
closed = 1;
nodes = (
"354 0 LINE",
"354 16 LINE",
"293 16 OFFCURVE",
"278 34 OFFCURVE",
"278 86 CURVE SMOOTH",
"278 309 LINE",
"288 317 OFFCURVE",
"302 321 OFFCURVE",
"317 321 CURVE SMOOTH",
"348 321 OFFCURVE",
"371 301 OFFCURVE",
"397 301 CURVE SMOOTH",
"424 301 OFFCURVE",
"453 315 OFFCURVE",
"472 375 CURVE",
"460 380 LINE",
"450 361 OFFCURVE",
"440 356 OFFCURVE",
"421 356 CURVE SMOOTH",
"384 356 OFFCURVE",
"362 376 OFFCURVE",
"337 376 CURVE SMOOTH",
"315 376 OFFCURVE",
"295 364 OFFCURVE",
"278 330 CURVE",
"278 646 LINE",
"355 646 LINE SMOOTH",
"452 646 OFFCURVE",
"468 598 OFFCURVE",
"468 526 CURVE",
"484 526 LINE",
"484 680 LINE",
"11 680 LINE",
"11 664 LINE",
"67 664 OFFCURVE",
"82 646 OFFCURVE",
"82 594 CURVE SMOOTH",
"82 86 LINE SMOOTH",
"82 34 OFFCURVE",
"67 16 OFFCURVE",
"11 16 CURVE",
"11 0 LINE"
);
}
);
width = 507;
}
);
},
{
glyphname = H.ss01;
lastChange = "2021-06-25 08:16:55 +0000";
layers = (
{
anchors = (
{
name = bottom;
position = "{321, 0}";
},
{
name = center;
position = "{321, 340}";
},
{
name = top;
position = "{321, 680}";
},
{
name = topleft;
position = "{37, 680}";
}
);
background = {
anchors = (
{
name = bottom;
position = "{321, 0}";
},
{
name = center;
position = "{321, 340}";
},
{
name = top;
position = "{321, 680}";
},
{
name = topleft;
position = "{37, 680}";
}
);
hints = (
{
horizontal = 1;
place = "{33, 21}";
target = up;
type = BottomGhost;
},
{
horizontal = 1;
place = "{713, -20}";
target = down;
type = TopGhost;
},
{
place = "{129, 62}";
type = Stem;
},
{
place = "{538, 62}";
type = Stem;
}
);
paths = (
{
closed = 1;
nodes = (
"591 680 LINE",
"460 680 LINE",
"460 673 LINE",
"506 673 OFFCURVE",
"511 666 OFFCURVE",
"511 614 CURVE SMOOTH",
"511 404 LINE",
"487 371 OFFCURVE",
"459 350 OFFCURVE",
"416 350 CURVE SMOOTH",
"349 350 OFFCURVE",
"294 395 OFFCURVE",
"232 395 CURVE SMOOTH",
"192 395 OFFCURVE",
"159 381 OFFCURVE",
"131 346 CURVE",
"131 614 LINE SMOOTH",
"131 666 OFFCURVE",
"136 673 OFFCURVE",
"182 673 CURVE",
"182 680 LINE",
"51 680 LINE",
"51 673 LINE",
"97 673 OFFCURVE",
"102 666 OFFCURVE",
"102 614 CURVE SMOOTH",
"102 66 LINE SMOOTH",
"102 14 OFFCURVE",
"97 7 OFFCURVE",
"51 7 CURVE",
"51 0 LINE",
"182 0 LINE",
"182 7 LINE",
"136 7 OFFCURVE",
"131 14 OFFCURVE",
"131 66 CURVE SMOOTH",
"131 338 LINE",
"157 370 OFFCURVE",
"182 384 OFFCURVE",
"219 384 CURVE SMOOTH",
"285 384 OFFCURVE",
"342 339 OFFCURVE",
"406 339 CURVE SMOOTH",
"445 339 OFFCURVE",
"481 353 OFFCURVE",
"511 394 CURVE",
"511 66 LINE SMOOTH",
"511 14 OFFCURVE",
"506 7 OFFCURVE",
"460 7 CURVE",
"460 0 LINE",
"591 0 LINE",
"591 7 LINE",
"545 7 OFFCURVE",
"540 14 OFFCURVE",
"540 66 CURVE SMOOTH",
"540 614 LINE SMOOTH",
"540 666 OFFCURVE",
"545 673 OFFCURVE",
"591 673 CURVE"
);
}
);
};
hints = (
{
horizontal = 1;
place = "{33, 21}";
target = up;
type = BottomGhost;
},
{
horizontal = 1;
place = "{713, -20}";
target = down;
type = TopGhost;
},
{
place = "{129, 62}";
type = Stem;
},
{
place = "{538, 62}";
type = Stem;
}
);
layerId = "B3CAC60A-28EB-414C-BF20-F972525BD7DF";
paths = (
{
closed = 1;
nodes = (
"591 680 LINE",
"460 680 LINE",
"460 673 LINE",
"506 673 OFFCURVE",
"511 666 OFFCURVE",
"511 614 CURVE SMOOTH",
"511 404 LINE",
"487 371 OFFCURVE",
"459 350 OFFCURVE",
"416 350 CURVE SMOOTH",
"349 350 OFFCURVE",
"294 395 OFFCURVE",
"232 395 CURVE SMOOTH",
"192 395 OFFCURVE",
"159 381 OFFCURVE",
"131 346 CURVE",
"131 614 LINE SMOOTH",
"131 666 OFFCURVE",
"136 673 OFFCURVE",
"182 673 CURVE",
"182 680 LINE",
"51 680 LINE",
"51 673 LINE",
"97 673 OFFCURVE",
"102 666 OFFCURVE",
"102 614 CURVE SMOOTH",
"102 66 LINE SMOOTH",
"102 14 OFFCURVE",
"97 7 OFFCURVE",
"51 7 CURVE",
"51 0 LINE",
"182 0 LINE",
"182 7 LINE",
"136 7 OFFCURVE",
"131 14 OFFCURVE",
"131 66 CURVE SMOOTH",
"131 338 LINE",
"157 370 OFFCURVE",
"182 384 OFFCURVE",
"219 384 CURVE SMOOTH",
"285 384 OFFCURVE",
"342 339 OFFCURVE",
"406 339 CURVE SMOOTH",
"445 339 OFFCURVE",
"481 353 OFFCURVE",
"511 394 CURVE",
"511 66 LINE SMOOTH",
"511 14 OFFCURVE",
"506 7 OFFCURVE",
"460 7 CURVE",
"460 0 LINE",
"591 0 LINE",
"591 7 LINE",
"545 7 OFFCURVE",
"540 14 OFFCURVE",
"540 66 CURVE SMOOTH",
"540 614 LINE SMOOTH",
"540 666 OFFCURVE",
"545 673 OFFCURVE",
"591 673 CURVE"
);
}
);
width = 642;
},
{
anchors = (
{
name = bottom;
position = "{366, 0}";
},
{
name = center;
position = "{366, 340}";
},
{
name = top;
position = "{366, 680}";
},
{
name = topleft;
position = "{20, 680}";
}
);
hints = (
{
horizontal = 1;
place = "{-15, 21}";
target = up;
type = BottomGhost;
},
{
horizontal = 1;
place = "{325, 20}";
type = Stem;
},
{
horizontal = 1;
place = "{665, -20}";
target = down;
type = TopGhost;
},
{
place = "{71, 180}";
type = Stem;
},
{
place = "{410, 180}";
type = Stem;
}
);
layerId = "838EFC6A-184F-4DB1-9A1E-77D55F860A0C";
paths = (
{
closed = 1;
nodes = (
"720 680 LINE",
"393 680 LINE",
"393 664 LINE",
"449 664 OFFCURVE",
"453 646 OFFCURVE",
"453 594 CURVE SMOOTH",
"453 375 LINE",
"445 369 OFFCURVE",
"436 366 OFFCURVE",
"421 366 CURVE SMOOTH",
"384 366 OFFCURVE",
"362 386 OFFCURVE",
"337 386 CURVE SMOOTH",
"315 386 OFFCURVE",
"295 374 OFFCURVE",
"278 340 CURVE",
"278 594 LINE SMOOTH",
"278 646 OFFCURVE",
"282 664 OFFCURVE",
"338 664 CURVE",
"338 680 LINE",
"11 680 LINE",
"11 664 LINE",
"67 664 OFFCURVE",
"82 646 OFFCURVE",
"82 594 CURVE SMOOTH",
"82 86 LINE SMOOTH",
"82 34 OFFCURVE",
"67 16 OFFCURVE",
"11 16 CURVE",
"11 0 LINE",
"338 0 LINE",
"338 16 LINE",
"282 16 OFFCURVE",
"278 34 OFFCURVE",
"278 86 CURVE SMOOTH",
"278 319 LINE",
"288 327 OFFCURVE",
"302 331 OFFCURVE",
"317 331 CURVE SMOOTH",
"348 331 OFFCURVE",
"371 311 OFFCURVE",
"397 311 CURVE SMOOTH",
"418 311 OFFCURVE",
"437 321 OFFCURVE",
"453 350 CURVE",
"453 86 LINE SMOOTH",
"453 34 OFFCURVE",
"449 16 OFFCURVE",
"393 16 CURVE",
"393 0 LINE",
"720 0 LINE",
"720 16 LINE",
"664 16 OFFCURVE",
"649 34 OFFCURVE",
"649 86 CURVE SMOOTH",
"649 594 LINE SMOOTH",
"649 646 OFFCURVE",
"664 664 OFFCURVE",
"720 664 CURVE"
);
}
);
width = 731;
}
);
},
